<svg xmlns="http://www.w3.org/2000/svg" viewBox="0 0 29.59 31.17"><defs><style>.cls-1{fill:#3d4e68;}.cls-2{fill:#f45b44;}.cls-3{fill:#bad3ce;}.cls-4{fill:#d4e9e5;}.cls-5{fill:#fff;}.cls-6{fill:#fa8573;}</style></defs><g id="Layer_2" data-name="Layer 2"><g id="Image"><path class="cls-1" d="M13.7,30.48c-.28-.2-.86-.63-.88-.63l-.2-4.08h-.18l.21,4.09a9.44,9.44,0,0,0-.77.91c-.13.18.18.35.31.16a4.25,4.25,0,0,1,.42-.53c0,.2,0,.4.06.6s.38.21.35,0,0-.42-.06-.63l.5.37C13.64,30.87,13.88,30.62,13.7,30.48Z"/><path class="cls-1" d="M9.62,29.23,11,25.34l-.16-.06L9.46,29.16s-.34.17-.41.19a2.62,2.62,0,0,1-.48.13c-.22,0-.21.39,0,.35a4,4,0,0,0,.62-.16,5.77,5.77,0,0,1-.22.58c-.09.21.2.37.3.17,0,0,.19-.45.25-.62.1.16.2.32.32.48s.43,0,.3-.19A9.46,9.46,0,0,1,9.62,29.23Z"/><path class="cls-2" d="M21.81,20A10.6,10.6,0,0,1,16,16.82c-.89-1.08-1.59-3.05-2.71-4.78a18,18,0,0,1-6.34,5.15,13.83,13.83,0,0,1-5,1.18A12.81,12.81,0,0,0,4,23a9.47,9.47,0,0,0,7.83,4.09,13.69,13.69,0,0,0,8.45-2.45c2.88-2.3,4.76-4.05,5.54-6.13A5.86,5.86,0,0,1,21.81,20Z"/><path class="cls-3" d="M27.12,13.33a1.51,1.51,0,0,0-.75.46,2.52,2.52,0,0,0-.5,1.16,3.83,3.83,0,0,0-.12.9c0,.2.16,2.52.16,2.52a6.53,6.53,0,0,1,.95-.86,5.45,5.45,0,0,0,1.39-1.93c.11-.27.48-1.4.1-1.86A1.2,1.2,0,0,0,27.12,13.33Z"/><path class="cls-3" d="M28.84,17.41a2,2,0,0,0-.88,0,3.8,3.8,0,0,0-2.05,1,7.64,7.64,0,0,0,2.48.6,1.34,1.34,0,0,0,1-.19.74.74,0,0,0,.12-.83A1,1,0,0,0,28.84,17.41Z"/><path class="cls-1" d="M.82,13.09a.6.6,0,0,0-.15.78,2,2,0,0,0,1.09.66,2.22,2.22,0,0,0-1.29.24c-.3.17-.6.49-.41.85s.53.29.81.13A3.4,3.4,0,0,0,2,14.51a2,2,0,0,0-.32-1.3A.6.6,0,0,0,.82,13.09Z"/><path class="cls-4" d="M13.27,12A6.42,6.42,0,0,0,8.33,8.77C4,8.41,1.8,13.22,1.65,15.5a9.9,9.9,0,0,0,.23,2.87,13.83,13.83,0,0,0,5.05-1.18A18,18,0,0,0,13.27,12Z"/><path class="cls-5" d="M5,22.88c.27.22.59.28.7.14s0-.43-.29-.65-.59-.29-.71-.15S4.76,22.66,5,22.88Z"/><path class="cls-5" d="M6.61,24.47c.32.21.68.24.8.06s0-.51-.37-.72-.68-.25-.8-.06S6.28,24.25,6.61,24.47Z"/><path class="cls-5" d="M8.92,25.31c.31.17.62.22.69.1s-.13-.36-.44-.54-.62-.21-.69-.09S8.61,25.14,8.92,25.31Z"/><path class="cls-5" d="M4.67,21.7c.09-.07,0-.32-.13-.56s-.38-.38-.47-.31,0,.31.13.55S4.58,21.76,4.67,21.7Z"/><path class="cls-5" d="M10.77,26.15c0-.14-.22-.3-.58-.36s-.69,0-.73.15.22.42.58.48A.72.72,0,0,0,10.77,26.15Z"/><path class="cls-5" d="M6.17,23.17a.35.35,0,0,0,.5,0,.35.35,0,0,0-.06-.5.36.36,0,0,0-.5-.05A.37.37,0,0,0,6.17,23.17Z"/><path class="cls-5" d="M7.74,25.5a.86.86,0,0,0,.65.26c.18,0,.16-.21,0-.4a.89.89,0,0,0-.66-.26C7.53,25.14,7.55,25.32,7.74,25.5Z"/><path class="cls-5" d="M7.88,24.3a.22.22,0,0,0,.29-.1A.23.23,0,0,0,8,23.94a.21.21,0,0,0-.28.11A.21.21,0,0,0,7.88,24.3Z"/><path class="cls-5" d="M3.88,20.87a.15.15,0,0,0,0-.21.16.16,0,0,0-.2-.08.16.16,0,0,0,0,.22C3.73,20.87,3.82,20.91,3.88,20.87Z"/><path class="cls-3" d="M21.92,16.8c-2.21-.73-4.06-2-6.24-2.27-3-.44-5.13.14-5.72,2.82C9.68,18.6,10.72,20,12.42,21A7.38,7.38,0,0,0,17,22c4.2-.56,7.62-5.35,7.49-5.58S23,17.16,21.92,16.8Z"/><path class="cls-4" d="M11.78,19.31a4.9,4.9,0,0,1,.39-.71,2.56,2.56,0,0,0,.56-1.4,3.58,3.58,0,0,1,0-.73,1.69,1.69,0,0,1,.28-.59,5.27,5.27,0,0,0,.59-1.48,5,5,0,0,0-.56.06,2.05,2.05,0,0,1-.45,1.3,3.44,3.44,0,0,0-.27.27c-.31.39-.18.95-.23,1.45a2,2,0,0,1-.32.87c-.14.21-.32.39-.45.6a2,2,0,0,0-.27,1,5.53,5.53,0,0,0,.62.53A2.48,2.48,0,0,1,11.78,19.31Z"/><path class="cls-4" d="M16.35,17.63l.15-1c.09-.62.18-1.24.28-1.86a10.48,10.48,0,0,0-1.14-.25l-.28,0c-.17.81-.35,1.62-.55,2.43-.27,1.14-.58,2.28-.84,3.42-.09.42-.18.84-.23,1.26a7.59,7.59,0,0,0,2,.43c.15-1.22.32-2.43.49-3.64C16.28,18.13,16.32,17.88,16.35,17.63Z"/><path class="cls-4" d="M22.5,16.87h-.22a15.83,15.83,0,0,0,1.08,1.23l.11-.13C23.13,17.61,22.81,17.25,22.5,16.87Z"/><path class="cls-4" d="M20.52,18.66c0-.22,0-.44,0-.66,0-.59-.05-1.2-.12-1.79L20,16.05a18.26,18.26,0,0,1,.14,2l0,.67a10.73,10.73,0,0,0,.25,2l.31-.21A10.18,10.18,0,0,1,20.52,18.66Z"/><path class="cls-6" d="M20.52,23.07a1,1,0,0,0-.9-.11,2.48,2.48,0,0,0-.78.5l.57-.5c.16-.13.41-.46.33-.67s-.38-.21-.59-.15a2.63,2.63,0,0,0-1.42,1.45,5.92,5.92,0,0,0-.47,1.46,1,1,0,0,1,.6-.61,3.17,3.17,0,0,1,.86-.2,8.41,8.41,0,0,0,1.48-.36c.23-.08.49-.22.5-.45A.47.47,0,0,0,20.52,23.07Z"/><path class="cls-1" d="M5.91,14.16H5.46l.36-.27a.08.08,0,0,0,0-.1.08.08,0,0,0-.1,0l-.38.29a1.1,1.1,0,0,0,0-.48.81.81,0,0,0-.43-.52.85.85,0,0,0-.77,0,1.54,1.54,0,0,0-.52.55s0,.07,0,.1a.09.09,0,0,0,.1,0,1.24,1.24,0,0,1,.47-.49.69.69,0,0,1,.62-.05.68.68,0,0,1,.36.43,1.5,1.5,0,0,1,0,.6c0,.12.09.09.09.09h.64A.08.08,0,0,0,6,14.23.07.07,0,0,0,5.91,14.16Z"/><path class="cls-2" d="M5,5.26c.5-.62,2.44-3,6.61-1.31s2.13,7.56,2.13,7.56-3.31-1.21-5-1.07-5-2.25-5-2.25A14.84,14.84,0,0,1,5,5.26Z"/><path class="cls-6" d="M5.37,5.62c.2-.19.35,0,.3.25s-.21.48-.4.5a.1.1,0,0,1-.12,0,.11.11,0,0,1,0-.08A.79.79,0,0,1,5.37,5.62Z"/><path class="cls-6" d="M6.5,4.72c.17,0,.07.13,0,.18s-.18.14-.27.2A.3.3,0,0,1,6,5.19l0,0a.07.07,0,0,1,0,0,.48.48,0,0,1,.21-.34A.46.46,0,0,1,6.5,4.72Z"/><path class="cls-6" d="M7.07,4.54c-.13-.15.12-.36.25-.4s.49,0,.53.14-.2.17-.28.2S7.17,4.66,7.07,4.54Z"/><path class="cls-6" d="M8.59,4.22a.12.12,0,0,1-.1-.09c0-.07,0-.13.1-.16a.44.44,0,0,1,.2,0,1,1,0,0,1,.56.13s0,.07,0,.09a.16.16,0,0,1-.1,0l-.51.05A.29.29,0,0,1,8.59,4.22Z"/><path class="cls-6" d="M8.12,4.43a.42.42,0,0,1,.26-.08.19.19,0,0,1,.19.17.14.14,0,0,1,0,.06l-.08,0-.29.09c-.09,0-.22,0-.26,0S8,4.5,8.12,4.43Z"/><path class="cls-6" d="M7.14,4.85c.11,0,.26,0,.25.14s-.08.12-.17.15S7,5.3,6.9,5.26,6.92,5,7,5A.57.57,0,0,1,7.14,4.85Z"/><path class="cls-6" d="M6.35,5.44a.14.14,0,0,1,.12.25s-.12,0-.17.1-.12.17-.24.15a.09.09,0,0,1,0-.06.49.49,0,0,1,.2-.36A.29.29,0,0,1,6.35,5.44Z"/><path class="cls-5" d="M12.69,3.53c.15-.2.39-.33.52-.55a1.07,1.07,0,0,0,0-1.08A5.61,5.61,0,0,0,12.46,1a1.43,1.43,0,0,0-.53-.48c-.21-.08-.47-.06-.65-.2S11.1.08,11,0a.53.53,0,0,0-.28,0,2.79,2.79,0,0,0-2.3,2,1.53,1.53,0,0,0,0,.43c0,.48.53,2.11,1.66,2.25.32,0,.62.27.94.18.15-.05.29-.13.44-.17a2.66,2.66,0,0,1,.39-.07c.19,0,.8-.18.86-.41S12.57,4,12.56,4A.64.64,0,0,1,12.69,3.53Z"/><path class="cls-4" d="M12.78,2.72a.1.1,0,0,0-.08,0,.41.41,0,0,0,0,.09l0,.1a.36.36,0,0,0,0,.11.2.2,0,0,0,0,.11c0,.06.12,0,.16,0a.63.63,0,0,0,0-.23.56.56,0,0,0,0-.13S12.8,2.72,12.78,2.72Z"/><path class="cls-4" d="M12.68,2a1,1,0,0,0,0,.17.27.27,0,0,0,0,.12.07.07,0,0,0,.09.05c.07,0,.08-.06.07-.12s0-.07,0-.11l0-.05V2l0,0a0,0,0,0,0,0,0S12.68,2,12.68,2Z"/><path class="cls-4" d="M12.43,1.21a.11.11,0,0,0,0,.07.75.75,0,0,0,0,.16.59.59,0,0,1,0,.08.18.18,0,0,0,.07.05c.06,0,.09,0,.08-.1a.59.59,0,0,0-.08-.17C12.51,1.24,12.46,1.2,12.43,1.21Z"/><path class="cls-4" d="M11.89,2.2s0,0-.05,0a.33.33,0,0,0,0,.17.29.29,0,0,0,0,.09.11.11,0,0,0,.06.07c.06,0,.09,0,.09-.08a.47.47,0,0,0,0-.18C12,2.25,11.92,2.19,11.89,2.2Z"/><path class="cls-4" d="M12.08,1.61A.09.09,0,0,0,12,1.7a.6.6,0,0,0,0,.23c0,.06.06.17.13.2s.13,0,.13-.13S12.17,1.58,12.08,1.61Z"/><path class="cls-4" d="M12.34,2.4s-.05,0-.06.05a.32.32,0,0,0,0,.16c0,.05,0,.14,0,.17s.09,0,.11,0S12.4,2.41,12.34,2.4Z"/><path class="cls-3" d="M13.75,9.77A19.85,19.85,0,0,0,8.28,7.35c-2-.42-3.33-.27-4.13.26-.35.23-1.31.32-1.61,1.22a1.9,1.9,0,0,0,.48,2c.83.46,2.22-.56,5.26.17,3.28.8,3.33,1.16,4.46,1.84s1.87.09,2-.6A2.23,2.23,0,0,0,13.75,9.77Z"/><path class="cls-5" d="M13.82,9.51A20.07,20.07,0,0,0,8.26,7c-2-.43-3.39-.27-4.2.28-.36.24-1.34.34-1.65,1.27a2,2,0,0,0,.49,2.05c.85.48,2.18-.49,5.35.17s3.34,1.1,4.49,1.8,1.91.11,2.08-.6A2.18,2.18,0,0,0,13.82,9.51Z"/><path class="cls-4" d="M5.86,7.38a5.67,5.67,0,0,0-1.17.14A3.54,3.54,0,0,0,3.5,8a.63.63,0,0,0-.3.38.17.17,0,0,0,0,.1.19.19,0,0,0,.18.08,2.44,2.44,0,0,0,1-.38,3.59,3.59,0,0,1,1.91-.35c.11,0,.91.11.59-.16A1.7,1.7,0,0,0,5.86,7.38Z"/><path class="cls-4" d="M13.25,12.43a1.19,1.19,0,0,1-.35-.19c-.06,0-.12-.11-.09-.18s.12-.05.18,0a2.87,2.87,0,0,1,.62.22.14.14,0,0,1,.08.07C13.74,12.47,13.32,12.44,13.25,12.43Z"/><path class="cls-4" d="M12.38,11.94a.15.15,0,0,1-.14-.12,0,0,0,0,1,0,0s.06,0,.09,0,.1,0,.12.06S12.44,12,12.38,11.94Z"/></g></g></svg>