<svg xmlns="http://www.w3.org/2000/svg" viewBox="0 0 157.25 137.59"><defs><style>.cls-1{fill:#496089;}.cls-2{fill:#d4c2be;}.cls-3{fill:#e9674d;}.cls-4{fill:#f4e7d6;}.cls-5{fill:#371c15;}</style></defs><g id="Layer_2" data-name="Layer 2"><g id="Layer_1-2" data-name="Layer 1"><path class="cls-1" d="M95.62,124.76c-.49,3.58-.57,3.64-3.94,4.22-1.65.28-3.28.73-4.94,1-3.14.42-3.19.54-4.41-2.61-1.11.19-2.26.45-3.41.57-15.32,1.62-30.44,4.5-45.59,7.18-5.51,1-11.07,1.67-16.61,2.46-1.64.23-2.18-.16-2.53-2-.77-4.12-1.56-8.25-2.18-12.4Q8.68,100.81,5.46,78.46c-1.53-10.66-3-21.34-4.41-32-.36-2.63-.55-5.29-1-7.91s.64-4.32,3.1-5.44c9.73-4.43,19.7-8,30.35-9.44,12.28-1.72,24.58-3,37-3.59a5.61,5.61,0,0,0,2-.46c9.53-4.29,19.31-7.91,29.63-9.79,8-1.47,16.11-2.91,24.21-4a65.28,65.28,0,0,1,12-.19c4.29.22,4.29.25,5.11,4.57,1.5,7.9,2.64,15.87,4.16,23.77,4.21,21.95,6.1,44.23,9.32,66.31.11.76.23,1.53.31,2.29.19,1.79-.38,2.78-2.13,3.31-6,1.82-11.92,3.58-17.9,5.35-13.62,4-27.23,8.1-40.54,13.1Z"/><path class="cls-2" d="M84.65,112.73C86.91,109,90.44,107,94,105.09c1.86-1,3.75-1.9,5.6-2.9,9.44-5.1,19.69-7.08,30.25-7.83a71.55,71.55,0,0,1,19.65,1.19c2.39.49,2.63.78,2.79,3.16.06.76.1,1.53.14,2.3.08,2.06-.54,2.58-2.68,2.31-1.94-.25-3.89-.45-5.84-.68a48.8,48.8,0,0,0-14.81,1.06,113.5,113.5,0,0,0-22.59,7.1c-5.5,2.32-10.19,5.84-14.84,9.46a9.29,9.29,0,0,1-9,1.68c-5.48-1.73-11.12-2-16.82-2-12.3-.07-23.54,3.78-34.43,9-3.22,1.54-6.36,3.25-9.54,4.88-.31.16-.6.34-.92.5-2.12,1.06-2.89.6-3.07-1.83a17.36,17.36,0,0,0-.15-2.51,4.09,4.09,0,0,1,1.48-4.13,25.86,25.86,0,0,1,3.22-2.68A86.22,86.22,0,0,1,48.87,111a56.53,56.53,0,0,1,33.1,1c.53.18,1.07.33,1.61.47C83.84,112.63,84.13,112.65,84.65,112.73Z"/><path class="cls-3" d="M119.21,125.52c-.65,1.42-1.18,2.55-1.69,3.69a15.21,15.21,0,0,1-.63,1.55c-.3.51-.66,1.22-1.13,1.35-.87.22-1.07-.7-1.36-1.32a26.09,26.09,0,0,1-2.58-8.81,79.54,79.54,0,0,0-4.24-20.06,14,14,0,0,1-.59-3.48,1.6,1.6,0,0,1,1.45-1.77c1.91-.37,3.82-.84,5.76-1.1a2.66,2.66,0,0,1,3.09,1.61c2.45,5.6,4.6,11.28,4.87,17.48a38.91,38.91,0,0,0,2,11.1c.34,1,1.23,2.33.07,3.08-1.35.88-2-.84-2.86-1.46A28.33,28.33,0,0,1,119.21,125.52Z"/><path class="cls-4" d="M71.43,18.21A70.07,70.07,0,0,1,91.31,6c12.47-5.08,25.36-7.45,38.82-5,3.23.57,6.41,1.47,9.6,2.28,1,.24,1.59.73,1.23,2a4.74,4.74,0,0,0,.2,2.05c1.67,9,3.55,18,5,27,3.25,20.32,6.12,40.69,8.08,61.18.13,1.33.32,2.64.52,4.25-.81,0-1.54,0-2.26-.06-3.62-.34-7.24-.94-10.87-1-11.5-.27-22.75,1.07-33.5,5.57-4.26,1.78-8.68,3.25-12.5,5.9A92.72,92.72,0,0,0,88,116.06a3.26,3.26,0,0,1-3.4.92,49.78,49.78,0,0,0-13.88-2c-10.62-.12-21.19.35-31.19,4.37a109,109,0,0,0-21,11.07c-.74.5-1.52,1-2.56,1.6-.27-1.11-.57-1.95-.68-2.8-1-7.63-1.9-15.28-3-22.9q-4-28.47-8.19-56.93c-.65-4.5-1.36-9-2-13.49a14.83,14.83,0,0,1,0-2.31,6.19,6.19,0,0,1,2.31-4.72A55.84,55.84,0,0,1,30.81,15.64c8.54-1.83,17.18-2.79,25.85-1.25,4.53.81,8.94,2.26,13.41,3.43C70.48,17.92,70.87,18.05,71.43,18.21Z"/><path class="cls-2" d="M71.47,22c.25-.22.47-.59.72-.61a1,1,0,0,1,.81.45,5.16,5.16,0,0,1,.33,1.42C77.1,49.66,80.87,76,83.93,102.51q.45,4,.91,7.92c0,.42.1.83.14,1.25.06.61-.06,1.24-.75,1.25-.29,0-.7-.58-.84-1a7.47,7.47,0,0,1-.24-1.65c-1.59-13-3.06-26.12-4.79-39.15C76.3,55.62,74,40.12,71.84,24.6,71.73,23.77,71.61,23,71.47,22Z"/><path class="cls-5" d="M49.66,51c2,.09,2.26.29,2.37,2.31.2,3.84.41,7.68.57,11.52.07,1.72-.5,2.37-2.22,2.64-1.24.19-2.49.34-3.74.48-9.5,1-18.31,4.39-27.08,7.92-.39.15-.75.37-1.15.5-1.22.42-1.68.19-1.92-1.09s-.39-2.48-.5-3.74c-.24-2.64-.42-5.29-.65-7.94a3.41,3.41,0,0,1,2.27-3.93c5.08-2.16,10-4.65,15.31-6.32A56.87,56.87,0,0,1,49.66,51Zm.7,1.82a18.33,18.33,0,0,0-2.11-.16,55.76,55.76,0,0,0-13.88,2C28.9,56.2,23.81,58.69,18.63,61A2.37,2.37,0,0,0,17,63.75c.32,3.13.58,6.27.88,9.4a8.46,8.46,0,0,0,.26,1.18c5.53-1.91,10.81-4,16.26-5.54s11-2.34,16.63-3.5C50.81,61.23,50.6,57.11,50.36,52.77Z"/><path class="cls-5" d="M11.84,34a4.3,4.3,0,0,1,1-1.22c3.78-2.34,7.73-4.25,12.24-4.67a5.87,5.87,0,0,1,.84,0c1.85.09,2.32.45,2.53,2.35.49,4.45.87,8.91,1.38,13.35a1.52,1.52,0,0,1-1.32,1.95c-1.56.39-3.11.81-4.66,1.23a31.91,31.91,0,0,0-7.72,3.24c-1.46.85-2.3.49-2.53-1.15-.66-4.71-1.19-9.44-1.77-14.15A7.24,7.24,0,0,1,11.84,34Zm3.25,15c4.24-2.75,8.74-3.56,13.14-4.94-.5-4.82-1-9.45-1.45-13.94a5.79,5.79,0,0,0-.68-.26,3.87,3.87,0,0,0-.83-.06c-4.08.38-7.66,2.11-11.1,4.16a2,2,0,0,0-.6,1.6C14,39.83,14.53,44.12,15.09,49Z"/><path class="cls-5" d="M139.08,61.25c-10.26-1.46-20.22.08-30.05,3a173,173,0,0,0-20.17,7.12,11.86,11.86,0,0,1-2,.7.91.91,0,0,1-.82-.4,1,1,0,0,1,.25-.88,3.29,3.29,0,0,1,1.09-.6,153.66,153.66,0,0,1,32.78-10.21,66,66,0,0,1,20.9-.08,6.56,6.56,0,0,1,1.82.45,1.34,1.34,0,0,1,.5,1c0,.14-.54.49-.8.46C141.43,61.63,140.25,61.42,139.08,61.25Z"/><path class="cls-5" d="M126.9,12.73c-13.4-2-26,.66-38,6.62-3.12,1.55-6,3.5-9.06,5.28-.24.14-.46.43-.7.43a5.94,5.94,0,0,1-1.28-.26,3.53,3.53,0,0,1,.43-1.07,5.4,5.4,0,0,1,1.17-.87,71.72,71.72,0,0,1,37.74-12.52,66.55,66.55,0,0,1,15,1.52c.14,0,.33,0,.4.11.27.35.5.72.75,1.09a3.33,3.33,0,0,1-1.05.46,6.66,6.66,0,0,1-1.45-.2Z"/><path class="cls-5" d="M143.8,87.5a8.82,8.82,0,0,1,1.86.31c.43.17,1.07.61,1.08,1,0,.73-.68.71-1.26.66-1.68-.15-3.34-.38-5-.43-8.19-.25-16.16,1.2-24,3.27A82.69,82.69,0,0,0,94,101.49a2.82,2.82,0,0,1-.93.47c-.29,0-.85-.07-.89-.22a1.41,1.41,0,0,1,.17-1.09,4.74,4.74,0,0,1,1.2-.83A84.55,84.55,0,0,1,116,90.65a89.13,89.13,0,0,1,22.14-3.34c1.89,0,3.77.06,5.66.1Z"/><path class="cls-5" d="M68.52,74.19a8.2,8.2,0,0,1,1.66.17c.32.1.54.51.81.78-.28.24-.53.61-.85.7a4.52,4.52,0,0,1-1.47,0C56.53,74.85,44.83,77,33.42,81c-4,1.41-8,3.06-12,4.57-.72.27-1.72,1.1-2.22,0s.8-1.22,1.47-1.51c10.12-4.39,20.5-7.9,31.47-9.4,2.7-.36,5.43-.55,8.16-.64s5.45,0,8.18.07Z"/><path class="cls-5" d="M69.8,94.53c.7.14,1.83-.12,1.75,1s-1.14.74-1.86.7C58,95.52,46.54,97.37,35.3,100.42c-3.75,1-7.32,2.74-11,4.12-.72.28-1.68,1.1-2.14,0-.39-1,.81-1.14,1.44-1.44A86.06,86.06,0,0,1,51,95.55c4.51-.53,9-.89,13.56-1.21A51.38,51.38,0,0,1,69.8,94.53Z"/><path class="cls-5" d="M132,79.54a3.72,3.72,0,0,1-1.16.49c-1.26.09-2.52.12-3.78.11A56.63,56.63,0,0,0,106.11,84c-4.91,1.84-9.67,4.08-14.49,6.15a11.35,11.35,0,0,1-1.71.77c-.33.09-.74-.17-1.12-.27a7.53,7.53,0,0,1,.38-1.07c.09-.16.34-.23.53-.32,9.47-4.79,19.2-8.9,29.81-10.31,3.66-.49,7.4-.41,11.1-.56C131.23,78.38,131.91,78.44,132,79.54Z"/><path class="cls-5" d="M120.36,29.12l.91.75c-.3.32-.53.81-.9.93a11.26,11.26,0,0,1-1.86.22c-2.77.42-5.57.68-8.28,1.32a94.84,94.84,0,0,0-26.72,10.4c-.69.4-1.64,1.52-2.3.31-.53-1,.78-1.29,1.43-1.68,9.55-5.73,20-9.17,30.77-11.45C115.66,29.45,118,29.38,120.36,29.12Z"/><path class="cls-5" d="M139.57,41.27a4.2,4.2,0,0,1-.87.31,3.64,3.64,0,0,1-1-.06c-8.61-1.59-17.12-.67-25.62,1a70.82,70.82,0,0,0-11.23,3.38c-.74.27-1.88,1.21-2.29-.13-.33-1.07,1-1.1,1.72-1.4a75.9,75.9,0,0,1,27.23-5.27,98,98,0,0,1,10.23.79,2.87,2.87,0,0,1,1.2.34C139.14,40.33,139.24,40.72,139.57,41.27Z"/><path class="cls-5" d="M71.77,104.91a1.75,1.75,0,0,1,.62.1,10,10,0,0,1,.9.71c-.32.29-.63.82-1,.84a30.26,30.26,0,0,1-3.56-.07A74.81,74.81,0,0,0,45.92,109c-3.05.77-6.07,1.64-9.1,2.47-.2.05-.42.19-.6.16a7.42,7.42,0,0,1-1.11-.33c.2-.39.3-.9.61-1.13a4.82,4.82,0,0,1,1.56-.6c7.13-2,14.28-4,21.71-4.51,4.25-.3,8.52-.24,12.77-.34Z"/><path class="cls-5" d="M135.76,22.56c-1-.14-1.74-.23-2.47-.37-11-2-21.69-.56-32.13,3.25a6.58,6.58,0,0,1-1.38.46,1,1,0,0,1-.84-.37.92.92,0,0,1,.22-.88,7.72,7.72,0,0,1,1.67-.85,66.25,66.25,0,0,1,21.07-4.15,51,51,0,0,1,12.09,1C135.42,20.89,135.42,20.91,135.76,22.56Z"/><path class="cls-5" d="M143.44,72.86c-1.78-.38-3.54-.8-5.33-1.13-6.56-1.2-13.08-.57-19.59.44l-1.86.32c-.56.09-1.23.22-1.4-.51-.21-.9.61-.92,1.18-1.12a2.7,2.7,0,0,1,.41-.08c7.61-1.33,15.24-2,22.9-.46,1.37.29,2.72.66,4.07,1,.62.17,1.32.48,1,1.25-.13.32-.88.39-1.34.58Z"/><path class="cls-5" d="M49.65,86.58a11.13,11.13,0,0,1-1.63.73c-2.16.56-4.35,1-6.51,1.61a110.24,110.24,0,0,0-19,6.52c-.19.09-.4.27-.57.24a11.06,11.06,0,0,1-1.24-.38c.17-.35.25-.79.52-1a5.13,5.13,0,0,1,1.3-.66c8-3.65,16.44-5.86,25-7.87a3.45,3.45,0,0,1,1.43,0C49.13,85.74,49.29,86.14,49.65,86.58Z"/><path class="cls-5" d="M65,27.47c-.8-.12-1.61-.19-2.41-.36a53.49,53.49,0,0,0-20.41,0c-1.44.25-2.82.81-4.25,1.12-.45.1-1.29,0-1.42-.26-.38-.78.34-1.11.94-1.28a54.14,54.14,0,0,1,5.68-1.41,53.29,53.29,0,0,1,19.18.08,12.19,12.19,0,0,1,2.23.58c.34.14.54.62.8.94Z"/><path class="cls-5" d="M66,40.81c-.92.53-1.19.8-1.48.83a6.5,6.5,0,0,1-1.46-.07,75.72,75.72,0,0,0-24.2,1.52c-.67.15-1.69.83-2-.26s1-1.18,1.7-1.37a67.78,67.78,0,0,1,16.23-1.87c2.93,0,5.87.23,8.8.39a4.8,4.8,0,0,1,1.23.25A10.29,10.29,0,0,1,66,40.81Z"/><path class="cls-5" d="M91.79,59c-.2-.19-.48-.34-.55-.55a.84.84,0,0,1,.12-.75A5,5,0,0,1,92.61,57a101.05,101.05,0,0,1,22.6-6.06c.7-.1,1.75-.56,1.91.55s-1,1-1.68,1.08a100.25,100.25,0,0,0-22.38,6C92.67,58.76,92.27,58.86,91.79,59Z"/><path class="cls-5" d="M88.59,82c-.22-.23-.5-.39-.56-.61a.91.91,0,0,1,.17-.75,4.18,4.18,0,0,1,1-.67A107.09,107.09,0,0,1,107.84,73c.07,0,.14-.07.2-.05.49.12,1.27.11,1.42.41.31.62-.3.95-.86,1.15l-1,.31A100.91,100.91,0,0,0,90,81.42C89.57,81.63,89.1,81.77,88.59,82Z"/><path class="cls-5" d="M136.67,51.55l-11.3-.14a17.65,17.65,0,0,1-2.3,0c-.41,0-1-.39-1.1-.68-.13-.73.56-.82,1.12-.91l.21,0c5.73-.15,11.45-.32,17.1,1a3.06,3.06,0,0,1,1,.27,4,4,0,0,1,.72.89c-.38.22-.76.62-1.13.61a12.53,12.53,0,0,1-2.05-.39c-.75-.14-1.52-.23-2.28-.34Z"/><path class="cls-5" d="M54.76,85.79c-.19-.16-.63-.37-.63-.58a1.23,1.23,0,0,1,.5-.95,4.83,4.83,0,0,1,1.63-.33,74.21,74.21,0,0,1,13.82.27c.14,0,.28,0,.41,0,.53.15,1.26.22,1,1a1.41,1.41,0,0,1-1.13.62c-2-.07-4-.33-6.07-.34-2.93,0-5.87.09-8.8.16A6.55,6.55,0,0,0,54.76,85.79Z"/><path class="cls-5" d="M53,32.52c0,1.33-.71,1.37-1.52,1.41-2.3.12-4.6.2-6.88.45s-4.66.71-7.15,1.1a.72.72,0,0,1,0-1.25,3.75,3.75,0,0,1,1.69-.73q5.93-.69,11.84-1.25A8.5,8.5,0,0,1,53,32.52Z"/><path class="cls-5" d="M79.63,34.51c-.17-.52-.45-.94-.34-1.19a1.77,1.77,0,0,1,.89-.81c3.61-1.8,7.23-3.59,10.87-5.32.62-.29,1.6-.91,2,.14s-.79,1.1-1.42,1.4c-3.38,1.65-6.76,3.28-10.14,4.92Z"/><path class="cls-5" d="M82.56,54c0-.55-.21-1-.06-1.34a2.08,2.08,0,0,1,1-.74c3.09-1.49,6.19-3,9.29-4.41a6,6,0,0,1,.59-.22c.56-.18,1.24-.35,1.38.38.06.32-.46.95-.87,1.14-3.33,1.63-6.69,3.2-10.05,4.78C83.52,53.73,83.18,53.8,82.56,54Z"/><path class="cls-5" d="M63.9,55.56l-6.49-.09a10.61,10.61,0,0,1-1.87-.1,1,1,0,0,1-.62-.68c0-.25.34-.56.61-.73a1.63,1.63,0,0,1,.81-.14,40.81,40.81,0,0,1,9.81.57c.71.15,1.81.1,1.68,1.14s-1.18.56-1.86.51-1.38-.2-2.08-.3Z"/><path class="cls-5" d="M65.17,62.75,58.32,63a6.76,6.76,0,0,1-1.23.15,1,1,0,0,1-.71-.59,1,1,0,0,1,.43-.82,4.07,4.07,0,0,1,1.39-.41,24.56,24.56,0,0,1,8.92.34c.2,0,.47,0,.6.16a11.78,11.78,0,0,1,.85,1c-.38.2-.76.58-1.13.56A14.72,14.72,0,0,1,65.18,63Z"/><path class="cls-5" d="M134.21,30.75l-4.39-.25a9.65,9.65,0,0,1-1.86-.22,1.05,1.05,0,0,1-.5-.76c0-.17.27-.49.48-.58a2.36,2.36,0,0,1,1-.13c2.43.21,4.87.43,7.3.67a2.66,2.66,0,0,1,1.18.35,1,1,0,0,1,.39.85.94.94,0,0,1-.72.54c-1-.07-1.94-.26-2.91-.4Z"/><path class="cls-5" d="M140.41,80.55c-1.17-.17-2.35-.29-3.5-.55-.37-.09-.64-.57-.95-.88.37-.23.77-.7,1.1-.66,2.49.3,5,.68,7.43,1.11.29.05.49.56.74.85-.37.23-.75.67-1.1.65-1.25-.09-2.48-.33-3.72-.51Z"/><path class="cls-5" d="M61.24,31.93a20.84,20.84,0,0,1,2.86.72c.33.13.48.7.72,1.06-.36.15-.73.44-1.06.4-1.45-.16-2.89-.44-4.34-.62-.76-.1-1.55,0-2.29-.12-.39-.08-.71-.51-1.06-.78.34-.27.67-.77,1-.78C58.55,31.77,60,31.88,61.24,31.93Z"/><path class="cls-5" d="M31.93,113c-.24.21-.49.59-.83.72-2,.79-4,1.55-6.06,2.24-.34.11-.82-.21-1.24-.33.21-.37.33-1,.64-1.1q3.07-1.26,6.23-2.35C31.2,112,31.8,112,31.93,113Z"/><path class="cls-5" d="M88.85,60.13c-.06.1-.14.34-.29.42-1.37.69-2.74,1.38-4.14,2-.26.11-.71-.23-1.07-.36.15-.35.21-.87.48-1a38.41,38.41,0,0,1,3.94-1.88A.74.74,0,0,1,88.85,60.13Z"/></g></g></svg>