<?xml version="1.0" encoding="UTF-8"?><svg xmlns="http://www.w3.org/2000/svg" viewBox="0 0 255.1 182.14"><defs><style>.d{fill:#f7d3a3;}.e{fill:#e19752;}.f{fill:#ae6022;}.g{fill:#ae6425;}</style></defs><g id="a"/><g id="b"><g id="c"><path class="g" d="M231.29,117.26c-4.37,9.27-9.82,20.89-15.33,32.48-4.03,8.48-8.52,16.71-13.41,24.73-.93,1.53-1.78,3.11-2.73,4.63-1.71,2.73-4.23,3.89-7.84,2.39-10-4.15-20.07-8.14-30.01-12.43-10-4.32-19.97-8.75-29.78-13.49-9.81-4.74-19.42-9.89-29.09-14.92-4.77-2.48-9.57-4.94-14.18-7.7-10.12-6.06-19.33-13.23-26.55-22.72-7.04-9.26-10.33-19.66-9.69-31.32,.33-5.95,1.46-11.75,2.68-17.55,.41-1.95,.57-3.95,.82-5.93,.18-1.45-.34-2.44-1.71-3.16-4.07-2.12-8.38-3.55-12.8-4.64-5.35-1.32-10.75-2.45-16.09-3.81-4.48-1.14-8.84-2.68-12.96-4.83C5.88,35.46,1.77,29.93,.36,22.5c-1.08-5.68,.25-10.8,4.25-15.13C11.26,.17,19.92-1.77,29.56,1.62c6.22,2.19,11.52,5.85,16.68,9.8,5.09,3.9,10.03,8,15.6,11.23,1.72,1,3.54,1.9,5.41,2.56,1.87,.66,3.56-.27,4.94-1.45,2.25-1.92,4.49-3.89,6.51-6.04,3.38-3.6,7.1-6.68,11.43-9.1,7.55-4.23,15.67-5.93,24.25-5.87,12.11,.08,23.89,2.1,35.23,6.36,5.93,2.23,11.82,4.63,17.57,7.3,15.08,7,30.14,14.05,45.07,21.36,10.4,5.09,20.6,10.61,30.85,16.01,3.23,1.7,6.35,3.62,9.46,5.53,2.6,1.6,3.02,2.83,2.11,5.73-.56,1.77-1.21,3.52-1.94,5.23-6.42,15.04-12.92,30.04-21.43,46.96ZM20.54,26.5c1.11,.35,2.2,.82,3.34,1.04,2.31,.44,4.6-.61,5.73-2.47,1.08-1.78,.85-4.4-.64-6.2-2.42-2.92-5.6-4.2-9.35-3.86-3.31,.3-5.04,3.05-4.09,6.24,.77,2.61,2.78,4.01,5.01,5.25Z"/><g><g><path class="e" d="M193.07,120.73c-1.56-.18-3.21-.3-4.84-.58-1.47-.25-2.1-1.04-2.35-2.49-.34-1.93-.04-3.8,.61-5.61,.75-2.08,1.81-4.01,3.15-5.76,4.7-6.14,10.33-11.17,17.42-14.44,2.76-1.28,5.61-2.22,8.7-2.29,4.78-.11,8.76,1.57,11.77,5.3,2.11,2.62,3.58,5.56,4.02,8.95,.33,2.59-.52,4.73-2.55,6.38-1.88,1.53-3.99,2.67-6.21,3.6-6.98,2.94-14.21,4.95-21.73,5.93-2.63,.34-5.25,.66-7.99,1.01Z"/><path class="d" d="M195.23,120.91c-.41,0-.84-.03-1.24,.03-1.49,.23-2.63-.52-3.75-1.33-.72-.53-1.06-1.28-1.03-2.16,.08-2.27,.53-4.42,1.94-6.3,4.06-5.35,8.82-9.99,14.09-14.12,3.48-2.73,7.4-4.53,11.76-5.34,1.64-.3,3.29-.39,4.95-.12,2.25,.37,4.11,1.53,5.67,3.13,2.36,2.44,4.02,5.25,4.32,8.72,.19,2.13-.47,4-1.76,5.67-1.18,1.53-2.66,2.72-4.3,3.72-2.6,1.58-5.37,2.79-8.31,3.54-5.01,1.29-10.03,2.53-15.08,3.63-2.38,.52-4.83,.68-7.25,1v-.09Z"/></g><g><path class="e" d="M104.66,45.51c7.66,.07,16.13,.9,24.5,2.68,7.37,1.56,14.57,3.8,21.84,5.73,9.16,2.42,18.28,4.97,27.25,8.04,8.52,2.92,16.75,6.47,24.29,11.47,1.3,.87,2.6,1.81,3.68,2.92,2.85,2.92,2.7,6.89-.22,9.72-1.29,1.26-2.82,2.17-4.42,2.96-5.26,2.61-10.57,5.11-16.01,7.35-3.74,1.54-7.6,2.52-11.49,3.46-1.09,.26-2.33,.23-3.44,.02-9.77-1.79-19.54-3.54-29.27-5.53-12.52-2.56-25.02-5.26-37.25-9.05-4.7-1.46-9.38-3.01-13.97-4.75-4.84-1.83-9.15-4.62-13-8.1-1.6-1.45-3.02-3.06-4.18-4.9-1.73-2.76-1.95-5.62-.76-8.66,1.34-3.41,3.66-5.96,6.7-7.92,2.9-1.87,6.13-2.89,9.45-3.64,5.06-1.15,10.2-1.7,16.29-1.8Z"/><path class="d" d="M196.18,72.07c1.67,.25,3.4,.32,5,.79,3.81,1.11,6.29,3.71,7.43,7.49,.24,.8,.13,1.72,.07,2.58-.05,.7-.41,1.3-.91,1.84-2.21,2.39-4.72,4.42-7.53,6.04-5.86,3.37-11.95,6.24-18.47,8.09-1.94,.55-3.95,.94-5.95,1.17-2.17,.25-4.15-.61-5.97-1.73-.8-.49-1.55-1.12-2.22-1.78-1.94-1.92-2.31-4.26-1.42-6.75,.93-2.64,2.71-4.75,4.79-6.55,1.56-1.35,3.21-2.63,4.98-3.67,4.31-2.54,8.74-4.88,13.58-6.29,2.15-.63,4.34-1.07,6.62-1.23Z"/><path class="f" d="M158.32,56.47c-.21,.11-.41,.26-.63,.34-.59,.2-1.18,.39-1.78,.54-6.75,1.76-13.23,4.23-19.33,7.6-3.25,1.8-6.32,3.91-9.48,5.88-.42,.26-.82,.58-1.27,.77-.26,.11-.71,.12-.89-.04-.19-.16-.26-.62-.18-.88,.14-.46,.4-.91,.67-1.31,3.01-4.4,6.51-8.35,10.71-11.64,1.98-1.55,4.08-2.97,6.11-4.46,.92-.67,1.93-.88,3.05-.71,4.14,.63,8.2,1.53,12.08,3.15,.27,.11,.53,.28,.79,.43l.13,.34Z"/><path class="f" d="M169.63,59.04c.29,.04,.58,.03,.86,.11,3.49,1.02,7,1.99,10.34,3.46,.42,.18,.82,.39,1.22,.6,.35,.19,.67,.48,.45,.88-.13,.23-.49,.41-.77,.46-.78,.11-1.57,.1-2.34,.21-7.7,1.16-14.69,4.14-21.2,8.32-2.22,1.43-4.32,3.06-6.48,4.58-.47,.33-.94,.69-1.47,.91-.68,.29-1.18-.12-1.04-.84,.07-.39,.26-.79,.48-1.13,4.39-6.66,9.8-12.27,16.74-16.3,.99-.57,2.09-.95,3.13-1.42l.08,.14Z"/><path class="f" d="M131.84,49.39c-.3,.32-.47,.64-.73,.75-.53,.22-1.09,.37-1.66,.47-5.38,.96-10.46,2.8-15.18,5.54-3.4,1.97-6.71,4.08-10.06,6.13-.53,.32-1.06,.65-1.59,.96-.37,.21-.77,.38-1.14,.01-.37-.36-.2-.77-.03-1.15,.19-.41,.38-.83,.65-1.19,2.96-3.99,5.92-7.98,9.4-11.53,.83-.85,1.82-1.56,2.74-2.32,.74-.61,1.59-.88,2.54-.78,1.93,.2,3.87,.38,5.79,.67,2.21,.32,4.4,.73,6.6,1.14,.64,.12,1.28,.34,1.89,.59,.27,.11,.46,.41,.78,.72Z"/></g></g></g></g></svg>