<?xml version="1.0" encoding="UTF-8"?><svg xmlns="http://www.w3.org/2000/svg" viewBox="0 0 263.31 66.62"><defs><style>.d{fill:#e9674d;}.e{fill:#ffcf7a;}.f{fill:#19203a;}.g{fill:#496189;}</style></defs><g id="a"/><g id="b"><g id="c"><g><path class="d" d="M246.33,31.31c-.06,.65-.06,1.11-.15,1.56-.14,.68-.62,.99-1.28,.8-.52-.15-1.04-.36-1.51-.64-.79-.47-1.55-1-2.31-1.53-3.2-2.22-6.4-4.46-9.59-6.69-.28-.2-.57-.4-.8-.65-.33-.35-.3-.53,.06-.87,.19-.17,.41-.32,.62-.48,3.26-2.58,6.53-5.15,9.79-7.73,.07-.05,.13-.12,.2-.17,.72-.52,.96-.44,1.17,.41,1.06,4.17,2.14,8.33,3.16,12.5,.3,1.2,.45,2.44,.64,3.49Z"/><path class="e" d="M263.31,18.16c0,1.09-.41,1.48-1.26,1.24-.97-.27-1.93-.61-2.85-1.01-1.56-.68-3.08-1.43-4.62-2.17-2.39-1.15-4.79-2.28-7.16-3.46-1.28-.64-1.28-.93-.16-1.87,3.33-2.81,6.65-5.62,9.98-8.43,.04-.04,.09-.07,.13-.11,.64-.52,.86-.48,1.1,.28,1.5,4.6,2.98,9.21,4.45,13.82,.2,.63,.29,1.29,.38,1.73Z"/><path class="g" d="M93.29,46.85c.63,.12,1.53,.31,2.44,.48,3.46,.64,6.92,1.3,10.39,1.88,1.29,.22,1.45,.8,.89,1.77-2.19,3.77-4.31,7.59-6.79,11.18-.25,.35-.52,.7-.83,1-.67,.66-1.28,.61-1.79-.18-.3-.46-.54-.96-.77-1.45-1.47-3.09-2.48-6.34-3.41-9.62-.37-1.3-.68-2.63-1.02-3.94-.03-.11-.07-.22-.08-.34-.09-.62,.05-.78,.96-.77Z"/><path class="e" d="M72.6,42.68c.06,0,.15,0,.24,.02,3.95,.81,7.96,1.36,11.83,2.56,.19,.06,.39,.11,.57,.2,.44,.23,.5,.5,.23,.91-.06,.1-.15,.18-.22,.27-3.04,3.51-5.95,7.13-8.7,10.89-.25,.35-.54,.68-.86,.97-.45,.39-.86,.3-1.12-.23-.13-.25-.2-.54-.28-.82-1.08-4.11-1.75-8.29-2.14-12.52-.05-.55-.15-1.09-.18-1.63-.03-.49,.12-.6,.64-.6Z"/><path class="e" d="M140.28,51.63c1.87,.04,3.75,.07,5.62,.12,.91,.03,1.19,.41,.83,1.2-1.8,4.02-3.62,8.04-5.44,12.05-.18,.39-.39,.77-.64,1.13-.42,.6-.87,.65-1.33,.09-.36-.44-.67-.94-.96-1.44-1.34-2.36-2.36-4.87-3.24-7.44-.52-1.53-.98-3.07-1.5-4.6-.15-.44,0-.68,.36-.82,.23-.09,.5-.12,.76-.12,1.85-.04,3.69-.06,5.54-.09v-.09Z"/><path class="e" d="M208,39.82c-.16,4.47-.29,8.94-.84,13.39-.05,.43-.1,.87-.21,1.28-.18,.66-.62,.81-1.18,.42-.35-.24-.69-.53-.99-.84-1.32-1.41-2.68-2.79-3.92-4.27-1.35-1.62-2.58-3.33-3.86-5.01-.21-.27-.4-.56-.59-.85-.54-.84-.52-1.01,.4-1.42,2.4-1.06,4.81-2.09,7.22-3.13,.98-.42,1.96-.84,2.95-1.23,.83-.33,1.06-.17,1.05,.71,0,.32-.02,.63-.04,.95Z"/><path class="d" d="M187.84,46.07c-.17,1.12-.35,2.24-.52,3.35-.47,3.08-.92,6.16-1.4,9.24-.07,.48-.19,.97-.35,1.43-.32,.91-.93,1.09-1.64,.45-.51-.46-.98-.98-1.43-1.5-2.61-3.1-4.83-6.47-7.01-9.88-.06-.1-.12-.2-.17-.3-.27-.56-.19-.79,.42-.95,1.03-.26,2.08-.48,3.12-.72,2.7-.62,5.39-1.25,8.09-1.87,.63-.14,.92,.12,.89,.76Z"/><path class="g" d="M226.64,42.24c-.02,.53,.02,1.02-.05,1.5-.1,.66-.53,.87-1.13,.58-.39-.19-.77-.41-1.11-.66-3.54-2.6-6.99-5.31-10.13-8.4-.1-.1-.27-.19-.29-.31-.03-.2-.03-.45,.06-.61,.09-.16,.31-.24,.49-.34,2.98-1.77,5.95-3.54,8.94-5.3,1.17-.69,1.4-.55,1.57,.78,.43,3.23,.89,6.46,1.32,9.7,.14,1.03,.23,2.07,.34,3.07Z"/><path class="g" d="M166.57,49.83c.67,0,.87,.36,.63,1.07-.76,2.24-1.52,4.48-2.26,6.73-.62,1.89-1.2,3.79-1.82,5.69-.15,.46-.32,.93-.55,1.36-.38,.69-.85,.74-1.36,.15-.3-.35-.57-.73-.82-1.12-1.92-2.96-3.61-6.04-5.04-9.27-.28-.63-.6-1.25-.87-1.89-.33-.8-.08-1.19,.79-1.28,2.07-.21,4.14-.38,6.2-.63,1.49-.18,2.96-.48,4.44-.72,.23-.04,.46-.07,.66-.1Z"/><path class="g" d="M38.27,29.76c.17,.05,.42,.11,.66,.21,2.62,1.05,5.24,2.11,7.86,3.17,.77,.31,1.54,.65,2.32,.96,.72,.29,.78,.48,.26,1.02-1.15,1.18-2.27,2.38-3.46,3.52-1.91,1.84-3.86,3.64-5.8,5.46-.27,.26-.56,.51-.88,.7-.52,.32-.98,.16-1.17-.41-.13-.38-.19-.79-.22-1.19-.38-4.2-.44-8.42-.4-12.63,0-.61,.22-.82,.84-.81Z"/><path class="e" d="M21.87,22.44c.1,.04,.26,.1,.42,.17,1.66,.74,3.31,1.49,4.97,2.22,1.56,.69,3.12,1.36,4.68,2.04,.24,.1,.48,.21,.69,.35,.53,.34,.55,.67,.05,1.09-3.02,2.56-6.04,5.12-9.06,7.66-.42,.35-.86,.68-1.33,.97-.89,.55-1.41,.32-1.63-.68-.07-.31-.12-.63-.13-.94-.16-4.05,.1-8.08,.66-12.09,.09-.62,.24-.8,.68-.8Z"/><path class="d" d="M115.11,50.71c3.3,.29,6.61,.57,9.91,.86,.34,.03,.69,.08,1.03,.15,.7,.14,.91,.56,.61,1.19-1.29,2.61-2.59,5.22-3.88,7.83-.51,1.04-.97,2.09-1.5,3.12-.27,.52-.4,1.27-1.13,1.29-.8,.02-.92-.79-1.19-1.32-1.2-2.37-2.1-4.87-2.92-7.4-.53-1.65-1.01-3.31-1.5-4.97-.16-.53,.04-.78,.57-.75Z"/><path class="d" d="M54.98,43.27c-.03-1.73-.06-3.46-.08-5.19,0-.92,.35-1.22,1.24-.98,3.21,.84,6.41,1.69,9.44,3.07,.18,.08,.38,.15,.55,.26,.58,.35,.65,.86,.17,1.35-.73,.74-1.48,1.46-2.21,2.2-1.93,1.95-3.84,3.92-5.77,5.86-.47,.47-.96,.92-1.5,1.3-.58,.42-1.07,.25-1.24-.46-.18-.75-.3-1.53-.36-2.3-.14-1.7-.22-3.4-.32-5.1h.07Z"/><path class="d" d="M2.37,24.63c.19-1.46,.36-2.92,.59-4.37,.39-2.39,.82-4.77,1.23-7.16,0-.06,.01-.11,.02-.17,.14-.8,.38-.91,1.11-.51,.25,.14,.5,.29,.74,.44,2.84,1.82,5.67,3.65,8.51,5.47,.45,.29,.48,.51,.1,.87-.19,.18-.4,.33-.61,.48-2.31,1.62-4.62,3.25-6.95,4.86-.81,.56-1.65,1.06-2.49,1.57-.32,.19-.67,.35-1.03,.44-.67,.18-1.06-.1-1.13-.79-.04-.37-.02-.75-.02-1.12h-.08Z"/><path class="f" d="M142.76,52.66c-4.86,.15-9.71,.15-14.55-.23-4.03-.31-8.06-.64-12.08-1.1-3.5-.4-6.98-.96-10.45-1.52-5.93-.97-11.85-1.97-17.76-3-11.68-2.03-22.98-5.42-33.96-9.86-7.55-3.05-15.01-6.32-22.52-9.46-6.37-2.67-12.59-5.65-18.54-9.19C8.74,15.84,4.75,13.15,1.11,9.96c-.26-.23-.56-.42-.81-.65C0,9.02-.1,8.67,.11,8.28c.21-.38,.57-.54,.95-.41,.37,.12,.72,.35,1.03,.6,1.61,1.27,3.16,2.62,4.82,3.82,5.71,4.12,11.81,7.6,18.23,10.46,11.42,5.09,22.85,10.14,34.58,14.51,9.83,3.66,19.91,6.36,30.24,8.11,7.97,1.36,15.95,2.64,23.94,3.89,4.8,.75,9.64,1.1,14.48,1.42,6.18,.41,12.36,.27,18.54-.03,8.96-.43,17.83-1.59,26.61-3.42,7.16-1.48,14.25-3.24,21.2-5.51,8-2.62,15.48-6.34,22.63-10.78,8.7-5.4,16.99-11.37,25.04-17.7,4.68-3.68,9.31-7.41,13.7-11.44,.55-.51,1.14-.98,1.73-1.44,.22-.17,.5-.3,.77-.35,.37-.07,.67,.09,.86,.44,.17,.32,.12,.61-.07,.9-.06,.09-.15,.18-.23,.25-4.49,3.77-8.91,7.62-13.48,11.3-7.04,5.68-14.29,11.09-21.87,16.03-5.49,3.58-11.07,7.03-17.01,9.84-6.44,3.05-13.15,5.34-20.04,7.14-5.93,1.55-11.88,2.95-17.91,4.03-5.18,.93-10.38,1.67-15.63,2.05-3.49,.25-6.98,.44-10.46,.66Z"/></g></g></g></svg>