<?xml version="1.0" encoding="UTF-8"?><svg xmlns="http://www.w3.org/2000/svg" viewBox="0 0 78.78 100.88"><defs><style>.d{fill:#ebbb8a;}.e{fill:#f4e7d6;}.f{fill:#e9674d;}.g{fill:#ffcf7a;}.h{fill:#fcb452;}</style></defs><g id="a"/><g id="b"><g id="c"><g><g><g><path class="d" d="M.8,71.1c-.04-9.59-.06-16.33-.12-23.07,0-.67,.12-1.15,.67-1.57,6.69-5.07,12.9-10.77,20.09-15.15,2.87-1.75,5.9-3.24,8.85-4.85,.97-.53,1.76-.4,2.71,.26,6.77,4.68,13.62,9.24,20.38,13.92,3.9,2.7,7.68,5.58,11.54,8.36,2.55,1.84,5.2,3.55,7.69,5.47,1.56,1.21,2.91,2.7,4.36,4.05,.78,.73,1.04,1.6,1.05,2.67,.07,6.85,.16,13.7,.3,20.55,.11,5.47,.29,10.93,.44,16.4,.01,.39,.02,.77,0,1.16-.05,1.19-.44,1.65-1.61,1.59-1.49-.07-2.97-.24-4.45-.46-6.99-1.03-13.96-2.14-20.96-3.12-5.96-.83-11.93-1.5-17.9-2.29-5.42-.72-10.82-1.51-16.23-2.27-4.54-.64-9.07-1.27-13.61-1.91-.44-.06-.86-.18-1.29-.29-.92-.23-1.34-.75-1.36-1.76-.19-6.85-.43-13.69-.57-17.68Z"/><path class="f" d="M0,47.57c.53-.81,.77-1.36,1.17-1.75,4.09-3.94,8.02-8.06,12.97-11,2.46-1.46,4.77-3.18,7.16-4.77,2.63-1.76,5.46-3.08,8.44-4.14,1.59-.57,2.99-.49,4.38,.48,3.39,2.37,6.79,4.73,10.22,7.05,3.06,2.07,6.13,4.13,9.24,6.13,6.56,4.21,12.83,8.81,18.67,13.97,1.85,1.64,3.5,3.52,5.17,5.36,1.17,1.28,.93,2.14-.74,2.61-.82,.23-1.77,.32-2.6,.15-7.78-1.56-15.56-3.11-23.31-4.81-4.09-.9-8.1-2.15-12.18-3.08-2.09-.47-4.25-.7-6.39-.79-3.73-.16-7.27-1.26-10.9-1.9-6.19-1.08-12.41-2.01-18.61-3.01-.75-.12-1.49-.27-2.69-.49Z"/><path class="f" d="M.37,67.14c-.02-1.44-.11-2.87-.06-4.31,.05-1.35,.27-1.5,1.59-1.52,3.79-.07,7.47,.39,11.06,1.71,4.33,1.59,8.8,2.46,13.46,2.28,3.01-.12,5.93,.53,8.76,1.55,3.66,1.32,7.4,2.16,11.33,2.06,3.5-.08,6.93,.49,10.25,1.64,3.88,1.35,7.87,2.03,11.98,2.33,2.95,.21,5.87,1,8.8,1.52,.64,.12,.97,.52,.99,1.14,.06,3.14,.14,6.29,.12,9.43,0,.92-.5,1.23-1.64,1.12-1.54-.15-3.07-.38-4.59-.64-3.91-.67-7.82-1.38-11.74-2.04-.81-.14-1.65-.17-2.47-.12-3.65,.24-7.13-.46-10.54-1.71-1.86-.68-3.75-1.35-5.68-1.77-1.98-.43-4.03-.75-6.06-.77-3.84-.03-7.6-.45-11.28-1.55-3.95-1.18-7.98-1.62-12.1-1.54-3.51,.08-6.91-.56-10.21-1.81-1.1-.42-1.78-1-1.8-2.22-.03-1.6-.05-3.2-.08-4.8h-.08Z"/></g><g><path class="e" d="M16.19,44.09c-.13,.35-.54,.65-.87,.75-.58,.17-.93-.28-.98-.82-.05-.56,.27-.97,.84-1.02,.43-.04,.91,.31,1.03,.73,.03,.12,.02,.24-.02,.36Z"/><path class="e" d="M23.01,44.86c.05,0,.11,0,.17,0,.26,.07,.63,.6,.69,.86,.12,.53-.15,1.06-.75,1-.32-.03-.84-.45-.86-.72-.02-.25,.14-.49,.26-.7,.1-.18,.27-.42,.5-.46Z"/><path class="e" d="M21.46,39.82c.2-.03,.33,.11,.46,.33,.17,.31,.38,.56,.19,.9-.12,.22-.43,.53-.7,.53-.27,0-.73-.48-.77-.79-.04-.29,.35-.71,.57-.86,.09-.06,.17-.1,.25-.11Z"/></g></g><g><path class="g" d="M46.99,26.24c.06,3.26,.15,6.51,.15,9.77,0,1.87-.16,3.75-.21,5.62-.02,.9-.41,1.42-1.28,1.67-1.57,.43-3.12,.7-4.72,.17-1.11-.37-1.79-1.05-1.84-2.26-.04-1.16-.13-2.32-.1-3.47,.15-7.23,.32-14.46,.48-21.69,0-.11,0-.22,.01-.33,.15-1.11-.26-2.52,.96-3.15,1.75-.9,3.65-1.28,5.58-.44,.95,.41,1.14,1.26,1.14,2.2-.01,3.09-.02,6.18-.04,9.27,0,.88-.06,1.77-.09,2.65h-.07Z"/><path class="h" d="M43.92,13.24c-2.01,.03-3.3-1.75-2.71-3.84,.18-.63,.5-1.22,.8-1.8,1.01-1.98,1.61-4.08,1.9-6.28,.04-.27,0-.59,.13-.8,.15-.24,.44-.45,.71-.51,.13-.03,.41,.31,.49,.53,.09,.24,.06,.54,.06,.81-.02,2,.38,3.92,1.02,5.81,.28,.83,.53,1.69,.65,2.55,.29,2.13-.93,3.5-3.05,3.53Z"/></g></g></g></g></svg>