<?xml version="1.0" encoding="UTF-8"?><svg xmlns="http://www.w3.org/2000/svg" viewBox="0 0 99.14 84.89"><defs><style>.d{fill:#f4e7d7;}.e{fill:#fcb452;}.f{fill:#e19752;}</style></defs><g id="a"/><g id="b"><g id="c"><g><path class="d" d="M.9,37.74c.04-5.67,.2-11.35,.06-17.02-.08-3.5,1.64-5.51,4.54-6.95,5.03-2.5,10.25-4.51,15.64-6.03C32.5,4.56,43.97,1.85,55.65,.11c2.04-.3,3.77-.03,5.48,1.14,5.57,3.8,10.75,8.05,15.46,12.87,1.09,1.12,2.27,2.16,3.41,3.24,6.41,6.06,12.5,12.41,18.19,19.15,.67,.8,.99,1.56,.94,2.61-.36,7.01-.63,14.02-1.02,21.02-.39,7.15-.87,14.3-1.35,21.45-.17,2.64-1.06,3.48-3.72,3.26-1.92-.16-3.87-.48-5.7-1.06-11.4-3.59-23.1-5.99-34.66-8.91-11.06-2.79-22.19-5.31-33.27-8-3.11-.75-6.21-1.6-9.27-2.55-1.7-.53-3.36-1.26-4.93-2.1-2.85-1.53-4.4-3.96-4.39-7.26,.01-5.75,.04-11.5,.06-17.25h.03Z"/><path class="e" d="M0,38.28c.2-6.25,.39-12.81,.61-19.37,.07-2.15,.95-3.13,3.07-2.89,2.65,.29,5.29,.87,7.89,1.5,13.76,3.36,27.49,6.82,41.26,10.16,11.81,2.86,23.65,5.61,35.47,8.41,2.47,.58,4.93,1.17,7.39,1.76,.58,.14,1.15,.32,1.72,.5,1,.32,1.38,.96,1.27,2.04-.89,8.7-.92,17.43-.9,26.16,0,4.47-.15,8.96-.5,13.42-.34,4.36-1.72,5.29-6.02,4.56-1.61-.28-3.21-.66-4.79-1.12-14.34-4.11-28.86-7.48-43.43-10.68-8.95-1.97-17.94-3.79-26.88-5.82-2.97-.68-5.84-1.77-8.73-2.78-4.21-1.47-6.32-4.62-6.59-8.96-.35-5.51-.56-11.03-.84-16.88Z"/><g><path class="f" d="M24.2,44.45c-2.47-.03-4.77-.6-6.81-1.97-2.29-1.54-4.54-3.15-6.79-4.75-4.64-3.28-2.57-7.92,1.01-9.61,3.32-1.57,6.74-1.89,10.26-1.05,4.82,1.15,8.81,3.59,11.55,7.84,1.29,2,1.14,4.32-.45,6.21-1.21,1.43-2.81,2.23-4.57,2.65-1.37,.33-2.79,.46-4.19,.67Z"/><path class="f" d="M33.8,52.81c3.17,.54,6.75,1.18,9.76,3.48,1.49,1.14,1.9,2.46,1.37,4.11-.53,1.64-1.93,2.76-3.61,2.87-.29,.02-.62,.05-.89-.04-3.2-1.16-6.45-2.21-9.58-3.55-1.67-.72-2.22-2.52-1.72-4.16,.48-1.58,2.18-2.67,4.66-2.69Z"/><path class="f" d="M54.55,52.19c-1.94-.51-3.9-.94-5.8-1.55-1.18-.38-2.09-1.21-2.13-2.59-.04-1.1,.95-2.38,2.31-2.72,.97-.24,2.12-.35,3.05-.07,1.54,.47,3.06,1.16,4.43,2.01,1.33,.83,1.69,2.18,1.2,3.27-.59,1.29-1.73,1.51-3.05,1.64Z"/></g></g></g></g></svg>