<?xml version="1.0" encoding="UTF-8"?><svg xmlns="http://www.w3.org/2000/svg" viewBox="0 0 80.66 50.19"><defs><style>.d{fill:#f4e7d6;}.e{fill:#e19752;}.f{fill:#ae6324;}</style></defs><g id="a"/><g id="b"><g id="c"><g><g><path class="e" d="M52.29,50.18c-12.86,.15-25.15-2.34-36.77-7.92-3.2-1.54-6.24-3.34-8.91-5.68C2.65,33.1,.13,28.84,0,23.42c-.08-3.47,1.18-6.52,3.07-9.34,2.24-3.35,5.33-5.74,8.83-7.64C17.12,3.61,22.73,2.03,28.52,.96c13.77-2.56,26.72,.23,39.32,5.74,3.98,1.74,6.86,4.54,8.94,8.23,2.84,5.05,4.29,10.51,3.78,16.31-.62,7.07-4.42,12.14-10.61,15.44-4.32,2.3-9.04,3.1-13.86,3.43-1.26,.09-2.53,.05-3.8,.07Z"/><path class="f" d="M48.02,22.52c-1.24-.57-2.13-.98-3.02-1.37-.37-.16-.77-.22-1.14-.37-.69-.28-1.13-.77-.92-1.55,.2-.77,.83-.98,1.56-.96,.13,0,.28-.02,.4,.04,1.62,.74,3.4,1.28,4.82,2.3,1.81,1.3,1.45,3.52-.57,4.5-.76,.37-1.63,.64-2.48,.71-4.05,.37-8.01-.13-11.73-1.78-1.37-.61-2.71-1.49-3.79-2.53-2.12-2.03-1.93-4.83,.44-6.55,1.21-.88,2.64-1.62,4.09-2.01,9.34-2.48,17.96-.84,25.73,4.93,2.11,1.57,3.82,3.52,4.78,6.04,1.34,3.53,.38,6.46-2.85,8.41-3.16,1.9-6.7,2.62-10.29,2.97-10,.97-19.68-.49-28.96-4.33-2.07-.86-4.07-2.02-5.88-3.34-1.42-1.04-2.72-2.4-3.69-3.87-2-3.02-1.86-6.16,.17-9.18,1.29-1.91,3.01-3.37,4.89-4.67,4.57-3.15,9.71-4.99,15.06-6.21,9.56-2.18,19.16-2.26,28.75-.09,.65,.15,1.3,.32,1.9,.59,.66,.3,1.06,.86,.84,1.62-.26,.87-.93,1.05-1.75,.87-1.82-.39-3.63-.84-5.47-1.14-10.62-1.73-21.01-.78-31.04,3.12-2.64,1.03-5.1,2.58-7.52,4.08-1.16,.72-2.15,1.8-3.04,2.87-1.94,2.35-2.04,4.95-.06,7.29,1.22,1.45,2.74,2.74,4.35,3.75,4.11,2.58,8.75,3.88,13.46,4.89,5.97,1.27,12.01,1.83,18.08,.97,2.42-.34,4.8-1.03,7.16-1.73,.93-.27,1.8-.88,2.56-1.5,1.11-.92,1.65-2.19,1.03-3.57-.62-1.38-1.3-2.79-2.27-3.93-2.44-2.87-5.73-4.54-9.23-5.74-5.31-1.82-10.69-2.1-16.1-.45-.94,.29-1.88,.71-2.71,1.24-1.41,.91-1.47,1.94-.2,3.07,.64,.57,1.39,1.05,2.16,1.41,3.66,1.71,7.52,2.16,11.51,1.68,.18-.02,.34-.17,.98-.5Z"/></g><g><path class="d" d="M50.64,12.89c-2.12-.07-3.15-.71-3.24-1.75-.1-1.03,.52-1.76,2.16-2.21,.87-.24,1.83-.31,2.72-.2,.82,.1,1.43,.74,1.53,1.63,.1,.89-.37,1.59-1.14,1.93-.78,.34-1.64,.48-2.03,.59Z"/><path class="d" d="M46.18,39.69c-.82-.12-1.37-.12-1.86-.28-1.43-.48-1.73-1.88-.67-2.96,1.26-1.28,2.95-1.68,4.35-1.05,1.53,.69,1.8,2.3,.44,3.29-.71,.52-1.65,.74-2.27,1Z"/><path class="d" d="M69.17,27.16c.68,.15,1.24,.11,1.56,.37,.53,.42,1.18,.97,1.29,1.56,.09,.48-.41,1.24-.85,1.63-1.11,.99-3.48,.93-4.65,.02-.98-.76-1.01-2,.08-2.63,.83-.48,1.83-.68,2.58-.94Z"/><path class="d" d="M53.75,30.16c-.69-.21-1.37-.31-1.93-.62-.78-.43-.93-1.27-.49-2.06,.61-1.11,2.46-2.02,3.73-1.84,.92,.13,1.67,.53,1.9,1.49,.24,.96-.21,1.73-1.01,2.18-.67,.38-1.46,.57-2.2,.85Z"/><path class="d" d="M24.04,22.17c-1.55,.01-2.75-.88-2.71-2.03,.04-1.14,1.46-2.28,2.84-2.29,1.47,0,2.65,.93,2.66,2.11,.01,1.25-1.18,2.2-2.8,2.21Z"/><path class="d" d="M17.38,33.11c-.7-.2-1.53-.29-2.21-.66-1.25-.67-1.29-2.09-.19-2.96,1.26-.99,3.53-.72,4.52,.54,.67,.85,.46,2.05-.51,2.57-.46,.24-1.01,.32-1.62,.51Z"/><path class="d" d="M31.39,27.67c.67,.06,1.01,.06,1.32,.13,.9,.22,1.64,.7,1.69,1.68,.04,.97-.58,1.68-1.51,1.8-1.08,.14-2.26,.24-3.28-.05-1.35-.38-1.49-2-.29-2.75,.7-.44,1.56-.62,2.07-.81Z"/><path class="d" d="M68.47,18.7c-1.51-.01-2.68-.73-2.8-1.71-.13-1.05,.98-2,2.61-2.2,.33-.04,.67-.05,.99,0,1.2,.16,1.96,.88,2.01,1.84,.05,1.05-.73,1.85-2.01,2.05-.26,.04-.53,.01-.79,.02Z"/></g></g></g></g></svg>