<svg xmlns="http://www.w3.org/2000/svg" version="1.1" xmlns:xlink="http://www.w3.org/1999/xlink" xmlns:svgjs="http://svgjs.com/svgjs" width="320" height="320"><svg id="SvgjsSvg1000" xmlns="http://www.w3.org/2000/svg" viewBox="0 0 320 320"><defs><style>.b{fill:#82450f;}.c{fill:#ae6425;}.d{fill:#e09251;}</style></defs><path class="b" d="M241.2,98.46c-1.22-1.25-2.26-2.06-2.97-3.1-1.21-1.76-2.31-3.61-3.3-5.51-4.52-8.67-9.95-16.71-16.39-24.07-2.82-3.23-5.67-6.43-8.44-9.7-3.16-3.72-7.08-5.86-11.99-6.22-2.93-.22-5.85-.77-8.78-.94-9.54-.55-19.08-.9-28.62,.08-1.15,.12-2.32,.1-3.48,.15-10.26,.43-20.53,.58-30.76,1.4-6.74,.54-13.4,2.04-20.09,3.12-1.68,.27-2.97,1.17-3.86,2.63-1.16,1.91-2.39,3.78-3.43,5.75-4.9,9.22-9.72,18.48-14.62,27.69-1.8,3.39-3.76,6.69-5.6,10.06-.52,.95-1.17,1.45-2.26,1.61-3.51,.5-6.95,.23-10.36-.65-2.03-.53-2.27-1.35-1.48-3.32,2.71-6.79,5.29-13.64,8.04-20.42,4.6-11.38,10.76-21.94,17.25-32.31,1.74-2.78,4.18-4.58,7.28-5.57,5.72-1.82,11.57-3.15,17.52-3.67,10.4-.91,20.82-1.63,31.25-2.17,9.45-.48,18.91-.85,28.37-.83,9.28,.01,18.57,.35,27.76,1.86,1.67,.27,3.33,.64,4.99,.99,4.4,.94,8.14,3.09,11.31,6.26,4.7,4.7,8.63,10.01,12.14,15.62,7.87,12.59,14.69,25.72,20.08,39.57,.32,.83,.79,1.66,.85,2.52,.05,.69-.25,1.61-.73,2.07-.33,.31-1.26,.04-1.9-.05-.75-.11-1.49-.39-2.24-.46-.88-.09-1.78-.01-2.67-.05-2.6-.09-2.7-.2-2.87-2.34Z"></path><path class="c" d="M164.26,89.76c30.98-.31,61.96-.6,92.94-.96,13.3-.16,26.6-.53,39.9-.71,3.66-.05,7.32,.12,10.97,.39,1.47,.11,2.96,.61,4.33,1.18,1.24,.52,1.28,1.88,1.35,3.02,.23,3.65,.46,7.31,.53,10.97,.18,9.03-.48,18.03-1.53,26.99-1.6,13.65-3.52,27.26-6.7,40.65-4.67,19.68-11.44,38.64-19.88,57.02-5.7,12.41-11.81,24.6-18.92,36.3-2.1,3.45-4.46,6.62-6.99,9.73-4.25,5.23-9.69,7.81-16.32,8.63-16.86,2.08-33.78,2.85-50.74,3.33-17.69,.5-35.36,.05-53.02-.76-16.32-.75-32.62-1.94-48.82-4.11-8.31-1.11-16.57-2.55-24.86-3.78-4.33-.64-7.49-2.91-10.12-6.34-3.7-4.81-7.8-9.31-11.48-14.13-9.31-12.23-16.2-25.82-21.88-40.05-6.08-15.26-9.8-31.1-11.96-47.36-1.54-11.62-2.41-23.28-1.95-34.98,.44-11.24,1.43-22.44,3.6-33.5,.31-1.57,.74-3.13,.98-4.71,.68-4.6,2.3-6.21,6.99-6.44,4.19-.2,8.39-.29,12.58-.26,19.28,.13,38.57,.47,57.85,.44,24.38-.04,48.75-.36,73.12-.56Z"></path><path class="d" d="M140.02,116.35c5.89-6.09,11.53-11.92,17.36-17.95-2.92-2.63-6.06-5.46-9.2-8.3,.04-.16,.09-.33,.13-.49,2.26-.03,4.53-.16,6.79-.03,.69,.04,1.41,.67,2.01,1.16,1.49,1.24,2.93,2.56,4.47,3.92,1.49-1.47,2.86-2.73,4.11-4.1,.79-.87,1.66-1.24,2.82-1.2,1.69,.06,3.37,.01,5.68,.01-2.69,3.4-5.61,5.96-8.31,9.13,7.25,6.03,14.44,11.99,21.84,18.15,6.02-5.4,11.96-10.72,18.03-16.16-3.9-3.77-7.66-7.4-11.41-11.03,.06-.18,.12-.37,.18-.55,2.19,0,4.39-.1,6.57,.06,.68,.05,1.37,.74,1.94,1.26,2.28,2.11,4.52,4.27,6.97,6.59,1.92-1.68,3.89-3.1,5.47-4.87,2.54-2.85,5.55-3.96,9.27-3.39,.66,.1,1.35,.01,2.02,.01l.24,.59c-4.23,3.76-8.46,7.51-12.94,11.5,7.65,7.48,15.48,14.58,23.59,21.75,5.49-5.11,10.89-10.14,16.46-15.33-6.9-6.09-13.61-12.02-20.32-17.95,.06-.19,.12-.39,.18-.58,2.28,0,4.56-.11,6.82,.06,.77,.06,1.57,.77,2.22,1.33,4.11,3.57,8.18,7.19,12.27,10.79,.87,.76,1.74,1.52,2.67,2.32,.37-.19,.73-.29,.97-.51,4.2-3.87,8.39-7.76,12.57-11.66,.76-.71,1.86-1.32,.69-2.69h8.99c.37,.89,.47,1.84,1,2.32,6.3,5.81,12.66,11.54,19.26,17.53,4.46-4.07,8.75-7.99,13.04-11.9,.17,.08,.34,.16,.52,.24,0,2.02,.11,4.04-.06,6.04-.06,.67-.71,1.39-1.26,1.91-2.46,2.32-4.98,4.58-7.78,7.13,2.05,1.58,3.85,3.17,5.84,4.44,1.89,1.2,2.7,2.65,2.24,4.86-.2,.93-.2,1.91-.35,3.37-4.29-2.87-7.92-5.94-11.89-8.85-4.52,4.18-8.96,8.3-13.63,12.63,6.57,4.94,12.97,9.76,19.5,14.67,1.49-1.31,2.85-2.52,4.21-3.73,.16,.07,.32,.14,.49,.21-.48,3.99-.97,7.97-1.48,12.2-1.01-.51-1.7-.86-2.64-1.34-5.57,5.35-11.21,10.76-17.09,16.41,4.91,3.75,9.63,7.35,14.59,11.13-.42,1.71-.86,3.48-1.42,5.75-5.92-4.45-11.52-8.65-17.34-13.03-4.77,4.45-9.51,8.86-14.56,13.57,7.92,5.74,15.63,11.32,23.31,16.88,1.08-.88,1.88-1.53,2.67-2.18,.14,.08,.27,.16,.41,.23-1.11,3.26-2.16,6.54-3.36,9.77-.26,.7-1.01,1.23-1.59,1.78-4.02,3.81-8.05,7.61-12.07,11.41-.7,.66-1.4,1.33-2.27,2.17,2.56,1.81,4.95,3.5,7.53,5.32-.71,1.59-1.39,3.1-2.24,5.01-3.22-2.17-6.28-4.23-9.49-6.4-5.77,5.4-11.49,10.74-17.43,16.3,5.32,3.99,10.42,7.83,15.62,11.73-.97,1.66-1.82,3.09-2.8,4.76-5.68-4.24-11.17-8.34-16.88-12.6-5.53,5.06-11.01,10.09-16.58,15.19,7.05,5.1,13.88,10.04,20.77,15.03-1.47,1.82-3.4,2.09-5.17,2.5-.59,.14-1.45-.53-2.07-.98-5.07-3.65-10.12-7.33-15.18-11-.86-.62-1.72-1.25-2.71-1.97-6.22,5.5-12.36,10.92-18.6,16.43,.94,.85,1.77,1.58,3.02,2.7h-14.28c.67-.75,1.29-1.42,2-2.21-7.3-5.37-14.55-10.71-22.01-16.2-5.3,5.02-10.58,10.03-15.97,15.15,1.74,1.34,3.27,2.52,5.3,4.08-6.04,.76-11.53,.4-17.25,.47,.44-1.91,2.3-2.41,3.05-4.08-6.26-4.71-12.57-9.45-19.01-14.3-5.75,5.21-11.4,10.33-17.54,15.88-2.4-.21-5.5-.41-8.58-.8-.82-.1-1.61-.73-2.32-1.24-5.48-4-10.94-8.03-16.41-12.04-.71-.52-1.43-1.02-2.24-1.59-3.38,3.06-6.8,5.93-9.94,9.07-1.67,1.67-3.37,2.09-5.52,1.59-1.04-.25-2.1-.39-3.49-.65,1.28-1.88,3.07-3.02,4.56-4.42,1.63-1.52,3.32-2.98,4.97-4.48,1.58-1.44,3.14-2.9,4.78-4.42-9.08-7.12-18.04-14.13-27.1-21.23-5.09,4.49-10.16,8.96-15.42,13.6-1.13-1.59-2.09-2.94-3.19-4.49,4.72-4.2,9.37-8.34,14.3-12.72-6.58-5.53-13.02-10.95-19.68-16.55-2.58,2.4-5.09,4.74-7.88,7.33-.76-1.92-1.41-3.55-2.16-5.43,1.86-1.69,3.76-3.41,5.92-5.38-1.53-1.31-2.72-2.33-3.9-3.36-.94-.82-1.78-1.81-2.84-2.44-4.74-2.83-5.84-7.58-6.77-12.45-.03-.16,0-.35,.04-.51,.01-.06,.11-.11,.27-.26,5.57,4.94,11.15,9.9,16.98,15.07,6.06-5.77,11.97-11.41,18.08-17.23-8.17-7.38-16.23-14.65-24.54-22.16-4.62,4.24-8.84,8.91-13.4,13.19-.27-.25-.46-.33-.5-.46q-1.58-5.16,2.21-8.98c2.33-2.34,4.66-4.68,6.99-7.03,.12-.12,.18-.3,.37-.63-.41-.46-.84-.99-1.33-1.46-4.26-4.07-8.52-8.15-12.82-12.18-.9-.84-1.44-1.72-1.48-2.99-.08-2.94-.22-5.89-.43-8.82-.11-1.55,.39-2.68,1.53-3.75,3.12-2.94,6.14-5.98,9.19-8.99,.62-.62,1.21-1.27,1.97-2.08-1.88-1.71-3.64-3.33-5.41-4.93-1.12-1.02-2.26-2.03-3.38-3.06q-3.04-2.79-2.56-6.88c.08-.7,.21-1.4,.38-2.54,5.1,4.61,9.95,9,15,13.56,5.74-5.58,11.34-11.04,17.22-16.77-8.12-7.42-16.16-14.77-24.19-22.11,.08-.16,.16-.32,.24-.47,2.28,0,4.56-.1,6.82,.06,.68,.05,1.37,.74,1.95,1.26,5.76,5.21,11.5,10.44,17.26,15.66,.58,.53,1.2,1.02,1.74,1.48,5.45-5.44,10.8-10.77,16.18-16.15-.56-.59-1.17-1.23-1.8-1.89,1.97-.66,8.2-.72,11.73-.09-.48,.68-.92,1.3-1.48,2.09,6.57,5.65,13.05,11.22,19.72,16.95,4.83-4.71,9.54-9.28,14.4-14.02-1.71-1.56-3.26-2.98-5.32-4.86,3.48-.15,6.36-1.1,9.22,.54,2.56-1.83,5.49-.56,8.57-1.2-.85,2.33-2.89,3.24-4.07,5.29,8.58,6.96,17.21,13.96,26.07,21.15Zm-57.34,107.79c-6.1,5.52-12.08,10.94-18.29,16.56,9.19,7.2,18.07,14.17,27.12,21.27,5.87-5.61,11.52-11.01,17.35-16.58-8.84-7.18-17.47-14.18-26.18-21.25Zm68.52-20.11c-8.66-6.98-17.1-13.77-25.64-20.65-5.95,5.69-11.71,11.2-17.63,16.87,8.59,7.2,16.81,14.36,25.35,21.29,6.08-5.95,11.93-11.66,17.91-17.51Zm-80.77-66.8c-5.69,5.53-11.28,10.97-17.08,16.6,8.59,7.36,16.96,14.52,25.43,21.79,5.88-5.68,11.54-11.16,17.36-16.78-8.7-7.32-17.15-14.42-25.71-21.61Zm143.09,7.41c-8.68-6.99-17.1-13.77-25.61-20.63-6.07,5.68-11.9,11.14-17.92,16.77,8.74,7.02,17.2,13.81,25.74,20.66,5.94-5.61,11.71-11.05,17.79-16.8Zm-96.42-5.88c-8.74-7.4-17.17-14.54-25.76-21.81-5.65,5.48-11.18,10.85-16.92,16.41,8.7,7.31,17.15,14.42,25.79,21.68,5.6-5.4,11.1-10.71,16.89-16.29Zm12.14,86.7c-8.57-7.23-16.92-14.27-25.23-21.27-5.04,4.1-15.9,14.7-16.85,16.48,8.48,6.87,16.98,13.77,25.7,20.84,5.51-5.4,10.89-10.67,16.38-16.04Zm-71.3-29.7c5.78-5.6,11.35-10.8,16.81-16.3-8.59-7.37-16.9-14.49-25.4-21.78-5.34,5.24-10.6,10.41-16.1,15.81,8.28,7.47,16.4,14.79,24.68,22.27Zm88.07-31.96c-5.53,5.3-10.85,10.41-16.39,15.73,8.63,6.96,17.01,13.71,25.55,20.61,5.43-5.21,10.76-10.31,16.18-15.51-8.48-6.97-16.8-13.82-25.33-20.83Zm63.72-59.4c-5.98,5.26-11.82,10.39-17.65,15.88,8.68,6.98,17.06,13.72,25.51,20.52,5.38-4.95,10.54-9.71,15.83-14.58-7.88-7.26-15.66-14.43-23.69-21.83Zm-59.73,55.55c8.65,7.09,16.97,13.92,25.41,20.84,5.52-5.26,10.84-10.32,16.27-15.5-8.75-7.02-17.2-13.81-25.72-20.65-5.34,5.12-10.47,10.05-15.95,15.31Zm37.07,103.66c7.66,5.72,14.87,11.2,22.4,16.3,6.33-5.58,12.45-10.97,18.69-16.46-7.68-5.85-15.07-11.68-22.77-17.3-6.2,5.91-12.18,11.61-18.32,17.46Zm-27.85-21.32c6.25-5.95,12.24-11.67,18.47-17.6-7.46-5.79-14.74-11.44-22.13-17.18-6.07,5.94-11.95,11.69-17.98,17.59,7.37,5.85,14.41,11.44,21.65,17.18Zm-23.25-122.11c-8.85-7.17-17.46-14.15-26.15-21.19-4.89,4.78-9.57,9.36-14.45,14.13,8.68,7.35,17.09,14.47,25.63,21.7,5-4.89,9.83-9.61,14.98-14.64Zm26-17.73c-5.74,5.93-11.41,11.79-17.17,17.74,6.78,5.51,13.81,11.23,20.91,17.01,6.02-5.64,11.91-11.15,17.91-16.77-7.35-6.11-14.47-12.02-21.64-17.98Zm38.11,62.47c7.51,5.85,14.85,11.57,22.26,17.35,5.95-5.66,11.65-11.09,17.52-16.67-7.53-5.96-14.76-11.67-22.04-17.43-6,5.66-11.75,11.1-17.74,16.75Zm30,58.27c7.82,5.94,15.4,11.7,23.13,17.57,5.84-5.47,11.53-10.8,17.34-16.24-8.05-5.85-15.76-11.44-23.61-17.14-5.64,5.29-11.16,10.47-16.86,15.81Zm21.01-19.61c8,5.79,15.71,11.38,23.6,17.09,5.74-5.41,11.3-10.64,16.99-16-7.93-5.77-15.61-11.36-23.45-17.06-5.64,5.25-11.24,10.47-17.15,15.98Zm-129.92-23.65c-7.05-5.84-13.9-11.51-20.93-17.33-5.75,5.55-11.43,11.02-17.25,16.64,7,5.92,13.73,11.61,20.64,17.45,5.88-5.62,11.66-11.14,17.54-16.76Zm-81.02,40.47c6.84,5.72,13.36,11.18,19.96,16.69,6.23-5.64,12.2-11.04,18.3-16.56-6.93-5.92-13.55-11.57-20.28-17.31-6,5.73-11.84,11.32-17.98,17.18Zm169.45,21.91c7.79,5.95,15.28,11.66,22.93,17.51,5.61-5.13,11.04-10.09,16.62-15.19-7.89-5.99-15.52-11.78-23.2-17.61-5.51,5.15-10.77,10.07-16.36,15.29Zm-88.37-99.9c-5.64,5.47-11.18,10.84-16.93,16.4,7.12,5.88,13.97,11.53,20.91,17.26,5.64-5.41,11.02-10.58,16.56-15.89-6.96-6.02-13.69-11.84-20.54-17.77Zm74.79,26.36c-5.49,5.24-10.76,10.26-16.23,15.48,7.56,5.92,14.89,11.65,22.28,17.42,5.52-5.29,10.78-10.33,16.21-15.53-7.49-5.85-14.77-11.53-22.25-17.37Zm-113.53,47.99c5.81-5.51,11.37-10.77,17.12-16.21-6.95-5.88-13.72-11.61-20.6-17.43-5.66,5.47-11.15,10.77-16.84,16.27,6.86,5.87,13.47,11.52,20.32,17.38Zm99.27,4.09c5.5-5.21,10.78-10.21,16.21-15.34-7.53-5.9-14.81-11.61-22.25-17.44-5.38,5.17-10.68,10.26-16.18,15.55,7.52,5.83,14.76,11.45,22.22,17.24Zm-64.57,24.14c7.28,5.71,14.32,11.22,21.46,16.81,5.59-5.3,10.94-10.38,16.5-15.66-7.29-5.79-14.37-11.42-21.6-17.16-5.47,5.36-10.8,10.57-16.35,16.01Zm162.33-116.7c-7.23-5.94-14.23-11.69-21.33-17.52-5.52,5.16-10.89,10.18-16.39,15.31,7.15,6.15,14.11,11.95,21.2,17.62,5.58-5.21,10.93-10.2,16.51-15.41Zm-249.67,4.86c6.48,5.72,12.81,11.29,19.31,17.02,5.74-5.59,11.32-11.02,17.08-16.63-6.5-5.82-12.77-11.44-19.18-17.18-5.82,5.68-11.42,11.14-17.2,16.79Zm66.23,132.05c7.19,5.26,14.21,10.4,21.25,15.56,5.93-5.2,11.58-10.15,16.99-15.34-7.21-5.63-14.14-11.03-21.15-16.5-5.71,5.43-11.24,10.71-17.1,16.29Zm104.91-22.52c-6.44-4.97-12.63-9.75-18.9-14.59-6.26,5.97-12.3,11.73-18.48,17.64,6.45,4.98,12.63,9.76,18.88,14.58,6.22-5.93,12.21-11.64,18.5-17.63ZM87.15,113.3c-6.71-5.77-13.17-11.32-19.49-16.76-5.44,5.48-10.74,10.82-16.18,16.32,6.1,5.46,12.37,11.08,18.78,16.83,5.66-5.49,11.14-10.81,16.89-16.39Zm53.16,10.37c-5.1,4.99-10.04,9.83-15.15,14.83,6.99,6.03,13.77,11.89,20.64,17.82,5.39-5.18,10.51-10.11,15.87-15.26-7.17-5.84-14.19-11.55-21.37-17.38Zm118.58,23.91c-7.19-5.99-14.2-11.82-21.28-17.71-5.33,4.92-10.41,9.61-15.69,14.48,7.46,5.9,14.65,11.59,21.99,17.4,5.04-4.77,9.93-9.4,14.97-14.17Zm-14.59,21.46c-5.91,5.62-11.58,11-17.45,16.58,6.71,4.97,13.18,9.76,19.74,14.62,5.87-5.49,11.49-10.75,17.26-16.14-6.66-5.13-13-10.01-19.55-15.06Zm39.66-37.31c-5.56,5.19-11,10.28-16.65,15.55,6.53,5.28,12.81,10.36,19.32,15.62,5.74-5.49,11.31-10.83,17.02-16.29-6.63-5.01-13.02-9.84-19.69-14.88ZM29.24,169.66c5.38-5.29,10.58-10.39,15.93-15.65-6.49-5.73-12.82-11.31-19.33-17.05-4.97,5.26-9.77,10.34-14.68,15.53,5.81,5.51,11.87,11.27,18.08,17.16Zm193.56,19.82c-5.54,5.31-10.84,10.38-16.28,15.6,6.57,5.04,12.83,9.83,19.15,14.68,5.64-5.3,11.08-10.4,16.72-15.7-6.61-4.91-13-9.67-19.59-14.57Zm-1.25,34.1c-6.54-5.02-12.74-9.78-19.09-14.66-5.44,5.14-10.76,10.18-16.23,15.35,6.45,4.97,12.63,9.74,18.95,14.62,5.49-5.14,10.81-10.1,16.38-15.31Zm40.73-116.62c7.2,5.91,14.2,11.66,21.35,17.52,4.64-4.3,9.14-8.46,13.72-12.7-6.87-6.18-13.6-12.22-20.46-18.38-4.86,4.51-9.61,8.92-14.61,13.56Zm-102.69,142.62c-5.48,5.19-10.82,10.25-16.33,15.46,6.39,4.8,12.65,9.5,19.06,14.31,5.4-5.13,10.66-10.13,16.06-15.26-6.41-4.95-12.54-9.68-18.79-14.51Zm108.36-69.3c4.92-4.58,9.65-9,14.57-13.58-6.57-5.31-12.91-10.43-19.31-15.61-5.05,4.78-9.88,9.36-14.86,14.09,6.63,5.11,12.97,10,19.6,15.1Z"></path></svg><style>@media (prefers-color-scheme: light) { :root { filter: none; } }
</style></svg>