<svg xmlns="http://www.w3.org/2000/svg" viewBox="0 0 132.22 146.18"><defs><style>.cls-1{fill:#f4e7d7;}.cls-2{fill:#8f8844;}.cls-3{fill:#8e8843;}.cls-4{fill:#736b20;}.cls-5{fill:#736b1f;}.cls-6{fill:#e77787;}.cls-7{fill:#e9674d;}.cls-8{fill:#b33b3c;}</style></defs><g id="Layer_2" data-name="Layer 2"><g id="Layer_1-2" data-name="Layer 1"><path class="cls-1" d="M86.32,103.21a91.91,91.91,0,0,1-10.06-1.43c-6.76-1.35-13.57-3.6-18.75-8.15s-8.26-11-10.46-17.57a91.42,91.42,0,0,1-4.63-24.4c-.16-3.18-1.2-19.68,2-20.32,2.77-.57,5.54-1.14,8.33-1.6a503.42,503.42,0,0,1,51.49-6.38c4.85-.31,9.74-.23,14.61-.29,1.56,0,1.85.3,1.77,1.88-.21,4.08-.56,8.16-.67,12.24-.17,6.13-.12,12.27-.29,18.39a255.83,255.83,0,0,1-3,30.88c-.67,4.42.94,7-2.8,10C105.59,102.92,96.41,104.07,86.32,103.21Z"/><path class="cls-2" d="M43.1,88.37C42,89.63,40.89,90.55,40.41,92c-.08.26-.47.41-.72.62-.19-.33-.54-.67-.53-1a2.18,2.18,0,0,1,.55-1.09c.74-1,1.53-2,2.35-3-1.81-.81-4.11-.76-5-3-1.56,1.35-2.24,1.42-4,.28a19.54,19.54,0,0,1-2.26-1.69c-1.07-.91-1.26-1.51-.58-2.74,1.12-2.07,2.36-4.08,3.6-6.09.76-1.25,1.62-2.44,2.4-3.68.36-.56.89-1,.66-1.85-.06-.18.15-.49.31-.68,4.64-5.84,8.51-12.2,12.52-18.46q5.36-8.34,10.5-16.81c2.5-4.12,4.83-8.34,7.21-12.54C71,14,74.5,7.69,78,1.43a3.7,3.7,0,0,1,.69-1A1.52,1.52,0,0,1,79.78,0c.19,0,.43.57.44.89A5.85,5.85,0,0,1,80,2.6c-1.16,3.69-2.16,7.46-3.57,11.05C71,27.44,64.05,40.52,57.14,53.59c-.25.46-.56.89-.81,1.34a6.45,6.45,0,0,0-.63,1.47c1.5-2,3-4,4.49-6.07A145,145,0,0,1,88,21.84c3.91-3.08,7.8-6.19,11.71-9.27.44-.35,1-1.13,1.56-.38.47.6-.28,1-.68,1.37C93.7,20,87.71,27.21,81.76,34.46c-7.39,9-14.53,18.17-21.31,27.62-3.27,4.56-6.39,9.22-9.57,13.83-.14.22-.25.45-.57,1a8.46,8.46,0,0,0,1.07-.69c3.31-3.13,6.57-6.31,9.92-9.39A206.83,206.83,0,0,1,93.4,42.93c3.66-2.25,7.38-4.42,11.07-6.61.5-.29,1.13-1,1.6-.16s-.42.94-.87,1.25A127.66,127.66,0,0,0,88.87,51.16a306.89,306.89,0,0,0-28,31.39Q57.11,87.32,53.23,92c-2,2.37-2.59,2.35-5,.4C46.57,91.05,44.91,89.78,43.1,88.37Z"/><path class="cls-3" d="M55.86,101.84c.48-.63.79-1,1.11-1.44,4.51-5.67,9.76-10.64,14.79-15.83,7-7.26,13.81-14.77,20.71-22.16q11.85-12.67,23.74-25.34c1.68-1.8,3.34-3.63,5-5.44.15-.15.26-.34.42-.47.42-.35.8-1.05,1.43-.54s.07,1.08-.23,1.52q-1.89,2.79-3.86,5.54c-3.94,5.49-7.9,11-11.83,16.47a248.23,248.23,0,0,1-23,27.42c-5.84,6.09-12.06,11.8-18,17.8a9.21,9.21,0,0,1-8.43,2.72C57.2,102,56.69,102,55.86,101.84Z"/><path class="cls-4" d="M70.94,101.28,74,97.73a2.62,2.62,0,0,0-.22-.25L69,101.1a3.89,3.89,0,0,1,1.69-2.87c2.89-1.9,5.73-3.88,8.72-5.62,13.33-7.76,27.8-12.11,43-14.07,2.7-.35,5.4-.77,8.1-1.13.57-.08,1.41-.53,1.63.31s-.75.82-1.28,1A186.53,186.53,0,0,0,99.49,91.46C92,95.38,84.38,99.18,76.82,103c-.39.2-.82.23-.75,1,0,.47-.68.81-1.22.57a3.2,3.2,0,0,0-2-.14c-1.49.27-1.77.06-2.5-1.4-.14-.29-.54-.44-.73-.72a1.18,1.18,0,0,1-.21-.82c0-.14.41-.28.64-.3A4,4,0,0,1,70.94,101.28Z"/><path class="cls-3" d="M50.6,102a2.4,2.4,0,0,1,.32-2.81c1.65-2.48,3.26-5,5-7.43A219.18,219.18,0,0,1,69.28,74.27c4.59-5.2,9.79-9.75,14.86-14.45a.83.83,0,0,1,.25-.18c.42-.13,1-.45,1.23-.29.59.34.29.92,0,1.35-1.41,1.95-2.79,3.93-4.28,5.83C75.71,73.71,70.14,80.92,64.41,88a84.52,84.52,0,0,1-6,6c-2.29,2.3-4.54,4.64-6.81,7C51.3,101.22,51,101.52,50.6,102Z"/><path class="cls-4" d="M60.13,18.1A5.27,5.27,0,0,1,60,19.54c-1.88,5.61-3.67,11.26-5.75,16.79-2.42,6.43-5,12.79-7.7,19.11-2.26,5.35-4.74,10.62-7.15,15.92-2.23,4.91-4.5,9.81-6.58,14.84.3-.39.65-.75.91-1.16q4.59-7.51,9.16-15c2.83-4.66,5.79-9.25,8.44-14,3.47-6.22,6.69-12.59,10-18.89A10.74,10.74,0,0,1,62,36a1.24,1.24,0,0,1,1.62-.55c.53.28.68.87.33,1.64-.64,1.38-1.34,2.73-2,4.1a282.24,282.24,0,0,1-15,26.71c-2.42,3.87-4.68,7.83-7.11,11.69C36.57,84.73,33.26,89.83,30,95c-.68,1.06-1.37,2.11-2.06,3.17-.17.26-.32.62-.57.72s-1,.35-1.26.18a1.41,1.41,0,0,1-.51-1.16,128.42,128.42,0,0,1,5.18-23.1C33,68.27,35.4,61.83,37.88,55.44a124.92,124.92,0,0,1,9.2-19.29c2.75-4.58,5.78-9,8.71-13.45.9-1.35,1.87-2.66,2.86-3.94a5.21,5.21,0,0,1,1.14-.85Z"/><path class="cls-4" d="M40.18,96.1c1.66-1.73,3.35-3.43,5-5.19C53.23,82.3,61,73.45,68.24,64.14A157.46,157.46,0,0,0,82.55,42C84,39.3,85.48,36.65,87,34c.27-.48.48-1.26,1.2-1s.33,1.07.16,1.63A106.2,106.2,0,0,1,78.5,56.74c-7.5,12.87-16.13,24.88-27.16,35A68.83,68.83,0,0,1,40.7,99.54a7,7,0,0,1-1.66.88,13.25,13.25,0,0,0-5.16,3.46c-.23.21-.47.54-.73.56a1.87,1.87,0,0,1-1.27-.23,1.34,1.34,0,0,1-.17-1.12,3.67,3.67,0,0,1,.72-1.21c5.81-7.49,11.65-14.95,17.44-22.46,6.72-8.71,13.31-17.51,19.45-26.65,1.44-2.13,2.78-4.31,4.16-6.48a8,8,0,0,1,.61-.91,1.08,1.08,0,0,1,1.85,1.1,11.61,11.61,0,0,1-1,1.94c-3.35,4.94-6.55,10-10.11,14.78C56.66,74.13,48.35,84.91,40.12,95.76a.58.58,0,0,0,0,.14Z"/><path class="cls-4" d="M53.08,97l1.61-1.55A195.69,195.69,0,0,1,72.6,79.19a113.14,113.14,0,0,1,47.29-22.13c2.42-.49,4.82-1,7.23-1.55a2.53,2.53,0,0,1,.92-.15,3,3,0,0,1,.86.45,9.1,9.1,0,0,1-.61.78c-.09.1-.29.1-.44.15C121,58.83,114.53,61.8,108,64.66A210.73,210.73,0,0,0,74.3,82.9a178.47,178.47,0,0,0-27,22c-2.73,2.74-5.25,5.7-7.86,8.57-.1.11-.2.24-.31.35-.48.49-1,.77-1.67.34s-.61-1.12-.08-1.82c1.58-2.08,3.13-4.2,4.82-6.2C47.67,99.67,53,93.07,58.74,86.81A219.35,219.35,0,0,1,90.64,58c1.35-1,2.75-1.92,4.14-2.85a2.22,2.22,0,0,1,1.11-.54,1.48,1.48,0,0,1,1.16.49c.18.3,0,.87-.13,1.27-.11.25-.46.41-.72.58A181.74,181.74,0,0,0,72.56,76.14,235.17,235.17,0,0,0,53.39,96.27c-.16.19-.31.4-.46.6Z"/><path class="cls-3" d="M54.91,112.17c.45-.34.93-.64,1.36-1,4.33-3.72,8.69-7.41,13-11.18A301.83,301.83,0,0,1,95.78,79.1a234.86,234.86,0,0,1,27.64-16.84,11,11,0,0,1,1.71-.78,1,1,0,0,1,.79.29c.1.11,0,.53-.11.7a6.16,6.16,0,0,1-1,.94c-11.48,8.72-23.21,17.08-35,25.35-9.83,6.88-19.62,13.81-29.3,20.9-4.26,3.12-8.2,6.67-12.28,10a1.83,1.83,0,0,1-2,.4,2.4,2.4,0,0,1,.63-2.29c8.7-10.65,18-20.73,28.7-29.42A155.83,155.83,0,0,1,96.55,73.62,8.73,8.73,0,0,1,97.8,73a1,1,0,0,1,1.35.46,1,1,0,0,1-.3,1.41,10.56,10.56,0,0,1-1.31.86c-11.63,6.65-22,15-31.57,24.27-3.81,3.66-7.26,7.69-10.87,11.55a4.39,4.39,0,0,0-.32.51Z"/><path class="cls-5" d="M70.09,110.69l7-4.79a180.21,180.21,0,0,1,29.41-16.59c1.39-.6,2.8-1.17,4.21-1.74a10,10,0,0,1,1.48-.52c.68-.17,1.52-.68,2,.21s-.44,1.2-1,1.58c-3.11,2.3-6.23,4.62-9.4,6.84a246.58,246.58,0,0,1-38.94,22.07c-2.66,1.22-5.29,2.54-7.93,3.81-.28.14-.59.37-.86.34a1.52,1.52,0,0,1-1-.44,1.76,1.76,0,0,1,0-1.16c.06-.22.32-.4.52-.57,9.13-7.94,18.38-15.74,28-23.08a293.3,293.3,0,0,1,26.29-17.5c1-.63,2.06-1.26,3.11-1.86s1.59-.42,1.93.19.08,1.24-.8,1.79c-3,1.84-6,3.68-9,5.49-12.17,7.31-23.34,16-34.29,24.95a8.18,8.18,0,0,0-.68.64S70.09,110.45,70.09,110.69Z"/><path class="cls-6" d="M66.46,23.08c2.2-1,2.67-.89,3.87,1,.52-.19,1-.42,1.59-.58A1.64,1.64,0,0,1,74.3,25a4.86,4.86,0,0,1-.08,2c-1.22,4.24-2.67,8.41-5.36,12a16.15,16.15,0,0,1-3.39,3.21,7.12,7.12,0,0,1-2.9,1.08A3.78,3.78,0,0,1,58,40.72a12.61,12.61,0,0,1-.78-3.8A16.86,16.86,0,0,1,58.88,29a70.46,70.46,0,0,1,3.53-6.28,2.62,2.62,0,0,1,1.25-1.08C65.34,21,65.73,21.24,66.46,23.08Z"/><path class="cls-6" d="M106.22,51.86c.5.22.89.37,1.25.55a2.46,2.46,0,0,1,1.34,3.15,5.57,5.57,0,0,1-2,2.94,14.43,14.43,0,0,1-2.8,1.72,19.3,19.3,0,0,1-9.07,1.47,7.09,7.09,0,0,1-4.08-1.46,4,4,0,0,1-1.52-3.89,11.22,11.22,0,0,1,2.17-4.83A24.85,24.85,0,0,1,100,43.92a7.67,7.67,0,0,0,.7-.36c1.26-.9,2.23-.29,3.18.57a2.19,2.19,0,0,1,.63,2.69c-.35.83-.31,1.48.61,2A2.36,2.36,0,0,1,106.22,51.86Z"/><path class="cls-7" d="M77.34,34.27l2,2.36c1.29,0,1.55,1.25,1.83,2.65l1.54-.12c2.15-.14,3.38,1.41,2.58,3.45a20,20,0,0,1-2.1,4,43.26,43.26,0,0,1-4,5.21,10.48,10.48,0,0,1-3.27,2.36c-3.3,1.56-6.4-.09-7.14-3.66a9.66,9.66,0,0,1,.69-5.69,29,29,0,0,1,5.71-9.13A3.35,3.35,0,0,1,77.34,34.27Z"/><path class="cls-6" d="M122.42,73.67c.73.37,1.21.59,1.66.85a1.63,1.63,0,0,1,.77,2.38,4.48,4.48,0,0,1-.66,1.06,17.57,17.57,0,0,1-7.78,5.4,8.41,8.41,0,0,1-5.56.18c-1.78-.6-2.72-2-2.24-3.75a17.32,17.32,0,0,1,1.93-4.61,17.65,17.65,0,0,1,7.7-6.73c1.4-.65,2.06-.4,2.87.89S123,71.9,122.42,73.67Z"/><path class="cls-7" d="M103.35,68.23c1.32.78,2.19,1.66,1.6,3.25a1.41,1.41,0,0,0,.14.88c.84,2,.68,2.8-.93,4.25A15.28,15.28,0,0,1,98.54,80,27.75,27.75,0,0,1,94,81c-3.2.43-5.57-3.48-4.07-6.15a15.82,15.82,0,0,1,1.82-2.73,23.52,23.52,0,0,1,8.5-6,2.12,2.12,0,0,1,2-.16C103.16,66.4,103.76,67.06,103.35,68.23Z"/><path class="cls-8" d="M34.36,71.67a2.37,2.37,0,0,1,.17.8c0,.12-.38.3-.46.25s-.39-.38-.36-.54S34.05,71.9,34.36,71.67Z"/><path class="cls-1" d="M42.73,32.75c1.42,0,1.65.85,1.91,1.73Q47,42.24,49.29,50q6.18,20.47,12.34,41c.11.35.16.71.25,1.1.52.07.92.14,1.33.17q23.67,1.51,47.35,3c1.38.08,2.75.56,4.17.12.45-.14.78.41.53.83a2.71,2.71,0,0,1-.64.67c-1.16.91-2.26,1.89-3.49,2.67-10.49,6.66-20.9,13.47-32,19C61.58,127.28,43.77,135.34,25,141.12a170.12,170.12,0,0,1-19.39,4.72,24.78,24.78,0,0,1-3.75.34c-1.52,0-2-.47-1.87-2a11.35,11.35,0,0,1,.38-2.32C2,135.88,3.56,129.9,5.31,124c3-10.06,6.65-19.87,10.5-29.62,3.06-7.75,6.26-15.44,9.48-23.13,3.3-7.88,6.61-15.75,10.06-23.57,1.94-4.41,4.16-8.7,6.27-13C41.94,34,42.36,33.36,42.73,32.75Z"/></g></g></svg>