<?xml version="1.0" encoding="UTF-8"?><svg xmlns="http://www.w3.org/2000/svg" viewBox="0 0 87.9 134.73"><defs><style>.d{fill:#ea684b;}.e{fill:#fd836a;}.f{fill:#736b20;}</style></defs><g id="a"/><g id="b"><g id="c"><g><path class="f" d="M54.84,50.48c.29-.44,.54-.75,.71-1.09,3.02-6.12,6.03-12.25,9.05-18.38,2.42-4.92,4.95-9.8,5.64-15.36,.01-.08,.03-.17,.05-.25,.24-.93,.81-1.52,1.8-1.41,1.13,.12,1.64,.95,1.48,1.97-.27,1.74-.51,3.54-1.14,5.17-1.38,3.62-2.88,7.2-4.54,10.69-2.79,5.86-5.77,11.63-8.64,17.46-.4,.8-.65,1.67-1.2,3.1,1.16-.81,1.81-1.27,2.47-1.73,2.99-2.07,6.02-4.08,9.68-4.76,1.23-.23,2.52-.37,3.76-.25,1.97,.18,3.55,1.19,4.31,3.07,.76,1.88,.36,3.76-1.01,5.18-1.09,1.13-2.44,2.09-3.84,2.8-3.66,1.85-7.63,2.63-11.68,3.06-2.18,.23-4.36,.39-6.78,.61-5.16,15.06-7.86,30.61-7.68,46.78,.48-.54,.94-1.09,1.44-1.61,3.41-3.6,7.24-6.58,12.15-7.87,.57-.15,1.15-.32,1.73-.34,1.69-.05,3.19,.41,4.13,1.94,.96,1.56,.38,3.04-.63,4.2-1.09,1.25-2.39,2.4-3.79,3.29-3.51,2.23-7.4,3.63-11.42,4.67-1.3,.33-2.58,.71-4.14,1.14,.14,4.27,.24,8.47,.45,12.67,.12,2.36,.41,4.7,.62,7.06,.03,.33,.06,.68,0,1.01-.16,.8-.57,1.55-1.46,1.44-.56-.07-1.21-.53-1.55-1.01-.31-.43-.33-1.11-.38-1.69-1.32-13.9-1.55-27.8,.27-41.67,.14-1.05-.12-1.72-.8-2.47-3.46-3.81-6.89-7.65-10.27-11.53-.64-.73-1.27-1.04-2.18-.88-1.25,.21-2.5,.4-3.74,.63-5.08,.92-9.92,.07-14.49-2.22-1.24-.62-2.47-1.55-3.29-2.65-1.7-2.25-.85-4.89,1.89-5.54,1.82-.43,3.91-.47,5.71-.03,2.92,.72,5.72,1.97,8.56,3.01,.62,.23,1.22,.53,2,.88,.17-1.16-.57-1.82-.98-2.54-3.92-6.77-6.79-13.94-8.23-21.65-1.11-5.91-1.33-11.9-1.29-17.89,0-.41-.02-.96,.21-1.21,.41-.45,1-.95,1.55-1,.41-.04,1.14,.52,1.28,.95,.28,.86,.31,1.82,.32,2.74,.08,6.08,.26,12.15,1.69,18.1,1.26,5.27,3.12,10.32,5.65,15.13,.3,.56,.68,1.08,1.38,1.55,0-.96-.1-1.93,.02-2.88,.26-2.08,.55-4.16,.97-6.21,.16-.8,.61-1.58,1.08-2.27,1.77-2.61,4.47-2.42,5.57,.55,.63,1.68,.92,3.66,.71,5.43-.39,3.25-1.1,6.48-1.96,9.64-1.26,4.64-1.39,4.63,1.76,8.22,2.38,2.71,4.83,5.36,7.28,8.08,2.23-8.75,4.42-17.28,6.53-25.54-1.68-1.85-3.38-3.72-5.07-5.59-2.75-3.02-4.45-6.56-4.92-10.61-.16-1.39-.06-2.9,.33-4.23,.83-2.83,3.53-3.76,6.04-2.22,2.35,1.44,3.7,3.69,4.54,6.21,.87,2.61,1.51,5.31,2.3,8.19Z"/><g><path class="e" d="M60.08,16.4c0-6.32,.97-10.58,2.32-14.78,.42-1.32,1.2-1.71,2.44-1.6,2.03,.17,3.77,1.04,5.11,2.5,1.14,1.24,2.38,1.77,4.03,1.51,2.53-.4,4.67,.45,6.46,2.19,1.09,1.05,2.25,1.71,3.82,1.59,.57-.04,1.19,.08,1.74,.26,1.46,.47,2.15,1.68,1.79,3.15-.16,.65-.45,1.27-.75,1.87-3.74,7.31-9.29,12.77-16.71,16.31-.68,.33-1.38,.64-2.11,.85-2.09,.59-3.37,.14-4.55-1.72-2.7-4.27-3.57-9.04-3.61-12.13Z"/><g><path class="d" d="M68.82,24.8c-.6-.92-1.05-1.3-1.03-1.65,.03-.55,.37-1.09,.61-1.62,1.62-3.59,3.25-7.19,4.88-10.78,.1-.23,.12-.57,.3-.67,.38-.24,.83-.49,1.25-.48,.18,0,.39,.63,.49,.99,.06,.22-.03,.51-.13,.73-1.81,3.97-3.63,7.93-5.46,11.89-.21,.45-.49,.86-.92,1.59Z"/><path class="d" d="M71.82,23.88c.36-.55,.64-1.12,1.05-1.6,2.63-3.15,5.3-6.27,7.93-9.43,.46-.56,.97-1.18,1.6-.61,.3,.27,.28,1.29,0,1.71-.86,1.33-1.87,2.58-2.89,3.79-1.63,1.92-3.3,3.8-4.99,5.66-.66,.72-1.37,1.56-2.69,.48Z"/><path class="d" d="M64.15,12.42c.14-1.31,.24-3,.54-4.65,.1-.52,.71-1.3,1.13-1.33,.9-.06,.94,.81,.8,1.49-.7,3.61-.27,7.22,.02,10.83,.07,.83,.55,2.16-.81,2.22-1.2,.05-1.1-1.25-1.18-2.15-.17-2.01-.32-4.03-.51-6.42Z"/></g></g><g><path class="e" d="M4.73,10.65c.59,.17,1.58,.38,2.52,.72,1.81,.66,3.47,.47,5.02-.68,.34-.25,.7-.47,1.06-.69,2.85-1.77,3.75-1.78,6.33,.32,1.43,1.16,2.79,1.26,4.43,.52,1.29-.58,2.68-.99,4.07-1.27,1.3-.27,2.59,.11,3.43,1.17,.47,.59,.84,1.5,.77,2.22-.69,7.28-3.2,13.94-7.24,20.01-3.72,5.59-7.05,6.23-12.78,2.64-2.38-1.49-4.44-3.38-6.04-5.69C3.36,25.65,1.13,21.05,.1,15.91c-.56-2.78,1.37-5.2,4.63-5.26Z"/><g><path class="d" d="M6.54,15.9c.34,.65,.62,1.07,.79,1.52,1.59,4.3,4.03,8.11,6.63,11.84,.23,.34,.46,.73,.52,1.12,.04,.27-.12,.71-.33,.85-.22,.15-.68,.14-.93,0-.35-.19-.64-.54-.88-.87-2.57-3.55-4.89-7.24-6.51-11.33-.21-.53-.37-1.13-.36-1.69,0-.3,.42-.6,1.08-1.45Z"/><path class="d" d="M27.07,16.88c-.75,3.82-1.55,8.02-2.45,12.2-.1,.48-.83,.83-1.26,1.23-.21-.57-.67-1.19-.58-1.72,.62-3.64,1.36-7.25,2.05-10.87,.12-.66,.09-1.36,.3-1.98,.16-.46,.6-.83,.92-1.24,.34,.41,.72,.79,1.01,1.24,.11,.18,.02,.49,.02,1.13Z"/><path class="d" d="M16.23,14.8c1,.06,1.24,.78,1.37,1.55,.63,3.64,1.26,7.28,1.87,10.92,.05,.32,.09,.74-.06,.98-.2,.3-.57,.59-.92,.66-.21,.05-.64-.27-.75-.52-.2-.45-.24-.97-.32-1.47-.59-3.39-1.18-6.78-1.76-10.17-.13-.75-.3-1.52,.58-1.95Z"/></g></g></g></g></g></svg>