<svg xmlns="http://www.w3.org/2000/svg" viewBox="0 0 66.31 76.65"><defs><style>.cls-1{fill:#c8c389;}</style></defs><g id="Layer_2" data-name="Layer 2"><g id="Layer_1-2" data-name="Layer 1"><path class="cls-1" d="M52.61,67.77c.38-3.22.83-7,1.3-10.87a3.51,3.51,0,0,1,.37-1.19,1.4,1.4,0,0,1,1.56-.78,1.46,1.46,0,0,1,1.28,1.38,3.63,3.63,0,0,1,0,1.09C56,62.75,56,68.18,55.81,73.6a6.55,6.55,0,0,1-.2,1.53A1.5,1.5,0,0,1,52.69,75a17.65,17.65,0,0,1-.08-2.18C52.6,71.32,52.61,69.86,52.61,67.77Z"/><path class="cls-1" d="M49.25,73c0,.67,0,1,0,1.29a1.69,1.69,0,0,1-1.52,1.54,1.61,1.61,0,0,1-1.59-1.44C46,73.57,46,72.79,45.86,72c-.47-3.14-.94-6.28-1.43-9.42-.18-1.17.11-1.91,1-2.18a1.59,1.59,0,0,1,2.11,1.31,48.26,48.26,0,0,1,1,4.9C48.8,68.84,49,71.07,49.25,73Z"/><path class="cls-1" d="M61.64,72.55c.34-2.91.67-5.82,1-8.72a4.27,4.27,0,0,1,.47-1.48,1.58,1.58,0,0,1,2.95,1c-.4,3.53-.78,7.06-1.22,10.58a4.42,4.42,0,0,1-.6,1.91,1.75,1.75,0,0,1-1.37.76,1.68,1.68,0,0,1-1.08-1.13,18.11,18.11,0,0,1,0-3Z"/><path class="cls-1" d="M7.39,57.36c.68-7.48,1-14.73,2.32-21.88.19-1,.42-2,.68-3.06A3.76,3.76,0,0,1,11,31.14a1.45,1.45,0,0,1,1.78-.61,1.51,1.51,0,0,1,1,1.57,2.6,2.6,0,0,1-.11.62,71,71,0,0,0-2,13.13c-.39,4.52-.67,9-1,13.58a3,3,0,0,1-.3,1.36,2.3,2.3,0,0,1-1.13.92A1.15,1.15,0,0,1,7.78,61a4.79,4.79,0,0,1-.37-1.49C7.35,58.68,7.39,57.89,7.39,57.36Z"/><path class="cls-1" d="M1.28,51.63Q.65,45.81,0,40a4.21,4.21,0,0,1,0-.62A1.56,1.56,0,0,1,1.28,37.8,1.46,1.46,0,0,1,3,38.8a13.62,13.62,0,0,1,.59,2.75,107.18,107.18,0,0,1,.73,15.3A3.83,3.83,0,0,1,3.57,59a1.31,1.31,0,0,1-2.36-.62A5.93,5.93,0,0,1,1.13,57c0-1.77,0-3.55,0-5.32Z"/><path class="cls-1" d="M14,56.61c.69-3.47,1.37-7,2.09-10.41a3.92,3.92,0,0,1,.64-1.41,1.54,1.54,0,0,1,2.78,1.26c-.2.86-.53,1.69-.7,2.56-.46,2.46-.85,4.93-1.3,7.38a7.85,7.85,0,0,1-.49,1.8,1.57,1.57,0,0,1-1.74,1c-.77-.22-1-.87-1.11-1.56,0-.2,0-.41,0-.62Z"/><path class="cls-1" d="M54.65,17.15c.7-4.75,1.38-9.5,2.11-14.24A6.42,6.42,0,0,1,57.4,1,1.55,1.55,0,0,1,59.48.14a1.5,1.5,0,0,1,.84,1.95C58.86,7.35,58.56,12.78,58,18.17c-.14,1.46-.74,2.22-1.75,2.15s-1.47-.83-1.47-2.21c0-.31,0-.62,0-.93Z"/><path class="cls-1" d="M51.13,21.18a11,11,0,0,1,0,1.41,1.57,1.57,0,0,1-1.52,1.5A1.49,1.49,0,0,1,48,22.66c-.15-1-.21-2-.29-3A57.57,57.57,0,0,0,46,8.11a1.58,1.58,0,1,1,3-1,29.53,29.53,0,0,1,1.14,4.7c.45,3.1.73,6.22,1.08,9.34Z"/><path class="cls-1" d="M66.23,12.07c-.25,2.91-.5,5.81-.78,8.72a4.43,4.43,0,0,1-.39,1.49,1.42,1.42,0,0,1-1.55.82A1.34,1.34,0,0,1,62.31,22a4.05,4.05,0,0,1-.1-1.39c.27-2.9.56-5.81.86-8.71a4.18,4.18,0,0,1,.23-1.06A1.51,1.51,0,0,1,65,9.78,1.54,1.54,0,0,1,66.3,11.3c0,.25,0,.52,0,.78Z"/></g></g></svg>