<svg xmlns="http://www.w3.org/2000/svg" viewBox="0 0 61.16 53.76"><defs><style>.cls-1{fill:#c8c389;}</style></defs><g id="Layer_2" data-name="Layer 2"><g id="Layer_1-2" data-name="Layer 1"><path class="cls-1" d="M8.82,43.93Q8.15,37.8,7.48,31.66a3.57,3.57,0,0,1,0-1.08,1.47,1.47,0,0,1,1.27-1.23,1.44,1.44,0,0,1,1.65.89,6.33,6.33,0,0,1,.42,1.66c.29,2.49.63,5,.8,7.47.22,3.43.32,6.87.44,10.32a5.66,5.66,0,0,1-.18,1.69,1.58,1.58,0,0,1-1.72,1.28c-.8-.08-1.26-.62-1.3-1.67-.09-2.08-.14-4.17-.2-6.25V44Z"/><path class="cls-1" d="M5.2,50.77a11.59,11.59,0,0,1,0,1.56,1.55,1.55,0,0,1-1.42,1.43,1.53,1.53,0,0,1-1.51-1.15A7,7,0,0,1,2,51.24c-.41-3.31-.79-6.62-1.23-9.92A23.51,23.51,0,0,0,.11,38.6c-.29-1.11,0-1.93.81-2.26a1.63,1.63,0,0,1,2.19,1.19,20.09,20.09,0,0,1,1,3.77c.45,3.15.79,6.31,1.18,9.46Z"/><path class="cls-1" d="M19.62,36.2c1.42,0,2.14,1,1.67,2.12a40.32,40.32,0,0,0-2.17,8.48c-.21,1.08-.33,2.17-.5,3.25-.07.41-.13.83-.22,1.24-.27,1.32-.95,2-1.85,1.94s-1.47-1-1.31-2.46.34-2.7.62-4q.86-4.05,1.85-8.08a4.29,4.29,0,0,1,.8-1.68A3.78,3.78,0,0,1,19.62,36.2Z"/><path class="cls-1" d="M49,26.92c.67-7.47,1-14.73,2.32-21.88.18-1,.41-2,.67-3A4.09,4.09,0,0,1,52.52.71,1.45,1.45,0,0,1,54.3.1a1.49,1.49,0,0,1,1,1.57,2.12,2.12,0,0,1-.11.61,72.12,72.12,0,0,0-2,13.14c-.4,4.52-.68,9-1,13.58a3,3,0,0,1-.31,1.35,2.28,2.28,0,0,1-1.13.93,1.16,1.16,0,0,1-1.39-.76A4.86,4.86,0,0,1,49,29C48.92,28.24,49,27.46,49,26.92Z"/><path class="cls-1" d="M42.85,21.2q-.62-5.84-1.24-11.65a4.43,4.43,0,0,1,0-.63,1.55,1.55,0,0,1,1.27-1.55,1.47,1.47,0,0,1,1.74,1,15.13,15.13,0,0,1,.59,2.75,108.59,108.59,0,0,1,.72,15.3,3.9,3.9,0,0,1-.75,2.13,1.31,1.31,0,0,1-2.37-.62,6.48,6.48,0,0,1-.07-1.4c0-1.77,0-3.54,0-5.31Z"/><path class="cls-1" d="M55.6,26.17c.7-3.47,1.38-6.94,2.1-10.41a3.87,3.87,0,0,1,.64-1.4,1.56,1.56,0,0,1,1.93-.58,1.52,1.52,0,0,1,.84,1.83c-.19.87-.53,1.7-.69,2.57-.46,2.45-.86,4.92-1.3,7.38a7.2,7.2,0,0,1-.5,1.79,1.57,1.57,0,0,1-1.74,1c-.77-.22-1-.87-1.1-1.56a4.22,4.22,0,0,1,0-.62Z"/></g></g></svg>