<svg xmlns="http://www.w3.org/2000/svg" viewBox="0 0 64.27 79.88"><defs><style>.cls-1{fill:#c8c389;}</style></defs><g id="Layer_2" data-name="Layer 2"><g id="Layer_1-2" data-name="Layer 1"><path class="cls-1" d="M11.93,70.06q-.67-6.15-1.34-12.28a3.27,3.27,0,0,1,0-1.08,1.46,1.46,0,0,1,1.26-1.23,1.43,1.43,0,0,1,1.65.89A6,6,0,0,1,13.9,58c.3,2.49.64,5,.8,7.47.23,3.43.32,6.88.44,10.32A5.08,5.08,0,0,1,15,77.5a1.58,1.58,0,0,1-1.72,1.28c-.79-.08-1.25-.62-1.3-1.66-.09-2.09-.13-4.17-.19-6.26,0-.26,0-.52,0-.78Z"/><path class="cls-1" d="M8.31,76.89a11.58,11.58,0,0,1,0,1.56,1.54,1.54,0,0,1-1.41,1.43,1.52,1.52,0,0,1-1.51-1.14,8,8,0,0,1-.25-1.38c-.41-3.31-.78-6.62-1.22-9.92a23.55,23.55,0,0,0-.69-2.72c-.28-1.11,0-1.93.81-2.26a1.64,1.64,0,0,1,2.2,1.2,20.47,20.47,0,0,1,1,3.77c.45,3.14.79,6.3,1.17,9.45Z"/><path class="cls-1" d="M22.73,62.32c1.41,0,2.14,1,1.67,2.12a39.71,39.71,0,0,0-2.17,8.48c-.21,1.08-.34,2.17-.51,3.25-.06.42-.13.83-.21,1.24-.27,1.32-1,2-1.85,2s-1.48-1-1.31-2.47.33-2.7.61-4c.57-2.71,1.2-5.4,1.85-8.09a4.66,4.66,0,0,1,.8-1.68A3.94,3.94,0,0,1,22.73,62.32Z"/><path class="cls-1" d="M52.07,53.05c.68-7.48,1-14.73,2.32-21.89.19-1,.42-2,.68-3.05a3.87,3.87,0,0,1,.56-1.28,1.44,1.44,0,0,1,1.78-.61,1.5,1.5,0,0,1,1,1.57,2.6,2.6,0,0,1-.11.62,71.88,71.88,0,0,0-2,13.13c-.4,4.52-.68,9.05-1,13.58a3,3,0,0,1-.3,1.35,2.23,2.23,0,0,1-1.13.93,1.15,1.15,0,0,1-1.39-.76,4.86,4.86,0,0,1-.37-1.5C52,54.37,52.07,53.58,52.07,53.05Z"/><path class="cls-1" d="M46,47.32q-.62-5.82-1.24-11.65a4.4,4.4,0,0,1,0-.62A1.55,1.55,0,0,1,46,33.49a1.48,1.48,0,0,1,1.74,1,14.31,14.31,0,0,1,.58,2.75A107.11,107.11,0,0,1,49,52.54a3.83,3.83,0,0,1-.76,2.13,1.3,1.3,0,0,1-2.36-.62,5.84,5.84,0,0,1-.08-1.39c0-1.78,0-3.55,0-5.32Z"/><path class="cls-1" d="M58.71,52.3c.69-3.48,1.37-6.95,2.09-10.41a4.09,4.09,0,0,1,.64-1.41,1.57,1.57,0,0,1,1.94-.58,1.53,1.53,0,0,1,.84,1.83c-.19.87-.53,1.7-.7,2.57-.46,2.45-.85,4.92-1.3,7.38a7.85,7.85,0,0,1-.49,1.8,1.57,1.57,0,0,1-1.74,1c-.77-.22-1-.87-1.1-1.56a4.21,4.21,0,0,1,0-.62Z"/><path class="cls-1" d="M11,23.57Q12,12.8,12.94,2A3.75,3.75,0,0,1,13,1.57,1.69,1.69,0,0,1,14.64,0a1.62,1.62,0,0,1,1.49,1.85c-.05,1.36-.23,2.71-.34,4.06q-.73,9-1.47,18a5.91,5.91,0,0,1-.39,1.66,1.42,1.42,0,0,1-2.77-.38,10.14,10.14,0,0,1,0-1.56Z"/><path class="cls-1" d="M5.06,22.18A1.81,1.81,0,0,1,3.78,24.1c-.82.15-1.59-.42-1.85-1.52s-.35-2.16-.56-3.24C1,17.19.55,15,.14,12.89A5.07,5.07,0,0,1,0,12.13a1.43,1.43,0,0,1,.9-1.51,1.44,1.44,0,0,1,1.82.46,3.91,3.91,0,0,1,.7,1.54C4,15.7,4.51,18.79,5,21.87A1.62,1.62,0,0,1,5.06,22.18Z"/><path class="cls-1" d="M23.28,18.85c.3-2.4.64-5.09,1-7.78a3.47,3.47,0,0,1,.25-.89,1.57,1.57,0,0,1,1.74-1,1.54,1.54,0,0,1,1.23,1.59,11.72,11.72,0,0,1-.13,1.56c-.28,2.27-.55,4.55-.88,6.82a5.49,5.49,0,0,1-.56,1.76,1.36,1.36,0,0,1-1.59.72,1.41,1.41,0,0,1-1.06-1.38C23.24,19.87,23.28,19.51,23.28,18.85Z"/></g></g></svg>