<?xml version="1.0" encoding="UTF-8"?><svg xmlns="http://www.w3.org/2000/svg" viewBox="0 0 188.53 259.75"><defs><style>.d{fill:#f1e7db;}.e{fill:#814510;}.f{fill:#ae6425;}.g{fill:#e29255;}.h{fill:#371c15;}.i{fill:#351c17;}</style></defs><g id="a"/><g id="b"><g id="c"><g><g><path class="h" d="M161.45,11.2c-2-.13-2.4-.65-1.85-2.27,.24-.71,.51-1.42,.84-2.09,.21-.42,.5-.84,.86-1.13,.52-.43,1.12-.27,1.65,.04,.6,.35,.51,.9,.3,1.41-.57,1.33-1.17,2.64-1.79,4.03Z"/><path class="h" d="M159.01,17.33c-.28,.58-.55,1.17-.86,1.73-.23,.42-.51,1-1.07,.69-.46-.26-1.13-.92-1.05-1.22,.36-1.32,.89-2.61,1.52-3.83,.28-.54,.95-.33,1.46-.07,.59,.29,.71,.77,.52,1.35-.15,.46-.35,.9-.53,1.35Z"/><path class="h" d="M185.99,21.55c-.45,.91-1.48,1.86-1.93,2.29-.62,.6-1.82,.33-2.19-.44-.12-.25-.03-.75,.15-.99,.71-.93,1.47-1.84,2.28-2.68,.25-.27,.84-.54,1.07-.42,.36,.18,.61,.68,.77,1.1,.13,.34,.05,.73-.15,1.14Z"/><path class="h" d="M172.93,36.29c-.56,1.02-1.63,2.06-2.02,2.42-.46,.43-1.09,.51-1.61,0-.46-.46-.39-1.01-.05-1.48,.63-.87,1.31-1.71,2-2.53,.41-.49,.96-.78,1.56-.39,.68,.44,.54,1.21,.12,1.98Z"/><path class="h" d="M155.42,26.4c-.3,.76-.38,1.23-.64,1.55-.27,.34-.85,.82-1.06,.73-.42-.19-.95-.74-.94-1.13,.05-1.36,.46-2.67,1.36-3.71,.21-.25,.93-.27,1.29-.11,.27,.11,.51,.7,.46,1.04-.09,.68-.38,1.34-.48,1.64Z"/><path class="h" d="M175.83,29.72c.98-.99,1.89-1.97,2.87-2.88,.17-.16,.69-.18,.85-.03,.25,.22,.45,.62,.46,.96,.03,.98-1.65,3.11-2.6,3.28-.43,.08-.97-.02-1.35-.23-.19-.11-.15-.65-.22-1.09Z"/></g><path class="g" d="M49.47,256.34c-9.55-4.04-18.04-9.1-25.82-15.38-5.79-4.67-10.93-9.94-15.34-15.92-2.49-3.38-4.35-7.04-5.67-11.04-1.44-4.39-2.49-8.81-2.62-13.45-.27-9.43,2.76-17.71,8.62-25.01,6.7-8.35,14.82-14.89,24.7-19.16,2.33-1.01,4.63-2.08,6.94-3.12,5.87-2.61,9.26-7.28,10.84-13.33,.69-2.65,1.1-5.39,1.5-8.11,1.83-12.27,8.73-20.39,20.23-24.68,7.31-2.73,14.81-2.86,22.3-.89,12.22,3.2,22.75,9.5,31.9,18.1,5.39,5.06,8.67,11.37,10.19,18.6,1.02,4.87,.38,9.53-1.6,14.07-2.33,5.36-6.15,9.6-10.15,13.71-2.89,2.98-5.76,5.99-8.66,8.96-3.56,3.66-4.95,7.97-4.13,13.04,.92,5.65,1.44,11.35,1.54,17.08,.09,5.71-.75,11.29-2.28,16.78-1.03,3.69-2.12,7.34-3.78,10.83-4.01,8.43-10.41,14.17-19.03,17.55-4.8,1.88-9.75,3.15-14.85,3.9-3.52,.51-7.02,1.06-10.62,.82-2.98-.21-5.89-.72-8.74-1.55-1.97-.57-3.9-1.28-5.49-1.81Z"/><path class="f" d="M103.85,142.77c-2.12-1.52-4.11-3.08-6.23-4.43-1.72-1.09-3.59-1.97-5.43-2.87-1.3-.64-1.48-.93-.75-2.18,1.5-2.56,3.05-5.09,4.58-7.63,4.94-8.24,9.79-16.52,14.84-24.69,4.56-7.39,9.25-14.7,14.03-21.95,8.47-12.84,16.69-25.83,24.32-39.18,.16-.28,.35-.55,.52-.82,1.22-1.98,2.16-4.05,2.89-6.28,1.36-4.15,2.91-8.25,4.52-12.31,2.23-5.62,4.59-11.19,6.88-16.78,.7-1.71,1.9-2.91,3.67-3.39,.91-.25,1.92-.31,2.86-.21,2.17,.23,4.19,.97,6.11,2.01,3.28,1.78,6.44,3.74,9.02,6.49,.66,.71,1.25,1.48,1.86,2.24,1.22,1.53,1.32,3.18,.27,4.81-1.34,2.08-2.62,4.23-4.21,6.12-4.34,5.16-8.75,10.26-13.27,15.26-3.26,3.61-6.13,7.45-8.63,11.63-5.38,8.98-11.02,17.79-16.51,26.7-5.43,8.82-10.82,17.66-16.22,26.5-8.15,13.35-16.3,26.71-24.46,40.05-.22,.36-.5,.68-.67,.9ZM170.36,9.7c-2.23,3.22-8.86,18.47-8.83,20.49,3.98-6.57,7.84-12.94,11.84-19.53-1.18-.37-2.08-.66-3.01-.96Zm-4.63,23.02l.14,.13c.36-.37,.73-.73,1.07-1.12,3.07-3.6,6.13-7.22,9.2-10.82,.98-1.15,1.99-2.26,2.92-3.45,.27-.34,.52-.94,.39-1.28-.34-.93-.83-1.84-1.74-2.26-4.03,6.32-8,12.56-11.98,18.81Z"/><path class="i" d="M95.19,140.3c3.53,1.28,5.38,3.99,6.38,7.42,1.7,5.82-.44,10.5-4.84,14.06-6.27,5.07-14.09,1.95-17.56-2.84-3.28-4.53-3.45-10.25-.36-14.5,.65-.9,1.49-1.74,2.4-2.37,4.34-3,9.02-3.6,13.98-1.78Z"/><path class="h" d="M77.41,210.4c-.67,1.17-1.27,2.37-2.02,3.49-.85,1.28-1.48,1.4-2.87,.69-6.54-3.32-13.01-6.75-19.03-11-2.46-1.74-5.19-3.08-7.77-4.65-1.24-.75-2.45-1.57-3.65-2.4-1.25-.87-1.56-1.49-.99-2.88,.66-1.58,1.5-3.1,2.43-4.54,.72-1.1,1.32-1.15,2.49-.45,2.58,1.56,5.1,3.23,7.71,4.75,5.59,3.25,11.23,6.43,16.84,9.65,1.97,1.12,3.93,2.25,5.89,3.38,1.69,.97,1.84,1.43,1.11,3.29-.08,.2-.16,.4-.24,.6l.09,.05Z"/><path class="e" d="M105.91,160.84c-2.12,4.73-6.82,8.56-13.52,9.81-8.17,1.53-14.61-1.71-19.36-8.03-3.98-5.3-4.38-11.38-1.7-17.51,1.26-2.88,2.87-5.57,5.28-7.68,4.23-3.7,9.04-5.62,14.74-4.72,3.45,.55,6.42,2.24,9.14,4.29,7.37,5.55,9.48,13.51,5.42,23.83Zm-31.75-14.06c-.32,1.2-.78,2.38-.92,3.6-.63,5.25,1.04,9.59,5.08,13.13,5.79,5.07,12.51,5.22,18.49,2.08,.99-.52,1.94-1.2,2.75-1.98,4.96-4.78,6.08-10.6,4.39-17.1-.39-1.48-1.18-2.77-2.22-3.91-2.14-2.34-4.68-4.13-7.54-5.48-3.59-1.7-7.18-1.7-10.81-.13-4.49,1.94-7.32,5.4-9.2,9.8Z"/><g><path class="d" d="M55.84,197.22c.07-.23,.1-.48,.22-.68,5.63-9.33,11.23-18.67,16.91-27.98,5.92-9.72,11.89-19.41,17.88-29.09,6.78-10.96,13.61-21.9,20.42-32.84,7.75-12.46,15.54-24.89,23.22-37.39,4.66-7.58,9.19-15.24,13.72-22.91,1.89-3.2,3.6-6.52,5.4-9.77,.27-.48,.59-.92,.89-1.39,.11,.06,.21,.11,.32,.17-.07,.27-.08,.56-.21,.8-5.77,10.75-11.95,21.25-18.38,31.61-6.21,9.99-12.37,20-18.59,29.98-5.3,8.52-10.69,16.98-15.98,25.5-5.38,8.66-10.69,17.36-16.03,26.05-4.63,7.54-9.28,15.06-13.89,22.61-4.21,6.91-8.38,13.84-12.57,20.77-.78,1.29-1.53,2.6-2.32,3.89-.19,.3-.46,.56-.69,.83l-.32-.17Z"/><path class="d" d="M64.73,202.85c.09-.23,.15-.48,.28-.69,6.24-10.53,12.5-21.05,18.74-31.59,5.03-8.49,9.99-17.03,15.04-25.5,4.72-7.92,9.55-15.78,14.28-23.69,3.73-6.25,7.39-12.55,11.08-18.82,4.02-6.83,7.97-13.71,12.08-20.49,8.27-13.65,16.63-27.26,24.95-40.88,.26-.43,.58-.83,.88-1.24l.32,.16c-.1,.3-.15,.64-.32,.91-4.49,7.37-9.01,14.72-13.5,22.09-4.8,7.88-9.62,15.74-14.34,23.66-8.63,14.5-17.18,29.06-25.79,43.58-6.6,11.14-13.25,22.25-19.85,33.38-7.57,12.75-15.12,25.52-22.69,38.28-.23,.38-.54,.72-.82,1.07l-.34-.22Z"/><path class="d" d="M159.92,38.78c-32.33,54.33-63.83,109.15-97.05,162.95l-.35-.13c.07-.3,.08-.63,.23-.88,3.6-5.95,7.22-11.89,10.83-17.84,4.82-7.93,9.65-15.85,14.43-23.8,4.69-7.81,9.34-15.65,13.98-23.5,4.34-7.34,8.63-14.7,12.96-22.04,4.27-7.25,8.58-14.48,12.86-21.72,4.03-6.83,8.05-13.66,12.08-20.49,4.03-6.83,8.06-13.66,12.09-20.48,2.22-3.76,4.44-7.53,6.67-11.28,.23-.38,.51-.73,.77-1.09,.17,.11,.33,.21,.5,.32Z"/><path class="d" d="M157.36,37.1c-.65,1.14-1.29,2.29-1.94,3.43-3.86,6.68-7.71,13.36-11.6,20.02-3.97,6.8-7.96,13.59-12,20.35-5.48,9.17-10.97,18.33-16.54,27.45-5.51,9.02-11.11,17.99-16.7,26.96-6.02,9.65-12.1,19.28-18.13,28.93-4.58,7.31-9.15,14.63-13.7,21.97-2.47,3.99-4.88,8.02-7.32,12.03-.18,.3-.42,.56-.8,1.05-.23-.9,.19-1.36,.45-1.8,2-3.33,3.99-6.66,6.05-9.95,8.7-13.96,17.41-27.92,26.13-41.86,5.29-8.46,10.68-16.86,15.93-25.34,4.88-7.89,9.66-15.84,14.45-23.79,4.96-8.22,9.9-16.46,14.79-24.72,3.77-6.36,7.45-12.77,11.16-19.16,2.93-5.04,5.84-10.08,8.77-15.12,.15-.26,.39-.45,.59-.68l.4,.24Z"/></g></g></g></g></svg>