<?xml version="1.0" encoding="UTF-8"?><svg xmlns="http://www.w3.org/2000/svg" viewBox="0 0 67.49 94.46"><defs><style>.d{fill:#d4c2be;}.e{fill:#371c15;}</style></defs><g id="a"/><g id="b"><g id="c"><g><path class="d" d="M27.69,0c3.56,.64,7.15,1.1,10.66,1.95,7.09,1.72,14.14,3.6,21.18,5.51,2.06,.56,4.07,1.36,6.05,2.19,1.8,.75,2.2,1.42,1.75,3.31-.81,3.4-1.72,6.78-2.71,10.13-3.37,11.35-6.81,22.68-10.2,34.02-2.14,7.16-4.26,14.33-6.37,21.51-.97,3.29-1.86,6.61-2.81,9.91-.31,1.06-.66,2.11-1.08,3.13-.92,2.18-2.26,3.03-4.63,2.77-1.64-.18-3.28-.48-4.87-.92-7.87-2.14-15.72-4.34-23.57-6.53-1.54-.43-3.08-.85-4.58-1.36-1.21-.41-2.43-.88-3.56-1.47-2.76-1.42-3.39-2.87-2.6-5.86,1.54-5.87,3.02-11.77,4.71-17.6,4.48-15.43,9.04-30.84,13.63-46.24,.93-3.11,2.15-6.14,3.28-9.18,.34-.92,.75-1.82,1.25-2.66,1.05-1.76,2.42-2.44,4.5-2.6Z"/><path class="e" d="M61.98,15.85c-.34,1.68-.61,3.38-1.05,5.04-1.55,5.81-3.33,11.54-5.29,17.23-2.68,7.77-5,15.65-7.5,23.48-1.73,5.43-3.5,10.86-5.26,16.28-.17,.52-.37,1.04-.61,1.54-.72,1.47-1.51,1.93-3.12,1.49-4.9-1.35-9.79-2.74-14.65-4.2-3.82-1.14-7.61-2.37-11.39-3.64-1.33-.44-2.62-1.04-3.87-1.68-1.25-.64-1.66-1.77-1.34-3.12,.21-.89,.51-1.77,.78-2.64,4.89-15.95,9.78-31.89,14.69-47.83,1.06-3.46,2.17-6.9,3.31-10.34,.77-2.31,2.06-3.12,4.48-2.72,1.75,.29,3.48,.71,5.19,1.2,7.43,2.11,14.85,4.25,22.27,6.4,.59,.17,1.15,.43,1.7,.68,1.21,.55,1.79,1.45,1.63,2.83Z"/><path class="e" d="M19.31,82.9c-.02-2.5,1.74-4.26,4.3-4.3,2.26-.03,4.09,1.79,4.1,4.07,.01,2.4-1.9,4.32-4.32,4.34-2.2,.02-4.07-1.86-4.08-4.12Z"/></g></g></g></svg>