<svg xmlns="http://www.w3.org/2000/svg" viewBox="0 0 73.53 120.39"><defs><style>.cls-1{fill:#564d08;}.cls-2{fill:#e9674d;}.cls-3{fill:#fd836b;}</style></defs><g id="Layer_2" data-name="Layer 2"><g id="Layer_1-2" data-name="Layer 1"><path class="cls-1" d="M38.56,33c0-.82,0-1.41-.05-2A126.3,126.3,0,0,1,38.6,11.3c.16-1.54.42-3.07.67-4.6a2.63,2.63,0,0,1,.5-1.2,1.21,1.21,0,0,1,1-.36,1.33,1.33,0,0,1,.78.73,2.06,2.06,0,0,1,0,1.13,84.23,84.23,0,0,0-1,18.7c.07,2.21.22,4.42.34,6.63a8.47,8.47,0,0,0,.2,1c.68-.46,1.23-.79,1.74-1.18,3-2.34,6-4.69,9.06-7a14.25,14.25,0,0,1,1.74-1.26,1,1,0,0,1,1.45.39A1,1,0,0,1,55,25.59a10.27,10.27,0,0,1-.88.75l-10.23,8c-.17.13-.33.28-.67.57a7.9,7.9,0,0,0,1.19.19,87,87,0,0,0,16.49-1.65c1.25-.24,2.5-.48,3.76-.7a2.81,2.81,0,0,1,1.31-.08c.36.11.85.52.87.82a2.07,2.07,0,0,1-.58,1.22c-.13.18-.5.19-.77.24a118.47,118.47,0,0,1-18.09,2.45c-1.64.08-3.29,0-5.12,0,.14.58.25,1.1.41,1.61a34.11,34.11,0,0,0,7.71,12.86c.44.49.92,1,1.32,1.49.62.81.62,1.49,0,1.9s-1.23.16-1.74-.37c-4.31-4.49-7.83-9.47-9.65-15.51-.11-.37-.24-.73-.43-1.3a9.41,9.41,0,0,0-.75.95c-4.42,7.87-8.59,15.87-12.35,24.08Q19,80,11.5,97c-2.31,5.22-4.34,10.55-6.5,15.83-.79,2-1.55,3.91-2.35,5.86a6,6,0,0,1-.54,1,1.12,1.12,0,0,1-1.54.55c-.69-.35-.64-1-.44-1.59.07-.21.19-.4.27-.61,5.31-13.62,11.09-27,17.16-40.34C21.85,68.3,26,58.83,30.8,49.64c2.2-4.22,4.51-8.38,6.77-12.57.21-.38.4-.77.54-1.06C36,34,33.89,32.12,32,30.09a57.3,57.3,0,0,1-8.3-11,28.34,28.34,0,0,1-1.81-3.91c-.37-.95-.11-1.59.52-1.84s1.21.08,1.61,1c3,7,7.9,12.63,13.38,17.79A12.37,12.37,0,0,0,38.56,33Z"/><path class="cls-2" d="M28.11,16.53a4.49,4.49,0,0,1-2.8,3.26c-.61.25-1.22.52-1.84.74a4.57,4.57,0,0,1-6.06-3.06C16.26,13.84,19,9.81,22.62,9.68A5.62,5.62,0,0,1,28.11,16.53Z"/><path class="cls-3" d="M21.89,14c-1.22-.33-1.55-1.17-.9-1.73a4.79,4.79,0,0,1,2-1c.31-.06.9.39,1.08.75a1.19,1.19,0,0,1-.31,1.13A11.55,11.55,0,0,1,21.89,14Z"/><path class="cls-2" d="M67.24,39.13a4.94,4.94,0,0,1-3.69-3.6,5,5,0,0,1,1.33-5.18c3.05-3.14,7.07-2.15,8.33,2a5.19,5.19,0,0,1-1,5.41A5.06,5.06,0,0,1,67.24,39.13Z"/><path class="cls-3" d="M68.25,34.11c.31-1,.63-1.54,1.34-1.5s.91.67,1,1.31c0,.06,0,.11,0,.17,0,.68-.07,1.38-.74,1.71-.27.14-.94.09-1-.08A8.28,8.28,0,0,1,68.25,34.11Z"/><path class="cls-2" d="M46.4,7.22c-1.06,3.45-4,4.6-7.56,3.77a5.16,5.16,0,0,1-3.68-6.47C36,1.63,39.92-.63,42.82.16A5.65,5.65,0,0,1,46.4,7.22Z"/><path class="cls-3" d="M38.28,4.36a.88.88,0,0,1-.62-1.26,2.56,2.56,0,0,1,2-1.19,1,1,0,0,1,.86,1.49A2.32,2.32,0,0,1,38.28,4.36Z"/><path class="cls-2" d="M53.14,49a4.87,4.87,0,0,1,3,6.83c-1.48,2.92-4.62,4-7.26,2.38a4.27,4.27,0,0,1-1-.83,4.9,4.9,0,0,1-.15-5.88A4.92,4.92,0,0,1,53.14,49Z"/><path class="cls-3" d="M54.18,55c-.28,1-1.33,1.83-2,1.52s-.69-.79-.51-1.4c.31-1,1.15-1.7,1.88-1.55S54.39,54.22,54.18,55Z"/><path class="cls-2" d="M50,23a7,7,0,0,1,2.7-4.29,4.21,4.21,0,0,1,5.36,0c2,1.52,3.09,3.51,2.58,6.06a6.13,6.13,0,0,1-4.69,4.87c-3.25.92-6.43-2.1-6.11-5.7A7.75,7.75,0,0,1,50,23Z"/><path class="cls-3" d="M56.71,22.66c.18-.48.39-1.09,1.19-1,.61.09,1.05,1.12.86,1.93a1.16,1.16,0,0,1-1.33.94C56.8,24.37,56.47,23.58,56.71,22.66Z"/></g></g></svg>