<svg xmlns="http://www.w3.org/2000/svg" viewBox="0 0 139.58 103.05"><defs><style>.cls-1{fill:#4e4608;}</style></defs><g id="Layer_2" data-name="Layer 2"><g id="Layer_1-2" data-name="Layer 1"><path class="cls-1" d="M120.52,18.82c.39,1.17.81,2.21,1.09,3.29,1,3.78,2,7.54,2.79,11.36a19.21,19.21,0,0,1-.57,9.3c-.44,1.44-1,2.85-2.77,3.12a3.57,3.57,0,0,1-3.71-2,23.75,23.75,0,0,1-2.44-6,27.41,27.41,0,0,1,.37-12.15c.17-.8.31-1.61.56-2.93-.79.56-1.13.77-1.44,1C109,28.42,103.62,33,98.14,37.41c-2,1.6-2.54,3.27-2.11,5.86.94,5.56,1.52,11.19,2,16.81a17.89,17.89,0,0,1-.57,5.67,4.77,4.77,0,0,1-4.62,3.91,5.46,5.46,0,0,1-5.33-3.46,13.81,13.81,0,0,1-.61-7.69c.64-4.52,2.38-8.7,4-12.93A6.62,6.62,0,0,0,91.46,43L68.29,61c0,4.36-1.54,8.44-3.19,12.44A55.89,55.89,0,0,1,51.17,93.7,13.55,13.55,0,0,1,47,96.24c-2.2.85-3.69-.39-3.29-2.73a19.88,19.88,0,0,1,1.63-4.92c2.62-5.72,6.26-10.81,10-15.81a20.32,20.32,0,0,0,2.73-4.38l-9.34,6.32c-.72.49-1.48.92-2.17,1.45-2.45,1.88-5.15,3.3-7.35,5.67A89.25,89.25,0,0,1,21.65,96.91c-4.13,2.62-8.42,4.9-13.3,5.77a19.24,19.24,0,0,1-4.66.34C.41,102.8-.86,100.49.6,97.53A15.75,15.75,0,0,1,6.09,91.7a57.26,57.26,0,0,1,13.56-6.58c4.66-1.67,9.34-3.3,14.07-4.77,4.32-1.35,7.88-4,11.57-6.43C49.63,71,53.9,68,58.2,65.09a1.24,1.24,0,0,0,.5-.91c-.85.15-1.71.28-2.55.45-5.73,1.15-11.49,2-17.35,1.47a30.6,30.6,0,0,1-5.38-.94,9.42,9.42,0,0,1-3.22-1.63,4,4,0,0,1-.59-6,8.59,8.59,0,0,1,4.9-2.78,26.64,26.64,0,0,1,10.88-.44c3.85.65,7.66,1.57,11.46,2.46,2.45.58,4.9,1.23,7.3,2a3.57,3.57,0,0,0,3.61-.67c3.49-2.73,7.06-5.37,10.55-8.1,3.15-2.45,6.24-5,9.82-7.82-1.11,0-1.72-.08-2.32-.05-6.28.32-12.54.18-18.62-1.6a23.78,23.78,0,0,1-4.74-2.08,3.26,3.26,0,0,1,1.12-6.16A20,20,0,0,1,68.74,32,87.84,87.84,0,0,1,78,33.37c5.45,1.12,10.86,2.4,16.62,3.69L113.4,21.47l-.19-.55c-.89,0-1.79,0-2.68,0-6.62.33-13-.34-18.85-3.89a19.85,19.85,0,0,1-3.56-2.58c-2-2-1.62-4.23.93-5.45a11.2,11.2,0,0,1,7.12-1,51.47,51.47,0,0,1,8.77,2.41c3.54,1.41,6.9,3.26,10.34,4.94,1,.49,2,1,3.13,1.59.7-.56,1.38-1.08,2-1.64l15.85-14A7.25,7.25,0,0,1,137.91.1a1.57,1.57,0,0,1,1.41.15,1.45,1.45,0,0,1,.15,1.39,7.22,7.22,0,0,1-1.55,1.72Q130.41,10,122.86,16.65C122.09,17.34,121.34,18.05,120.52,18.82Z"/></g></g></svg>