<svg xmlns="http://www.w3.org/2000/svg" viewBox="0 0 163.08 103.98"><defs><style>.cls-1{fill:#746c21;}.cls-2{fill:#564d08;}</style></defs><g id="Layer_2" data-name="Layer 2"><g id="Layer_1-2" data-name="Layer 1"><path class="cls-1" d="M99,36.25a6.68,6.68,0,0,1-3.14-6.6,5.22,5.22,0,0,1,1.68-3.07A9.5,9.5,0,0,1,103.14,24a17.68,17.68,0,0,1,8.6,1.2,96.73,96.73,0,0,1,11.18,5.53c.32.17.71.58.71.87a1.25,1.25,0,0,1-.76.82c-5.77,1.88-11.44,4.2-17.58,4.69a22.42,22.42,0,0,1-4.09-.14A11.46,11.46,0,0,1,99,36.25Z"/><path class="cls-1" d="M121.61,99.24c-1.54-.9-3.15-1.7-4.6-2.74a16.79,16.79,0,0,1-2.82-2.77A6.68,6.68,0,0,1,112.75,89c.09-2.45,2.76-4.87,5.51-5.08a6.57,6.57,0,0,1,5.38,2.26,17.9,17.9,0,0,1,3.35,5c1.25,2.75,2.4,5.54,3.59,8.32.47,1.09,1,2.16,1.42,3.27a1.27,1.27,0,0,1-.09,1.11,1.24,1.24,0,0,1-1.1,0q-3-1.38-5.93-2.88c-1.1-.56-2.14-1.24-3.2-1.86Z"/><path class="cls-1" d="M152.83,64.56l6,4.53,2.94,2.25a5.18,5.18,0,0,1,.85.68c.22.26.56.74.46.89a1.65,1.65,0,0,1-1,.59,5.77,5.77,0,0,1-1.5.1c-4.62-.09-9.24-.15-13.85-.35a15.46,15.46,0,0,1-4.42-.85,6.17,6.17,0,0,1-3.93-7.05,4.4,4.4,0,0,1,2.85-3.26,8.49,8.49,0,0,1,4.06-.49C147.36,61.83,149.53,62.62,152.83,64.56Z"/><path class="cls-1" d="M69.63,7.9a6,6,0,0,1,4-3.11,8.94,8.94,0,0,1,4.48,0,18.7,18.7,0,0,1,3.76,1.27c2.78,1.39,5.49,2.92,8.2,4.44.35.2.79.67.77,1s-.52.75-.89.86c-4.16,1.26-8.3,2.56-12.51,3.63a13.44,13.44,0,0,1-4.48.11A3.9,3.9,0,0,1,69.47,13C68.84,11.13,68.71,9.3,69.63,7.9Z"/><path class="cls-1" d="M140.73,57.8c-3.24-1.74-2.84-6-.8-7.72a7.87,7.87,0,0,1,4.49-1.85,16.09,16.09,0,0,1,6.5.81c3.59,1.11,7.15,2.29,10.72,3.44a2.92,2.92,0,0,1,.63.27.6.6,0,0,1,0,1.1,3.59,3.59,0,0,1-.86.41c-2.2.78-4.38,1.66-6.62,2.29-2.81.8-5.67,1.49-8.54,2.06A7,7,0,0,1,140.73,57.8Z"/><path class="cls-1" d="M98.32,83c1.58-3,5.76-2.71,7.46-.58a11.63,11.63,0,0,1,2.19,5,29.84,29.84,0,0,1,.42,8.06c-.1,1.64-.26,3.28-.41,4.92a2.91,2.91,0,0,1-.19.94.61.61,0,0,1-.92.27,2,2,0,0,1-.42-.34c-2.14-2.38-4.33-4.72-6.4-7.16a11.26,11.26,0,0,1-2.53-5A8.89,8.89,0,0,1,98.32,83Z"/><path class="cls-1" d="M34.47,56.38a4.87,4.87,0,0,1,5.15-2.71,5.27,5.27,0,0,1,4.75,3.78,8.16,8.16,0,0,1,.27,4.07c-.32,1.71-.74,3.39-1.15,5.08-.49,2-1,4.08-1.51,6.12a1.7,1.7,0,0,1-.19.65c-.26.34-.54.78-.9.87s-.67-.4-.86-.72c-1.54-2.55-3-5.11-4.55-7.67a13.59,13.59,0,0,1-1.65-6.32A6.17,6.17,0,0,1,34.47,56.38Z"/><path class="cls-1" d="M68.3,69.74c-2.46-1.49-4.24-3.28-4.53-6.16a4.62,4.62,0,0,1,2.07-4.75,5.19,5.19,0,0,1,5.7-.38,10.72,10.72,0,0,1,3.72,3.76,22.11,22.11,0,0,1,2.57,6.61c.47,1.86,1.06,3.68,1.55,5.53a3.51,3.51,0,0,1,0,1,3.27,3.27,0,0,1-1.11-.19c-1.1-.65-2.11-1.46-3.23-2.07-1.76-1-3.58-1.83-5.37-2.73C69.16,70.13,68.66,69.91,68.3,69.74Z"/><path class="cls-1" d="M61.27,75.52c-1.85-1.09-3.76-2.09-5.54-3.29a9.26,9.26,0,0,1-3.34-4.1c-.8-1.9-1.13-3.9.33-5.58a5.64,5.64,0,0,1,5.54-1.62,5.25,5.25,0,0,1,3.34,2.23,17.72,17.72,0,0,1,2.61,5.26c.71,2.23,1.35,4.47,2,6.7.17.57.4,1.12.6,1.68s.6,1.07,0,1.51-1-.06-1.5-.32c-.87-.5-1.72-1-2.59-1.56l-1.54-.9Z"/><path class="cls-1" d="M91.2,20.61c.86.44,1.73.85,2.56,1.33a.92.92,0,0,1,.45.72c0,.23-.4.41-.64.59a.77.77,0,0,1-.26.07c-3.23.65-6.46,1.32-9.69,1.93a11.79,11.79,0,0,1-6.23-.38,4.24,4.24,0,0,1-2.51-2.38c-.33-.73-.28-1.6-.87-2.26-.14-.16,0-.7.21-1a4.91,4.91,0,0,1,3-2.27,9,9,0,0,1,5.54.11c2.25.75,4.43,1.7,6.63,2.59.63.26,1.22.63,1.82.95Z"/><path class="cls-2" d="M41.32,42.69c-.15.54-.26.82-.32,1.12a52.39,52.39,0,0,0-.63,17.35c.17,1.13.27,2.28.38,3.41a6.17,6.17,0,0,1,0,1,1,1,0,0,1-.84,1,1,1,0,0,1-1.16-.73,2.51,2.51,0,0,1-.15-.67c-.28-2.64-.64-5.27-.81-7.92A56.67,56.67,0,0,1,39.62,40a2.38,2.38,0,0,0-.13-1.58C37.3,32.8,35.1,27.17,33,21.52a2.26,2.26,0,0,0-1.19-1.22L15.28,10.64,1.53,2.57A6.85,6.85,0,0,1,.39,1.81,1,1,0,0,1,.18.44,1,1,0,0,1,1.39.08,7,7,0,0,1,2.61.69q16.32,9.54,32.62,19.1l4,2.34c.62-.42,1.12-.73,1.6-1.08A59,59,0,0,1,63.69,11.4c3.53-.75,7.13-1.21,10.7-1.73a17.55,17.55,0,0,1,3.16-.06c.88,0,1.34.45,1.36,1.05s-.51,1.1-1.45,1.09c-5.93-.06-11.62,1.36-17.33,2.7-.26.06-.51.16-1,.32.44.21.68.35.93.45a66.79,66.79,0,0,0,17.82,4.37c1.08.08,1.59.51,1.52,1.19s-.63,1-1.7,1a53.5,53.5,0,0,1-12-2.33c-2.54-.77-5.05-1.65-7.54-2.55a7.7,7.7,0,0,1-1.71-1.19C52.62,16.74,45,20.18,41.66,23.29a7.61,7.61,0,0,0,.76.5C47,26.21,51.56,28.66,56.16,31c3.7,1.9,7.46,3.7,11.19,5.57a2.7,2.7,0,0,0,2.31.11,113.71,113.71,0,0,1,15.72-4.94,106.35,106.35,0,0,1,23.46-2.45,13.65,13.65,0,0,1,1.91.15,1,1,0,0,1,.9,1.17,1,1,0,0,1-1,.89c-.54,0-1.09,0-1.64,0A96.52,96.52,0,0,0,74.6,37.23l-3.23,1.18c.75.4,1.24.69,1.76.92,6.6,3,13.18,6,19.83,8.81,9.17,3.94,18.44,7.62,27.85,11a2.15,2.15,0,0,0,1.68-.09c1.69-.7,3.45-1.22,5.19-1.8a90.88,90.88,0,0,1,19.55-4.33c.64-.06,1.28-.12,1.91-.15a.92.92,0,0,1,1,.8,1,1,0,0,1-.67,1.2,6.06,6.06,0,0,1-1.35.24c-7.63.66-14.95,2.69-22.18,5.07-.2.07-.39.19-.77.37a9.75,9.75,0,0,0,1.08.54,228.48,228.48,0,0,0,23.36,6.65,7.43,7.43,0,0,1,1.33.35,1,1,0,0,1,.66,1.22,1,1,0,0,1-1.13.79,7.15,7.15,0,0,1-1.21-.22,245.85,245.85,0,0,1-26.88-7.81c-9-3.15-18-6.62-26.78-10.31-.16-.07-.33-.12-.8-.28.29.63.46,1.07.67,1.48a152.3,152.3,0,0,0,9.46,16.26c3.28,5,6.59,9.91,10,14.78a62.89,62.89,0,0,0,8.53,9.84l.31.28a1,1,0,1,1-1.36,1.6,10.7,10.7,0,0,1-1.34-1.17,73.28,73.28,0,0,1-8.89-10.62c-2.94-4.26-5.78-8.58-8.67-12.88-.22-.34-.45-.67-.83-1.24a9.64,9.64,0,0,0-.23,1.16A46.86,46.86,0,0,0,103,82c.55,3.16,1.24,6.29,1.86,9.44,0,.22.2.48.13.66-.13.36-.3.83-.59,1a1.29,1.29,0,0,1-1.1-.2,1.93,1.93,0,0,1-.57-1.05c-1.51-6.67-2.89-13.35-2.56-20.25.08-1.46.15-2.93.28-4.38a2.48,2.48,0,0,0-.39-1.68A158.23,158.23,0,0,1,92.1,51a3.21,3.21,0,0,0-1.74-1.6C84.7,46.91,79,44.44,73.43,41.83q-8.72-4.06-17.3-8.4c-5-2.51-9.91-5.17-14.85-7.78-1.5-.8-3-1.63-4.46-2.44-.26-.15-.54-.27-.81-.4l-.4.21a3.57,3.57,0,0,1,.45.67A205.4,205.4,0,0,0,47.86,51a3.47,3.47,0,0,0,2.31,1.89A44.84,44.84,0,0,1,63,58.4c2.82,1.88,5.46,4,8.17,6a2.08,2.08,0,0,1,.77.93,1,1,0,0,1-1.27,1.32,3.42,3.42,0,0,1-1.11-.77,60.48,60.48,0,0,0-8.91-6.42,48.13,48.13,0,0,0-10.13-4.21,3.74,3.74,0,0,0,.25.81A63.9,63.9,0,0,0,59.6,68.15l.1.09c.6.66.71,1.26.33,1.7a1.17,1.17,0,0,1-1.82-.13c-1.28-1.37-2.55-2.76-3.69-4.24A115.09,115.09,0,0,1,42.35,44.89C42,44.23,41.74,43.57,41.32,42.69Z"/></g></g></svg>