<svg xmlns="http://www.w3.org/2000/svg" viewBox="0 0 93.18 188.66"><defs><style>.cls-1{fill:#564d08;}</style></defs><g id="Layer_2" data-name="Layer 2"><g id="Layer_1-2" data-name="Layer 1"><path class="cls-1" d="M51.77,70.27a3.64,3.64,0,0,0,.52-.36c3.22-3.3,7.26-5.23,11.46-6.88,2.21-.87,4.41-1.77,6.64-2.6a31.91,31.91,0,0,0,11.52-8A51.22,51.22,0,0,0,90,41.27c.34-.6.67-1.22,1-1.8a7.49,7.49,0,0,1,.87-.88,7.53,7.53,0,0,1,0,1c-.35,1.56-.65,3.13-1.08,4.67a28.39,28.39,0,0,1-3.71,8.09,134.79,134.79,0,0,1-8.52,11.9c-.66.79-1.36,1.56-2.07,2.32A18.78,18.78,0,0,1,65.8,72.26a58.39,58.39,0,0,1-11.35.88c-1.11,0-2.23-.22-3.51-.36-2,7.37-3.88,14.82-5.39,22.52a2.65,2.65,0,0,0,.53-.25A22.41,22.41,0,0,1,54.73,90c4.94-1.8,9.91-3.55,14.82-5.45a63.64,63.64,0,0,0,6.8-3.18A39.39,39.39,0,0,0,88.64,71c.65-.8,1.28-1.63,1.93-2.44.27-.34.59-.71,1.08-.41s.28.67.15,1c0,.13-.07.25-.12.37a91.76,91.76,0,0,1-9.22,17.65A31.43,31.43,0,0,1,69.37,98.25,35.16,35.16,0,0,1,59,101c-2,.23-4.05.35-6.07.5a14.41,14.41,0,0,1-6.83-1.15c-.43-.18-.88-.31-1.46-.51-1.55,7.78-2.7,15.53-3.72,23.49a4.26,4.26,0,0,0,.56-.47,15.17,15.17,0,0,1,5.18-4,78.37,78.37,0,0,1,11.25-4.27,117.78,117.78,0,0,0,12.36-4.65,46.88,46.88,0,0,0,14.5-10.28c.59-.63,1.2-1.24,1.84-1.82.16-.14.61-.23.67-.15a1.18,1.18,0,0,1,.21.78,1.64,1.64,0,0,1-.35.68,129.75,129.75,0,0,1-16.42,21,58.74,58.74,0,0,1-16.08,11.22,12.76,12.76,0,0,1-7.92,1.34c-2.23-.37-3.94-1.68-5.63-3-.23-.18-.45-.38-.84-.71-.81,6.36-1.37,12.56-1.77,19l1.09-.79a15.24,15.24,0,0,1,5-2c3.09-.81,6.21-1.53,9.24-2.52a35.17,35.17,0,0,0,14.3-9.31A70.25,70.25,0,0,0,75,124.7a5.25,5.25,0,0,1,.83-1,.5.5,0,0,1,.85.38,3.21,3.21,0,0,1-.15,1,62.47,62.47,0,0,1-8.14,18.25,52.73,52.73,0,0,1-7.78,9.34,33.86,33.86,0,0,1-2.73,2.18,12.73,12.73,0,0,1-10.21,2.18,13.86,13.86,0,0,1-6.24-2.7c-1-.77-2-1.5-3.13-2.34-.07.9-.16,1.77-.2,2.63q-.56,12.24-.29,24.49c.06,2.64.06,5.28.09,7.91a3.94,3.94,0,0,1,0,.77c-.09.45-.34.92-.82.84a1.5,1.5,0,0,1-.94-.72,3.05,3.05,0,0,1-.24-1.38c0-8.08-.1-16.16-.07-24.24,0-2.94.23-5.87.35-8.81,0-.5,0-1,0-1.59-.3,0-.51-.06-.71,0a19.17,19.17,0,0,1-12.73-4.29,23,23,0,0,1-6-6.9c-2.17-3.78-4.53-7.46-6.68-11.25a102,102,0,0,1-8.57-20.66c-.45-1.48-.89-3-1.34-4.46a3,3,0,0,1-.17-.76,2.57,2.57,0,0,1,.2-.69c.26.11.58.14.75.33a4.93,4.93,0,0,1,.58,1,103.56,103.56,0,0,0,20.52,26.86c2.13,2,4.31,4,6.45,6A30.18,30.18,0,0,1,36,147.22a4.19,4.19,0,0,0,.38.59c.63-6.67,1.24-13.18,1.86-19.76a1.4,1.4,0,0,0-.45-.1,11.91,11.91,0,0,1-7.93-2.29,26.59,26.59,0,0,1-8.39-9c-1.94-3.37-4.09-6.61-6.07-10a58.21,58.21,0,0,1-8-23.61c-.28-2.53-.5-5.07-.72-7.61,0-.44-.19-1.07.5-1.12s.57.58.66,1c1.52,6.88,4.71,13,8.2,19.08a84.15,84.15,0,0,0,10.91,14.29,67.65,67.65,0,0,1,7.8,9.67c1.2,1.94,2.24,4,3.35,6l.46.79c1.33-8.59,2.62-17,3.91-25.33-1.85-.84-3.7-1.65-5.53-2.5a20.75,20.75,0,0,1-8.24-7.11,49.15,49.15,0,0,1-6.41-13.24,72.46,72.46,0,0,1-3.54-15.76c-.3-3.31-.29-6.65-.34-10,0-1.59.15-3.19.25-4.79,0-.6.09-1.2.15-1.8s0-1.07.68-1,.56.56.64,1c.42,2.07.76,4.16,1.28,6.21a57.92,57.92,0,0,0,8.4,19.38A73.54,73.54,0,0,1,38.53,87c1,2.75,2.31,5.39,3.5,8.08.24.54.56,1.05,1,1.89.93-4.22,1.76-8.15,2.68-12s2-7.88,3-11.87c-3.65-1.84-6.27-4.87-8.84-8a18.05,18.05,0,0,1-4-8.86,69.17,69.17,0,0,1,.25-24,35.74,35.74,0,0,1,4.2-11.51,11,11,0,0,1,1.15-1.56.76.76,0,0,1,.68-.14.79.79,0,0,1,.37.6,6.2,6.2,0,0,1-.2,1.28,93.24,93.24,0,0,0-2.11,16.81A28.66,28.66,0,0,0,41,46.1a27.94,27.94,0,0,0,1.85,4.68c.63,1.32,1.45,2.54,2.21,3.8A26.53,26.53,0,0,1,48.55,65.2c.21,1.75.38,3.5.59,5.53a5.13,5.13,0,0,0,.41-.77c1.72-5.43,3.45-10.86,5.13-16.3a3.33,3.33,0,0,0,0-1.63c-1.47-6.94-.84-13.55,2.8-19.78a50.74,50.74,0,0,1,9.08-11.43,235.73,235.73,0,0,1,22-18.54c.73-.53,1.5-1,2.26-1.51A9.58,9.58,0,0,1,92,.16c.41-.18.92-.3,1.14.18a1.25,1.25,0,0,1-.17,1A26.91,26.91,0,0,1,90.79,4,45.34,45.34,0,0,0,80.42,20.67c-.54,1.5-1.2,3-1.78,4.45a52.47,52.47,0,0,1-8.25,13.72c-2.5,3.09-5,6.16-7.56,9.22a16.81,16.81,0,0,1-5.21,4.61,1.41,1.41,0,0,0-.64.74Q54.33,61.68,51.71,70C51.69,70,51.74,70.1,51.77,70.27Z"/></g></g></svg>