<svg xmlns="http://www.w3.org/2000/svg" viewBox="0 0 129.04 81.65"><defs><style>.cls-1{fill:#564d08;}</style></defs><g id="Layer_2" data-name="Layer 2"><g id="Layer_1-2" data-name="Layer 1"><path class="cls-1" d="M48.4,49.52c-3.86,2.63-7.73,5.26-11.57,7.93a6.36,6.36,0,0,0-1.13,1.41c-3.89,5-7.65,10.13-12.91,13.88A49.34,49.34,0,0,1,4,81.36c-1.35.28-2.91.75-3.72-.84s.46-2.6,1.39-3.61c3.59-3.88,8-6.7,12.5-9.31,6.91-4,14.06-7.6,21-11.61,3.66-2.13,7-4.77,10.52-7.2,0,0,0-.14-.09-.42-.53.06-1.09.09-1.64.19a55.5,55.5,0,0,1-19.19.53,61.71,61.71,0,0,1-7.32-1.84,7.29,7.29,0,0,1-2.47-1.39,2.06,2.06,0,0,1,0-3.52,5.6,5.6,0,0,1,2.09-1,34.55,34.55,0,0,1,4.62-.78c8.65-.75,17.2-.38,25.46,2.66a30.78,30.78,0,0,0,4,1.21A2.78,2.78,0,0,0,53,44.09C58.1,40.83,63.19,37.5,68.64,34a14.51,14.51,0,0,0-1.83-.54C60.38,32.59,55,29.54,50,25.61a9.66,9.66,0,0,1-2.32-2.77c-1.33-2.37,0-4.73,2.77-4.67a10.8,10.8,0,0,1,4.54,1,102.48,102.48,0,0,1,10,5.63c2.82,1.85,5.39,4.08,8.17,6.23C79.71,27,86.36,23,93.42,18.66c-1-.15-1.53-.25-2.08-.3A54.63,54.63,0,0,1,73.4,14.12a16.91,16.91,0,0,1-3.48-2.24,2.2,2.2,0,0,1-.73-2.59,2.26,2.26,0,0,1,2.27-1.45,18.35,18.35,0,0,1,3.63.22,89.57,89.57,0,0,1,20.53,6.71,25.32,25.32,0,0,1,2.21,1.33C107.91,10.62,118.05,5,128.48,0c1.2,1.46.25,2-.57,2.45-2,1.09-4,2.08-6,3.14-7.27,3.9-14.53,7.85-21.84,11.69-1.42.74-1.57,1.57-1.53,3.08.16,6.07.16,12.16,0,18.23a15.5,15.5,0,0,1-1.45,5.21,3,3,0,0,1-3.24,2.14c-1.63-.22-2.31-1.47-2.66-2.87A20.92,20.92,0,0,1,91.48,33c.83-3.38,1.92-6.69,2.88-10,.19-.64.3-1.31.59-2.57-2.13,1.18-3.85,2.06-5.5,3.05C85.29,26,81.22,28.65,77,31.06c-2,1.11-2.27,2.54-2,4.53a81.56,81.56,0,0,1,.77,9.08c0,6-2,11.43-5,16.49a9.52,9.52,0,0,1-2,2.34c-2,1.69-3.94,1-4.21-1.67a17.83,17.83,0,0,1,.29-4.66,72.62,72.62,0,0,1,6.33-19.81c.41-.84.92-1.64,1.38-2.46l-.53-.37a6.73,6.73,0,0,0-1.06.44c-5.1,3.32-10.17,6.68-15.31,9.94A3.07,3.07,0,0,0,54,47.62c-.09,1.82-.32,3.64-.51,5.45a31.17,31.17,0,0,1-7.51,17.46c-2.2,2.57-4.65,4.92-7,7.31a6.92,6.92,0,0,1-2.16,1.42c-1.7.72-2.78-.18-2.36-2a12.31,12.31,0,0,1,1.24-3.14c4-7.43,8-14.82,12.08-22.23.37-.66.75-1.32,1.13-2Z"/></g></g></svg>