<svg xmlns="http://www.w3.org/2000/svg" viewBox="0 0 166.37 104.09"><defs><style>.cls-1{fill:#746c21;}.cls-2{fill:#564d08;}</style></defs><g id="Layer_2" data-name="Layer 2"><g id="Layer_1-2" data-name="Layer 1"><path class="cls-1" d="M48.52,102.46c3.43-2.36,7-4.55,10.06-7.49A21.8,21.8,0,0,0,64,87.23a11.64,11.64,0,0,0-.31-9.29,26.6,26.6,0,0,0-1.8-3.27A1.33,1.33,0,0,0,60,74c-2.21,1-4.42,2-6.56,3.09a9.5,9.5,0,0,0-3.47,3.37A30.24,30.24,0,0,0,46,89.63a71,71,0,0,0-2.11,12.64c0,.15,0,.3,0,.45,0,1.2.57,1.65,1.69,1.18S47.52,103,48.52,102.46Z"/><path class="cls-1" d="M151.63,42.52c-.48-.64-.92-1.31-1.43-1.91a2.85,2.85,0,0,0-3.61-.85A14.89,14.89,0,0,0,138.47,48,23,23,0,0,0,137,58.68a53,53,0,0,0,2.67,12.55c.69,2.07,1.23,2.19,2.65.62a42.46,42.46,0,0,0,10.52-20A13.41,13.41,0,0,0,151.63,42.52Z"/><path class="cls-1" d="M106.6,64.24c-1.49-2.68-1.63-2.76-4.4-2a12.55,12.55,0,0,0-9.33,8.66,34.89,34.89,0,0,0-1.64,11c0,3.13.15,6.27.24,9.4a3.29,3.29,0,0,0,.13.88c.31,1,.85,1.19,1.68.62A33.91,33.91,0,0,0,96,90.7a43.18,43.18,0,0,0,9.54-10.45,20.91,20.91,0,0,0,2.78-8.41A11.89,11.89,0,0,0,106.6,64.24Z"/><path class="cls-1" d="M92.29,39.24c2.33-1.25,2.47-1.62,1.46-4.11-3.22-7.92-9.29-11.68-17.53-12.28A27.51,27.51,0,0,0,64.06,25c-1.56.61-3.08,1.32-4.61,2-1.08.49-1.23,1-.46,1.94,3.49,4.38,7.36,8.32,12.64,10.47a27.1,27.1,0,0,0,18.9.58A15.3,15.3,0,0,0,92.29,39.24Z"/><path class="cls-1" d="M50.67,51.82a11.41,11.41,0,0,0-7.17-5.76,24.14,24.14,0,0,0-7.9-1.29A72.46,72.46,0,0,0,17.4,47a9.3,9.3,0,0,0-1.54.52,1,1,0,0,0-.37,1.68,4.83,4.83,0,0,0,.86.83c3.48,2.66,7,5.35,10.46,8a24.86,24.86,0,0,0,13.46,4.76,14.37,14.37,0,0,0,11.11-3.57,2.8,2.8,0,0,0,.87-3.33C51.75,54.5,51.2,53.17,50.67,51.82Z"/><path class="cls-1" d="M125.3,8.16c-3.36-6.43-8.93-8.51-15.67-8.11A33.42,33.42,0,0,0,97.55,3.33c-1.83.85-3.58,1.89-5.34,2.9-1.27.73-1.31,1.3-.08,2.18a48.58,48.58,0,0,0,12.07,6.46,46.61,46.61,0,0,0,6,1.75,19.94,19.94,0,0,0,13.4-1.85,12.89,12.89,0,0,0,2.46-1.87,1.69,1.69,0,0,0,.44-2.15C126.08,9.89,125.7,9,125.3,8.16Z"/><path class="cls-1" d="M14.77,70.6a69.58,69.58,0,0,0-11,8.32c-1,.93-2,1.92-2.94,2.92A3.93,3.93,0,0,0,.1,83,.82.82,0,0,0,.47,84.1a12.42,12.42,0,0,0,1.5.66,29.78,29.78,0,0,0,9.2,1.58,45.75,45.75,0,0,0,12.51-1.09A12,12,0,0,0,30,81.37a16.51,16.51,0,0,0,3.53-6.13c.47-1.63.31-2.1-1.14-3s-3.13-1.73-4.69-2.61A10.84,10.84,0,0,0,18,69.19C16.73,69.68,15.53,70.26,14.77,70.6Z"/><path class="cls-2" d="M61.93,62.47c-2.88,1-5.76,2-8.63,3.09-5.16,1.87-10.29,3.78-15.46,5.6-4.43,1.56-8.89,3-13.33,4.52l-9.42,3.15a3.21,3.21,0,0,0-.8.36,1,1,0,0,0-.37,1.31,1.52,1.52,0,0,0,1,.67,5.29,5.29,0,0,0,1.72-.39c4.22-1.4,8.45-2.77,12.64-4.24q16-5.62,32-11.33c.87-.31,1.74-.65,2.86-1.07-.19.74-.27,1.26-.45,1.75A140.68,140.68,0,0,1,50.13,93.8a5.76,5.76,0,0,0-.59,1A1.07,1.07,0,0,0,50,96.26,1,1,0,0,0,51.41,96c.44-.59.87-1.2,1.27-1.82a128.86,128.86,0,0,0,8.76-16.55q2-4.48,3.77-9.07c.68-1.75,1.15-3.58,1.67-5.26l39.2-17.95a2,2,0,0,1,.1.47c-.53,6.76-1.18,13.52-3.44,19.95C101,70.73,99,75.58,97,80.48c-.36.92-.79,1.82-1.18,2.73a7.49,7.49,0,0,0-.43,1.11c-.23.84,0,1.41.56,1.67s1.23,0,1.6-.89c2.08-5,4.19-10.08,6.2-15.15,3.24-8.19,4.31-16.82,4.81-25.56a3.84,3.84,0,0,1,.08-.42c13-6.76,26.19-13.42,38.67-21.66.09.67.17,1.15.22,1.63a74.19,74.19,0,0,1-1.26,22.16c-1.29,6.12-2.91,12.18-4.38,18.27a8.48,8.48,0,0,0-.21.87,1.07,1.07,0,0,0,.77,1.28,1.05,1.05,0,0,0,1.34-.62,3.65,3.65,0,0,0,.32-.83c2.6-9.4,5.08-18.82,5.82-28.62a83.35,83.35,0,0,0-.2-14c-.05-.49-.09-1-.14-1.58,1.3-.87,2.61-1.74,3.9-2.63l11.69-8.11c.2-.14.41-.27.6-.43A1.24,1.24,0,0,0,166.16,8a1.21,1.21,0,0,0-1.73-.16c-.83.54-1.62,1.14-2.43,1.7-4.24,2.9-8.5,5.78-12.71,8.72a2,2,0,0,1-2.41.08,109.62,109.62,0,0,0-34-11c-4-.55-8-.55-12-.79a6.11,6.11,0,0,0-1.48.1,1,1,0,0,0-.86,1.06,1,1,0,0,0,.83,1.09,2.89,2.89,0,0,0,.88.08C112.64,8.56,124.5,11.43,136,16c2.59,1,5.13,2.16,7.69,3.27.67.29,1.31.66,2.21,1.11l-3.28,2.15c-6.52,4.22-13.35,7.91-20.19,11.57q-6.72,3.6-13.52,7.08c-2.38,1.21-1.61,1.17-3.92-.07A124.39,124.39,0,0,0,79.38,31a75.15,75.15,0,0,0-11.7-2.2,4.24,4.24,0,0,0-1.18,0,.92.92,0,0,0-.84,1.05,2.05,2.05,0,0,0,.71,1,1.62,1.62,0,0,0,.85.21c9.82,1.05,19.1,4.11,28.16,8,2.56,1.09,5.05,2.35,7.57,3.55.39.19.74.45,1.31.8-1.94.94-3.69,1.8-5.45,2.63-3.49,1.65-7,3.33-10.47,4.91C81,54.25,73.71,57.47,66.4,60.71a2.15,2.15,0,0,1-2,0c-11.22-5.17-23-8.18-35.16-10a10.29,10.29,0,0,0-1.47-.12,1,1,0,0,0-1,.91,1,1,0,0,0,.67,1.2,7.06,7.06,0,0,0,1.45.31A140.1,140.1,0,0,1,55.5,59.49c2.19.77,4.32,1.71,6.48,2.56Z"/></g></g></svg>