<svg xmlns="http://www.w3.org/2000/svg" viewBox="0 0 75.39 132.72"><defs><style>.cls-1{fill:#564d08;}</style></defs><g id="Layer_2"><g id="Layer_1-2"><path class="cls-1" d="M45.55,82.91c2.45,4,4.88,8,7.36,11.94a6.27,6.27,0,0,0,1.35,1.2c4.83,4.12,9.75,8.14,13.24,13.57a49.42,49.42,0,0,1,7.69,19.22c.21,1.36.61,2.94-1,3.67s-2.57-.58-3.53-1.57c-3.7-3.77-6.3-8.32-8.69-12.94-3.67-7.09-6.9-14.41-10.57-21.5-1.95-3.76-4.43-7.26-6.68-10.87a2.55,2.55,0,0,0-.42.08c0,.53,0,1.09.11,1.65A55.72,55.72,0,0,1,44,106.55a63.82,63.82,0,0,1-2.2,7.22,7.21,7.21,0,0,1-1.51,2.4,2,2,0,0,1-3.5-.21,5.51,5.51,0,0,1-.89-2.14,34.71,34.71,0,0,1-.56-4.65c-.33-8.68.46-17.2,3.9-25.31a28.3,28.3,0,0,0,1.4-3.9,2.82,2.82,0,0,0-.25-1.89c-3-5.28-6.09-10.52-9.36-16.14a14.31,14.31,0,0,0-.63,1.8c-1.14,6.39-4.45,11.64-8.62,16.42a9.82,9.82,0,0,1-2.88,2.19c-2.43,1.21-4.72-.27-4.53-3a10.87,10.87,0,0,1,1.2-4.49,102,102,0,0,1,6.11-9.66c2-2.73,4.34-5.18,6.62-7.85L16.92,36.44c-.19,1-.32,1.51-.39,2.06a54.78,54.78,0,0,1-5.11,17.71A17.21,17.21,0,0,1,9,59.57a2.19,2.19,0,0,1-2.62.61,2.27,2.27,0,0,1-1.34-2.34,18.91,18.91,0,0,1,.39-3.61,89.53,89.53,0,0,1,7.71-20.18,22.08,22.08,0,0,1,1.43-2.14C9.61,21.57,4.48,11.17,0,.51c1.52-1.13,2-.16,2.42.68,1,2,1.88,4.11,2.85,6.16,3.53,7.46,7.13,14.89,10.6,22.38.67,1.46,1.49,1.65,3,1.68,6.07.14,12.15.44,18.2.92A15.5,15.5,0,0,1,42.22,34a3,3,0,0,1,2,3.34c-.3,1.61-1.59,2.24-3,2.51a21,21,0,0,1-10-.82c-3.33-1-6.58-2.24-9.87-3.37-.64-.21-1.3-.36-2.54-.71,1.07,2.19,1.87,3.95,2.78,5.64,2.32,4.28,4.79,8.48,7,12.81,1,2,2.43,2.39,4.43,2.25a79.08,79.08,0,0,1,9.1-.32c6,.24,11.32,2.52,16.23,5.84a9.77,9.77,0,0,1,2.24,2.16c1.58,2.08.75,4-1.88,4.11A17.43,17.43,0,0,1,54,67a72.72,72.72,0,0,1-19.48-7.29c-.82-.45-1.59-1-2.39-1.5l-.39.52a6.18,6.18,0,0,0,.39,1.07C35.18,65,38.3,70.26,41.3,75.55a3.06,3.06,0,0,0,2.63,1.72c1.81.18,3.61.5,5.42.78A31.19,31.19,0,0,1,66.42,86.4c2.45,2.32,4.69,4.88,7,7.39A7.05,7.05,0,0,1,74.69,96c.64,1.73-.32,2.76-2.11,2.25a12.36,12.36,0,0,1-3.08-1.38Q58.67,90.34,47.89,83.73c-.65-.4-1.28-.82-1.93-1.22Z"/></g></g></svg>