<svg xmlns="http://www.w3.org/2000/svg" viewBox="0 0 97.85 143.19"><defs><style>.cls-1{fill:#4e4608;}</style></defs><g id="Layer_2" data-name="Layer 2"><g id="Layer_1-2" data-name="Layer 1"><path class="cls-1" d="M12,119.26c-.77-1-1.52-1.8-2.15-2.71-2.2-3.22-4.5-6.39-6.5-9.74A19.06,19.06,0,0,1,.67,97.89c-.08-1.51,0-3,1.54-3.88a3.55,3.55,0,0,1,4.15.57,23.88,23.88,0,0,1,4.33,4.77,27.35,27.35,0,0,1,3.8,11.55c.11.81.26,1.61.48,2.94.55-.8.8-1.11,1-1.46,3.55-6.08,7-12.2,10.68-18.22,1.32-2.2,1.27-4,0-6.24-2.78-4.9-5.24-10-7.63-15.1a17.74,17.74,0,0,1-1.41-5.52,4.77,4.77,0,0,1,3-5.26,5.46,5.46,0,0,1,6.19,1.43,13.83,13.83,0,0,1,3.2,7c.94,4.47.74,9,.68,13.51A6.58,6.58,0,0,0,31,86.66L46.64,61.77C45.2,57.66,45.21,53.31,45.4,49a55.88,55.88,0,0,1,6.18-23.78,13.43,13.43,0,0,1,3.06-3.82c1.78-1.54,3.6-.89,4,1.45A19.87,19.87,0,0,1,58.81,28c-.51,6.28-2.19,12.3-4,18.29a21,21,0,0,0-1.07,5.06l6.63-9.14c.51-.7,1.07-1.37,1.54-2.1,1.66-2.61,3.71-4.87,5-7.84A89.11,89.11,0,0,1,78.23,12.12c3-3.88,6.24-7.49,10.53-10A19.7,19.7,0,0,1,93,.24c3.15-.91,5.13.82,4.78,4.11a15.7,15.7,0,0,1-3.17,7.34,57.3,57.3,0,0,1-10.5,10.83c-3.81,3.15-7.65,6.29-11.6,9.28-3.6,2.74-6.05,6.44-8.68,10-3.1,4.19-6.09,8.47-9.12,12.71a1.24,1.24,0,0,0-.16,1c.75-.43,1.51-.84,2.25-1.29,5-3,10.11-5.81,15.8-7.31A31.75,31.75,0,0,1,78,46a9.66,9.66,0,0,1,3.58.44,4,4,0,0,1,2.6,5.43,8.64,8.64,0,0,1-3.66,4.29,26.63,26.63,0,0,1-10.08,4.12c-3.84.7-7.73,1.13-11.61,1.6-2.5.3-5,.52-7.53.63a3.57,3.57,0,0,0-3.17,1.86C45.79,68.1,43.34,71.8,41,75.55c-2.12,3.38-4.17,6.8-6.56,10.71,1-.35,1.64-.51,2.2-.74,5.79-2.45,11.72-4.46,18-4.86a23.54,23.54,0,0,1,5.16.34,3.26,3.26,0,0,1,1,6.17,20.16,20.16,0,0,1-4.75,2.06,90.23,90.23,0,0,1-9.2,1.85c-5.5.81-11,1.45-16.87,2.2L17.74,114.35l.37.44c.84-.31,1.69-.59,2.51-.93,6.11-2.57,12.37-4.13,19-2.78a19.82,19.82,0,0,1,4.24,1.22c2.57,1.15,3,3.41,1,5.43a11.24,11.24,0,0,1-6.36,3.35,51.18,51.18,0,0,1-9.06.72c-3.81-.11-7.61-.71-11.41-1.11-1.12-.12-2.23-.27-3.49-.43-.46.77-.93,1.49-1.34,2.24Q8.15,131.77,3.1,141A7.1,7.1,0,0,1,2,142.79a1.57,1.57,0,0,1-1.38.35A1.48,1.48,0,0,1,0,141.88a7.26,7.26,0,0,1,.87-2.15q4.79-8.82,9.62-17.63C11,121.19,11.44,120.27,12,119.26Z"/></g></g></svg>