<svg xmlns="http://www.w3.org/2000/svg" viewBox="0 0 117.78 91.35"><defs><style>.cls-1{fill:#564d08;}.cls-2{fill:#e9674d;}.cls-3{fill:#fd836b;}</style></defs><g id="Layer_2" data-name="Layer 2"><g id="Layer_1-2" data-name="Layer 1"><path class="cls-1" d="M80.77,56.6l1.88.4a99.18,99.18,0,0,1,27.49,10.09,5.71,5.71,0,0,1,.87.49,1.17,1.17,0,0,1,.4,1.6,1.1,1.1,0,0,1-1.44.47,10.07,10.07,0,0,1-1.19-.58,98.21,98.21,0,0,0-26.43-9.66c-.59-.12-1.19-.22-2-.36a13,13,0,0,0,.06,1.33c.91,6,3.4,11.33,6.37,16.49,1.24,2.15,2.63,4.23,4,6.34.74,1.18.74,1.89,0,2.3s-1.35.08-2-.93a92.49,92.49,0,0,1-7.58-13.44A40.74,40.74,0,0,1,77.9,59.68a2.86,2.86,0,0,0-1.57-2.29q-8-5.05-15.94-10.23c-4.3-2.82-8.54-5.76-12.81-8.63-.41-.28-.85-.5-1.53-.9.07.8.11,1.38.16,2,.77,8.06,3.43,15.54,7,22.74.56,1.15,1.14,2.28,1.68,3.44a2.05,2.05,0,0,1,.29,1.09,1.55,1.55,0,0,1-.67,1,1.64,1.64,0,0,1-1.18-.25,1.91,1.91,0,0,1-.57-.8c-3.2-6.16-6.11-12.45-7.59-19.27-.75-3.45-1.12-7-1.53-10.5a2.57,2.57,0,0,0-1.1-2C34,28.61,25.38,22.24,16.94,15.68,11.47,11.43,6.23,6.89.89,2.48A3.19,3.19,0,0,1,.3,1.91,1.11,1.11,0,0,1,.3.39,1.11,1.11,0,0,1,1.81.22,11.57,11.57,0,0,1,3,1.13c7.49,6.07,14.89,12.25,22.5,18.18C32,24.35,38.64,29.09,45.24,34c.22.17.46.3.68.45a1,1,0,0,0,.34-.06c5.71-3.38,12-5.1,18.41-6.51,2.86-.64,5.78-1,8.68-1.47a7.28,7.28,0,0,1,1.32-.11,1.09,1.09,0,0,1,1.15,1A1.13,1.13,0,0,1,75,28.52a8.08,8.08,0,0,1-1.47.26,87.84,87.84,0,0,0-20.46,5,20.49,20.49,0,0,0-4.73,2.32C58,43.07,68.11,49.18,78,55.62c.88-.7,1.63-1.35,2.44-1.91a47,47,0,0,1,21.9-8.08,29.47,29.47,0,0,1,5.45.28,1.81,1.81,0,0,1,1.1.32,1.72,1.72,0,0,1,.6,1.19c-.07.37-.59.7-1,.94a1.26,1.26,0,0,1-.81,0c-4.27-1-8.4-.06-12.45,1.13a41.5,41.5,0,0,0-13.08,6C81.77,55.76,81.37,56.11,80.77,56.6Z"/><path class="cls-2" d="M77.77,22.66A6.48,6.48,0,0,1,80,27.09a4.41,4.41,0,0,1-2,4.3c-4.4,2.92-9.22.68-10.13-3.53a5.86,5.86,0,0,1,2.53-6.19C72.59,20.32,75.18,20.55,77.77,22.66Z"/><path class="cls-3" d="M76.36,28.08a2,2,0,0,1-.22-2.55,1.2,1.2,0,0,1,1.75-.2,2.12,2.12,0,0,1,.41,2.43A1.56,1.56,0,0,1,76.36,28.08Z"/><path class="cls-2" d="M87.31,89.93A5.81,5.81,0,0,1,86,82.59a6.49,6.49,0,0,1,7.51-2.21c3.37,1.42,3.9,7.94,1.06,10A6.14,6.14,0,0,1,87.31,89.93Z"/><path class="cls-3" d="M91.29,87.26c.66-.13,1.22-.42,1.64-.29.65.2.57.83.39,1.41s-.56,1.37-1.39,1.45c-.27,0-.79-.25-.8-.41A17.75,17.75,0,0,1,91.29,87.26Z"/><path class="cls-2" d="M108.19,65.85a5,5,0,0,1,7.07-.92c2.48,2,3.31,5.95,1.69,8-1.78,2.26-5.83,2.56-8.27.63A5.39,5.39,0,0,1,108.19,65.85Z"/><path class="cls-3" d="M115.26,70.72a2.15,2.15,0,0,1-.33-2.86s.09-.09.13-.09c.39,0,.88,0,1.16.17a2.08,2.08,0,0,1,.13,2.42A2.74,2.74,0,0,1,115.26,70.72Z"/><path class="cls-2" d="M105.1,51.11a5.13,5.13,0,0,1-.45-7.15,5.56,5.56,0,0,1,7.58-.9c2.19,1.83,2.71,5.76,1,7.78C111,53.31,107.87,53,105.1,51.11Z"/><path class="cls-3" d="M110.71,49.92a2.19,2.19,0,0,1-.5-2.73.84.84,0,0,1,1.3,0c.58.54.8,2,.28,2.41A2.44,2.44,0,0,1,110.71,49.92Z"/><path class="cls-2" d="M58.84,71.62a5.7,5.7,0,0,1-7.05,1.48c-2.3-1.23-3-4.16-1.72-6.83a4.64,4.64,0,0,1,6.22-2.12c.4.2.76.47,1.15.67A4.25,4.25,0,0,1,58.84,71.62Z"/><path class="cls-3" d="M57.07,70.67a2.75,2.75,0,0,1-1.17.16c-.5-.14-.45-1,0-1.59s1.25-1,1.66-.77S57.93,69.64,57.07,70.67Z"/></g></g></svg>