<?xml version="1.0" encoding="UTF-8"?><svg xmlns="http://www.w3.org/2000/svg" viewBox="0 0 130.11 64.77"><defs><style>.d{fill:#fff;}.e{fill:#d1e2f4;}</style></defs><g id="a"/><g id="b"><g id="c"><g><path class="e" d="M73.35,64.76c-4.04-.21-8.09-.34-12.12-.64-4.87-.36-9.68-1.23-14.47-2.16-6.26-1.22-12.46-2.68-18.48-4.81-5.36-1.89-10.56-4.13-15.45-7.06-3.03-1.82-5.87-3.88-8.17-6.61-1.26-1.5-2.25-3.14-2.95-4.96-.11-.29-.2-.59-.34-.86-2.04-3.97-1.62-7.95,.12-11.84,2.14-4.79,5.48-8.67,9.56-11.94,1.47-1.18,3-2.3,4.51-3.44,4.79-3.6,10.22-5.83,15.94-7.38C40.3,.68,49.27-.32,58.39,.09c5.49,.25,10.99,.5,16.47,.89,5.05,.37,10.01,1.34,14.93,2.58,6.62,1.67,13.08,3.79,19.31,6.61,7.63,3.45,13.65,8.76,18.12,15.82,2.08,3.29,3.17,6.85,2.82,10.78-.22,2.5-1.1,4.8-2.34,6.95-4.11,7.16-9.98,12.34-17.7,15.31-6.18,2.38-12.57,3.92-19.14,4.79-5.82,.77-11.65,1.01-17.51,.93Z"/><path class="d" d="M58.32,6.61c9.01,.2,17.92,1.15,26.66,3.34,7.19,1.8,14.15,4.23,20.48,8.2,3.92,2.46,7.32,5.48,9.81,9.43,1.35,2.14,2.39,4.42,2.84,6.91,.7,3.82-.3,7.29-2.59,10.32-3.1,4.1-7.03,7.27-11.72,9.41-5.76,2.63-11.81,4.26-18.08,5.1-5.63,.75-11.28,1.01-16.98,.87-4.29-.11-8.47-.77-12.68-1.42-6.04-.93-12.05-2.08-17.94-3.71-5.75-1.6-11.5-3.27-16.95-5.79-3.9-1.8-7.5-4.06-10.55-7.13-2.85-2.88-4.27-6.31-3.92-10.38,.19-2.27,.99-4.36,2.08-6.35,1.29-2.34,3.01-4.32,5.07-6.02,6.01-4.96,12.83-8.25,20.43-9.98,4.98-1.14,9.96-2.25,15.07-2.56,2.98-.18,5.98-.17,8.97-.25Zm.01,1.02c-3.16,.1-6.33,.13-9.49,.33-4.89,.3-9.64,1.41-14.4,2.5-7.33,1.67-13.91,4.84-19.74,9.59-2.68,2.19-4.75,4.81-6.03,8.03-1.99,5.02-.95,9.76,2.91,13.54,2.18,2.14,4.65,3.89,7.34,5.33,6.67,3.59,13.92,5.65,21.18,7.53,5.1,1.32,10.33,2.1,15.5,3.15,6.06,1.23,12.21,1.66,18.36,1.56,4.08-.07,8.17-.47,12.22-1,6.22-.82,12.22-2.52,17.89-5.24,4.07-1.96,7.48-4.81,10.29-8.3,2.36-2.93,3.42-6.33,2.71-10.12-.39-2.09-1.26-4.02-2.34-5.85-2.67-4.52-6.56-7.75-11.02-10.38-5.89-3.47-12.28-5.66-18.86-7.31-8.7-2.19-17.56-3.13-26.52-3.36Z"/><path class="d" d="M62.18,34.51c-.7-.46-1.25-.8-1.76-1.18-.49-.37-.98-.75-1.38-1.21-.19-.22-.34-.77-.21-.92,.2-.25,.69-.45,.99-.38,.63,.14,1.26,.4,1.82,.73,.75,.44,1.44,1,2.27,1.59,.31-.37,.6-.8,.97-1.14,.68-.61,1.4-1.2,2.14-1.73,.4-.28,.93-.43,1.32,.03,.38,.44,.2,.93-.09,1.34-.38,.54-.79,1.05-1.24,1.54-.2,.22-.52,.33-.78,.49,.06,.11,.12,.22,.18,.33,.37,.08,.74,.14,1.1,.24,.59,.16,1.2,.29,1.77,.52,.93,.37,1.42,.96,1.25,1.48-.25,.77-.96,.89-1.61,.87-.87-.02-1.75-.12-2.61-.26-.55-.09-1.07-.32-1.67-.51-.06,.52-.06,.97-.17,1.38-.14,.55-.3,1.11-.55,1.61-.23,.47-.57,1-1.21,.77-.6-.22-.42-.81-.36-1.27,.09-.64,.25-1.28,.43-2.19-.6,.3-.99,.53-1.41,.69-.82,.31-1.64,.63-2.48,.86-.46,.13-1.03,.18-1.26-.4-.21-.52,.08-.96,.49-1.26,.57-.41,1.16-.79,1.79-1.1,.65-.32,1.35-.55,2.25-.91Z"/></g></g></g></svg>