<svg xmlns="http://www.w3.org/2000/svg" viewBox="0 0 64.16 48.26"><defs><style>.cls-1{fill:#f2b669;}.cls-2{fill:#bad3ce;}</style></defs><g id="Layer_2" data-name="Layer 2"><g id="Image"><path class="cls-1" d="M13.52,29.28c-.24.23-2.64,4-2.45,4.34s4.5-3.3,4.5-3.3,2.42,5,2.82,4.67-.22-4.92-.22-4.92,5,.22,5-.12-4.64-2.23-4.64-2.23,5.18-4,5.14-4.23-6.19,2-6.19,2,.91-5.46.61-5.4S15,25.39,15,25.39s-3.86-3.77-4.21-3.6S12.46,27,12.46,27s-4.59,1.87-4.63,2.3C7.77,30,13.52,29.28,13.52,29.28Z"/><path class="cls-1" d="M33.42,13.48c-.16.39-.88,6.29-.48,6.53s3.51-6.45,3.51-6.45,5.65,4.54,6,4-3-5.74-3-5.74,6.14-2.57,5.9-3-6.77,0-6.77,0S42.46,1.18,42.26.88s-6.21,5.9-6.21,5.9-2-7-2.31-6.77S33,8,33,8s-6.72-2.34-7-1.94,4.87,5.26,4.87,5.26-4.42,4.81-4.23,5.34C27,17.54,33.42,13.48,33.42,13.48Z"/><path class="cls-1" d="M29,43.63c-.11.28-.62,4.45-.34,4.62s2.48-4.56,2.48-4.56,4,3.21,4.23,2.82-2.14-4.06-2.14-4.06,4.34-1.82,4.17-2.09-4.78,0-4.78,0,2.78-5.38,2.64-5.59-4.4,4.17-4.4,4.17-1.41-5-1.63-4.79a50,50,0,0,0-.49,5.65s-4.75-1.65-5-1.37,3.44,3.72,3.44,3.72-3.12,3.4-3,3.78C24.43,46.51,29,43.63,29,43.63Z"/><path class="cls-1" d="M50.5,24.9a13.43,13.43,0,0,0-.24,3.31c.2.12,1.77-3.27,1.77-3.27s2.86,2.3,3,2-1.53-2.91-1.53-2.91,3.1-1.29,3-1.49a20.62,20.62,0,0,0-3.42,0,42.25,42.25,0,0,0,1.89-4,32.71,32.71,0,0,0-3.15,3s-1-3.55-1.17-3.43a36.78,36.78,0,0,0-.35,4s-3.39-1.18-3.55-1,2.45,2.66,2.45,2.66-2.23,2.44-2.13,2.7C47.24,27,50.5,24.9,50.5,24.9Z"/><path class="cls-2" d="M34.89,26.13a1.61,1.61,0,1,1-1.61-1.61A1.61,1.61,0,0,1,34.89,26.13Z"/><circle class="cls-2" cx="4.58" cy="40.05" r="1.13"/><path class="cls-2" d="M64.16,20.13a1.63,1.63,0,1,1-1.63-1.63A1.63,1.63,0,0,1,64.16,20.13Z"/><path class="cls-2" d="M57.43,7.15a2.09,2.09,0,1,1-2.09-2.09A2.09,2.09,0,0,1,57.43,7.15Z"/><path class="cls-2" d="M3.45,23.44a1.73,1.73,0,1,1-1.72-1.72A1.73,1.73,0,0,1,3.45,23.44Z"/><path class="cls-2" d="M20.69,43.58a.42.42,0,0,0-.27-.18c-.73-.14-1.48-.25-2.25-.34.53-.51,1.07-1,1.59-1.47a.4.4,0,0,0,.14-.29.46.46,0,0,0-.11-.3.42.42,0,0,0-.59,0c-.43.38-.86.77-1.28,1.18,0-.54.1-1.08.14-1.59a.41.41,0,0,0-.1-.3.43.43,0,0,0-.29-.15.41.41,0,0,0-.45.38c0,.63-.11,1.28-.18,1.92a18,18,0,0,0-1.26-1.32.42.42,0,0,0-.59,0,.41.41,0,0,0-.12.3.4.4,0,0,0,.12.29c.39.37.77.78,1.17,1.23-.76,0-1.52-.06-2.26,0a.42.42,0,0,0-.3.12.41.41,0,0,0-.11.3.4.4,0,0,0,.43.41c.7,0,1.42,0,2.16,0-.6.6-1.19,1.21-1.75,1.81a.38.38,0,0,0-.11.3.44.44,0,0,0,.14.29.42.42,0,0,0,.59,0c.53-.56,1.08-1.14,1.66-1.71-.1.74-.21,1.47-.33,2.18a.38.38,0,0,0,.07.31.41.41,0,0,0,.28.17h.06a.42.42,0,0,0,.42-.34c.12-.74.24-1.5.34-2.27.42.52.82,1,1.26,1.63a.44.44,0,0,0,.59.09.46.46,0,0,0,.17-.28.48.48,0,0,0-.08-.31c-.44-.57-.86-1.12-1.3-1.67.67.08,1.33.19,2,.31a.42.42,0,0,0,.43-.64Z"/><path class="cls-2" d="M17.77,10.18a.54.54,0,0,0-.32-.21c-.85-.16-1.74-.29-2.63-.4.62-.59,1.25-1.17,1.86-1.72a.44.44,0,0,0,.16-.34.47.47,0,0,0-.13-.35.5.5,0,0,0-.69,0c-.5.44-1,.9-1.5,1.37.06-.63.12-1.25.16-1.86a.49.49,0,0,0-.11-.35.51.51,0,0,0-.34-.17.49.49,0,0,0-.53.45c-.06.73-.13,1.49-.2,2.24C13,8.24,12.5,7.73,12,7.26a.51.51,0,0,0-.69,0,.49.49,0,0,0-.15.35.51.51,0,0,0,.15.35c.45.43.9.91,1.37,1.44-.9-.05-1.79-.07-2.65-.05a.45.45,0,0,0-.35.15.5.5,0,0,0-.14.35.49.49,0,0,0,.51.47c.82,0,1.67,0,2.53,0-.71.7-1.39,1.42-2,2.12a.52.52,0,0,0-.13.36.5.5,0,0,0,.86.3c.62-.66,1.27-1.34,1.94-2-.12.87-.25,1.73-.39,2.56a.47.47,0,0,0,.09.36.46.46,0,0,0,.32.2h.08a.49.49,0,0,0,.49-.4c.14-.86.27-1.75.39-2.66.49.62,1,1.24,1.49,1.92a.5.5,0,0,0,.68.09.48.48,0,0,0,.11-.68c-.51-.67-1-1.32-1.52-2,.78.1,1.55.22,2.3.36a.49.49,0,0,0,.51-.75Z"/><path class="cls-2" d="M50.68,37.57a.42.42,0,0,0-.29-.19c-.79-.15-1.6-.27-2.43-.37.57-.55,1.15-1.08,1.72-1.59a.46.46,0,0,0,.15-.31.44.44,0,0,0-.12-.33.47.47,0,0,0-.64,0c-.46.41-.92.84-1.39,1.27.06-.58.11-1.16.15-1.72a.48.48,0,0,0-.1-.33.44.44,0,0,0-.32-.15.46.46,0,0,0-.49.41c-.05.68-.11,1.38-.18,2.08-.47-.53-.92-1-1.37-1.44a.46.46,0,0,0-.64,0,.42.42,0,0,0-.13.32.48.48,0,0,0,.13.32c.42.4.84.84,1.27,1.33-.83-.05-1.65-.06-2.45-.05a.43.43,0,0,0-.32.14.44.44,0,0,0-.13.32.45.45,0,0,0,.47.44c.76,0,1.54,0,2.34,0-.65.66-1.29,1.32-1.9,2a.42.42,0,0,0-.11.32.39.39,0,0,0,.15.32.48.48,0,0,0,.64,0c.57-.62,1.17-1.24,1.79-1.86-.11.8-.23,1.59-.36,2.36a.46.46,0,0,0,.08.34.45.45,0,0,0,.3.18h.07A.44.44,0,0,0,47,41c.14-.79.26-1.62.37-2.45.45.56.89,1.14,1.37,1.76a.48.48,0,0,0,.64.1.47.47,0,0,0,.18-.3.52.52,0,0,0-.09-.34c-.47-.61-.93-1.21-1.4-1.8.72.08,1.44.19,2.13.33a.45.45,0,0,0,.53-.36A.41.41,0,0,0,50.68,37.57Z"/></g></g></svg>