<svg xmlns="http://www.w3.org/2000/svg" viewBox="0 0 22.38 22"><defs><style>.cls-1{fill:#3d4e68;}</style></defs><g id="Layer_2" data-name="Layer 2"><g id="Image"><path class="cls-1" d="M22.15,11a1.25,1.25,0,0,0-.85-.56C19,10,16.61,9.61,14.19,9.34c1.68-1.61,3.37-3.16,5-4.65a1.29,1.29,0,0,0,.08-1.87,1.33,1.33,0,0,0-1.87-.08c-1.33,1.19-2.69,2.44-4,3.71.17-1.71.32-3.4.45-5A1.33,1.33,0,0,0,12.59,0a1.33,1.33,0,0,0-1.42,1.22c-.15,2-.34,4-.55,6.06-1.37-1.55-2.68-2.93-4-4.19a1.34,1.34,0,0,0-1.87,0,1.29,1.29,0,0,0-.4.94,1.3,1.3,0,0,0,.4.93C6,6.15,7.2,7.42,8.47,8.85,6,8.72,3.64,8.68,1.31,8.72a1.29,1.29,0,0,0-.93.41,1.28,1.28,0,0,0-.38.94,1.31,1.31,0,0,0,1.36,1.29c2.23,0,4.52,0,6.84.12-1.9,1.9-3.76,3.83-5.53,5.73a1.34,1.34,0,0,0-.35,1,1.29,1.29,0,0,0,.45.91A1.36,1.36,0,0,0,4.64,19c1.67-1.79,3.42-3.62,5.23-5.43-.32,2.35-.67,4.66-1,6.91A1.31,1.31,0,0,0,9.93,22l.21,0a1.32,1.32,0,0,0,1.32-1.1c.39-2.32.75-4.73,1.08-7.17,1.31,1.66,2.6,3.34,4,5.17a1.37,1.37,0,0,0,1.85.26,1.3,1.3,0,0,0,.53-.87,1.32,1.32,0,0,0-.25-1C17.3,15.52,16,13.76,14.58,12c2.11.25,4.19.58,6.2,1a1.33,1.33,0,0,0,1.57-1A1.27,1.27,0,0,0,22.15,11Z"/></g></g></svg>