<svg xmlns="http://www.w3.org/2000/svg" viewBox="0 0 27.48 43.75"><defs><style>.cls-1{fill:#eb644e;}.cls-2{fill:#746b22;}.cls-3{fill:#351c17;}</style></defs><g id="Layer_2" data-name="Layer 2"><g id="Layer_1-2" data-name="Layer 1"><path class="cls-1" d="M27.48,28.44A26.32,26.32,0,0,1,25.4,39.12c-1.72,4-4.17,5.18-8.37,4.42S9.61,40.1,7.15,36.77a44,44,0,0,1-4.26-7.55c-1.09-2.31-.55-4.68.71-6.84,3.07-5.22,12-8.77,17.8-7.1a6.53,6.53,0,0,1,4.83,4.8,19.69,19.69,0,0,1,.55,2.39C27.05,24.45,27.25,26.45,27.48,28.44Z"/><path class="cls-2" d="M8.27,14c0-1.48,0-2.43-.06-3.37A23.09,23.09,0,0,1,9.55,2.48a4.1,4.1,0,0,1,.61-1.43,2.85,2.85,0,0,1,1.51-1c.83-.06,1,.78,1,1.47.16,2.37.29,4.75.45,7.13A5.37,5.37,0,0,0,13.82,11,16.13,16.13,0,0,1,15,9.3c1.35-1.48,2.7-3,4.16-4.32a1.71,1.71,0,0,1,1.58-.21c.75.38.51,1.15.16,1.76a39.72,39.72,0,0,0-4,10.37.73.73,0,0,1-.06.21c-.71,1.48-5.51,3.26-7,2.41-2.76-1.59-5.45-3.34-8.13-5.08A3.85,3.85,0,0,1,.37,13,2.77,2.77,0,0,1,.1,11c.36-.8,1.28-.59,2-.26,1.07.52,2.11,1.11,3.16,1.66Z"/><path class="cls-3" d="M21.56,22.87c-.08.56-.35,1.05-.8,1.14-1,.19-1.14-.68-1.18-1.43s0-1.44.85-1.54S21.68,22,21.56,22.87Z"/><path class="cls-3" d="M21.64,36.32a.43.43,0,0,1,.32.16A2.7,2.7,0,0,1,22.5,38a1.69,1.69,0,0,1-.95,1.2c-.56.21-1.26-.78-1.06-1.57a2.46,2.46,0,0,1,.44-.79C21.1,36.58,21.37,36.31,21.64,36.32Z"/><path class="cls-3" d="M18.52,30.39a1.16,1.16,0,0,1-1,1.07,1.1,1.1,0,0,1-1.17-1.3,1.77,1.77,0,0,1,.73-1,1.08,1.08,0,0,1,1.25.38A1.15,1.15,0,0,1,18.52,30.39Z"/><path class="cls-3" d="M9.48,26.59a.9.9,0,0,1,.62,0,1.25,1.25,0,0,1,.8,1.4,1.29,1.29,0,0,1-.75.87c-.64.19-1.4-.6-1.29-1.38A1.08,1.08,0,0,1,9.48,26.59Z"/><path class="cls-3" d="M14.43,35.58c.48,0,1,.81,1.06,1.3A1.35,1.35,0,0,1,14.81,38c-.8.18-1.26-.41-1.22-1.18a2.31,2.31,0,0,1,.41-.92A.56.56,0,0,1,14.43,35.58Z"/></g></g></svg>