<svg xmlns="http://www.w3.org/2000/svg" viewBox="0 0 28.21 41.48"><defs><style>.cls-1{fill:#eb644e;}.cls-2{fill:#746b22;}.cls-3{fill:#351c17;}</style></defs><g id="Layer_2" data-name="Layer 2"><g id="Layer_1-2" data-name="Layer 1"><path class="cls-1" d="M28.21,19.62c-.28,1.53-.48,3.08-.85,4.59A31.35,31.35,0,0,1,20.44,37.6a20.69,20.69,0,0,1-3.7,3.15,4.14,4.14,0,0,1-4.45.16,7.82,7.82,0,0,1-1-.57C5.6,36.11,1.47,30.84.18,23.72c-.76-4.16.9-7.27,4.7-9.11A32.8,32.8,0,0,1,8,13.4c1.59-.57,3.16-1.19,4.78-1.65,4.5-1.3,8.77-.88,12.56,2.08A7.24,7.24,0,0,1,28.21,19.62Z"/><path class="cls-2" d="M9,9.62c.37-1.94.66-3.74,1.07-5.51a16.05,16.05,0,0,1,1-2.75c.35-.8.88-1.56,1.9-1.31s1.16,1,1.15,1.84c0,1.43-.1,2.86-.16,4.28,0,.38-.05.75-.1,1.48a14.28,14.28,0,0,1,1.4-1.41c1.14-.85,2.28-1.71,3.49-2.44a1.54,1.54,0,0,1,2,2.3,14.09,14.09,0,0,1-1.5,1.79c-1.57,1.65-3.14,3.29-4.75,4.9a8.4,8.4,0,0,1-1.95,1.58,3.19,3.19,0,0,1-3.34,0c-1.83-1.11-3.73-2.11-5.59-3.17-.85-.49-1.71-.95-2.51-1.51A1.61,1.61,0,0,1,.21,7.86,1.68,1.68,0,0,1,2,6.62a8.88,8.88,0,0,1,3,.63A42.47,42.47,0,0,1,9,9.62Z"/><path class="cls-3" d="M17.79,33a3,3,0,0,1-.2,1,1,1,0,0,1-.76.47,1.07,1.07,0,0,1-.68-.55,1.89,1.89,0,0,1-.16-1c0-.64-.07-1.44.83-1.49S17.72,32.18,17.79,33Z"/><path class="cls-3" d="M12.16,28.82c-.64,0-1.18-.8-1.14-1.6,0-.61.34-1.07,1-1,.78.13.92.82,1,1.5S12.77,28.76,12.16,28.82Z"/><path class="cls-3" d="M8.23,32.62a.77.77,0,0,1-.62.68c-.56.17-1.32-.68-1.22-1.43a1.39,1.39,0,0,1,.72-1c.58-.23.89.42,1,.87A2.06,2.06,0,0,1,8.23,32.62Z"/><path class="cls-3" d="M18.15,19.92a1.22,1.22,0,0,1,0,.27c-.06.34-.5.95-.91.79a2,2,0,0,1-.79-1.15c-.08-.5.56-.91,1-.79A1.09,1.09,0,0,1,18.15,19.92Z"/><path class="cls-3" d="M7.4,20.58a.59.59,0,0,1,0,.26,1.39,1.39,0,0,1-.81.82c-.7.13-1.05-.5-1-1.08A1.33,1.33,0,0,1,6,19.84c.23-.2.46-.1.74,0S7.34,20.26,7.4,20.58Z"/><path class="cls-3" d="M22.43,26.45a.85.85,0,0,1-.95-1.16c.1-.35.51-.83.8-.85.74,0,1,.6.85,1.19A1,1,0,0,1,22.43,26.45Z"/></g></g></svg>