<svg xmlns="http://www.w3.org/2000/svg" viewBox="0 0 38.62 41.83"><defs><style>.cls-1{fill:#eb644e;}.cls-2{fill:#746b22;}.cls-3{fill:#351c17;}</style></defs><g id="Layer_2" data-name="Layer 2"><g id="Layer_1-2" data-name="Layer 1"><path class="cls-1" d="M0,31.63a34.2,34.2,0,0,1,2.1-13.14,10.22,10.22,0,0,1,8.12-6.87,10.75,10.75,0,0,1,6.3.92A33.43,33.43,0,0,1,26.1,19c2.24,2.06,2.8,4.84,2.32,7.81a14,14,0,0,1-5.36,9A28.51,28.51,0,0,1,9,41.75a11.9,11.9,0,0,1-1.34.08C2.94,41.9.5,39.72.09,35,0,33.87,0,32.75,0,31.63Z"/><path class="cls-2" d="M21,8.86c.65-1.35,1.22-2.64,1.88-3.88A11.57,11.57,0,0,1,27.24.3a2.55,2.55,0,0,1,2-.16c.29.11.42,1.23.24,1.77C29,3.53,28.26,5.1,27.6,6.67c-.54,1.28-1.13,2.55-1.82,4.11,2.17-.63,4-1.27,5.8-1.64A26.25,26.25,0,0,1,36,8.79a2.85,2.85,0,0,1,1.5.32c.46.27,1,.76,1.09,1.2a1.87,1.87,0,0,1-.86,1.37,8.77,8.77,0,0,1-2.09.74l-5.86,1.9,0,.49,1.77.47c2.17.56,3.38,1.48,3,2.41-.66,1.58-2.17,1.22-3.47,1.23-2.68,0-5.37-.12-8,0a11,11,0,0,1-4.15-.56,1.9,1.9,0,0,1-1.51-2.31c.11-1.25-.08-2.53-.06-3.79A31,31,0,0,1,17.56,9c.09-.84.37-1.66,1.35-1.83s1.28.57,1.66,1.23A3.41,3.41,0,0,0,21,8.86Z"/><path class="cls-3" d="M8.41,16.9a1.11,1.11,0,0,1,.56,1c0,.92-.93,2-1.57,1.81a1.46,1.46,0,0,1-.8-1.06A2.2,2.2,0,0,1,7.51,17,.85.85,0,0,1,8.41,16.9Z"/><path class="cls-3" d="M23.19,24.16c.32.84-.54,2.35-1.47,2.22a1.44,1.44,0,0,1-.95-.91,1.85,1.85,0,0,1,1.5-1.87A.91.91,0,0,1,23.19,24.16Z"/><path class="cls-3" d="M6.62,27.47c.31.92-.45,2.51-1.43,2.37a1.25,1.25,0,0,1-.83-.8c-.2-.88.68-2.26,1.4-2.21A.91.91,0,0,1,6.62,27.47Z"/><path class="cls-3" d="M11.77,27a1.4,1.4,0,0,1-.46-1.57c.18-.51.79-1.36,1.44-1.13a1.45,1.45,0,0,1,.81,1.05,1.75,1.75,0,0,1-1.32,1.72A.62.62,0,0,1,11.77,27Z"/><path class="cls-3" d="M20.64,32.08c.23.93-.65,2.42-1.57,2.23a1.48,1.48,0,0,1-.91-1c-.1-.83,1.12-2.08,1.79-1.91A.88.88,0,0,1,20.64,32.08Z"/><path class="cls-3" d="M10.8,34.32a1.08,1.08,0,0,1,.88,1c.05.71-.86,1.51-1.46,1.29-.32-.12-.79-.71-.71-.9a4.75,4.75,0,0,1,.64-1.06A.76.76,0,0,1,10.8,34.32Z"/></g></g></svg>