<?xml version="1.0" encoding="UTF-8"?><svg xmlns="http://www.w3.org/2000/svg" viewBox="0 0 136.66 97.47"><defs><style>.d{fill:#e9674d;}.e{fill:#371c15;}</style></defs><g id="a"/><g id="b"><g id="c"><g><path class="e" d="M55.84,52.52c-.34,3.23-.59,6.48-1.04,9.7-.75,5.29-3.14,9.87-6.46,13.98-4.17,5.16-9.63,7.31-16.19,6.54-4.17-.49-8.08-1.9-11.7-4.05-3.09-1.83-5.64-4.26-7.59-7.27-1.09-1.68-2.04-3.46-3.1-5.17-1.55-2.48-2.15-5.19-1.88-8.07,.05-.49,.6-1.07,1.07-1.34,1.97-1.16,3.97-2.27,6-3.31,10.52-5.36,21.37-9.87,32.8-12.93,.74-.2,1.47-.4,2.22-.53,2.47-.42,3.91,.33,4.6,2.75,.53,1.85,.75,3.8,.96,5.72,.14,1.3,.03,2.63,.03,3.95l.29,.02Z"/><path class="e" d="M117.81,33.7c.1,2.45-.64,6.78-2.22,11-1.85,4.93-5.19,8.02-10.36,9.25-4.1,.98-8.22,1.45-12.37,.77-4.36-.72-8.1-2.86-11.18-6.01-3.6-3.68-6.75-7.73-9.1-12.35-1.15-2.25-1.1-3.48,.62-5.27,2.61-2.71,5.69-4.85,8.92-6.78,.18-.11,.38-.25,.57-.24,2.18,.13,3.7-1.34,5.45-2.25,5.59-2.91,11.16-5.88,16.76-8.77,1.35-.69,2.78-1.27,4.24-1.69,3.62-1.06,6.09,.33,6.8,3.99,1.05,5.38,1.82,10.8,1.89,18.34Z"/><path class="d" d="M19.58,97.46c-2.09-.36-4.31-.86-6.28-2.13-.94-.6-1.31-1.44-1.04-2.5,1.21-4.66,2.87-9.13,5.54-13.17,.48-.73,1.19-.98,1.99-.63,1.39,.61,2.81,1.21,4.13,1.95,1.18,.66,1.32,1.29,.88,2.63-.71,2.17-1.54,4.31-2.15,6.51-.51,1.87-.78,3.8-1.15,5.7-.19,.98-.56,1.73-1.92,1.63Z"/><path class="d" d="M122.86,32.85c3.61,.31,7.75,1.44,11.69,3.22,2.13,.96,2.55,2.18,1.71,4.4-.36,.97-.8,1.93-1.35,2.8-.68,1.07-1.47,1.28-2.69,.88-.59-.19-1.17-.44-1.72-.74-3.33-1.81-6.92-2.8-10.61-3.53-2.12-.42-2.49-1.07-1.84-3.19,.14-.46,.28-.93,.45-1.39,.83-2.31,1.18-2.55,4.35-2.45Z"/><path class="d" d="M6.05,64.06c-3.51,0-3.53,.01-4.65-3.27-.47-1.38-.92-2.77-1.23-4.18-.36-1.65-.22-1.88,1.35-2.51,4.63-1.85,9.28-3.66,13.92-5.49,14.24-5.62,28.52-11.15,42.71-16.89,13.07-5.29,25.35-12.19,37.59-19.14,6.69-3.8,13.3-7.74,19.97-11.58,2.7-1.55,2.98-1.44,4.31,1.37,.53,1.12,.97,2.3,1.37,3.48,.96,2.89,.84,3.2-1.77,5.06,.06,.4,.09,.88,.21,1.33,2.87,10.16,2.93,20.33,.71,30.64-1.31,6.09-5.1,9.85-10.23,12.6-3.81,2.04-7.94,3.27-12.23,3.91-4.61,.68-8.81-.65-12.72-2.93-3.38-1.97-6.3-4.54-8.74-7.61-2.81-3.52-5.72-6.97-8.34-10.63-1.82-2.55-3.71-1.88-5.84-.35-.5,.36-.77,1.34-.76,2.03,.02,2.42,.23,4.84,.34,7.26,.24,5.4,.82,10.8-.15,16.19-.67,3.72-1.94,7.22-3.7,10.55-1.58,2.98-4.01,5.17-6.77,6.92-4.47,2.84-9.22,5.13-14.52,5.95-6.96,1.08-13.22-.48-18.6-5.15-3.06-2.67-5.6-5.77-7.63-9.28-1.55-2.7-3.04-5.43-4.62-8.25Zm46.19-10.78c-.12-.01-.25-.02-.37-.03,0-1.8,.07-3.61-.02-5.41-.09-1.7-.93-2.34-2.61-2.13-.82,.1-1.63,.33-2.42,.57-10.56,3.2-20.68,7.58-30.87,11.73-.83,.34-1.6,.83-2.34,1.33-.78,.52-1,1.2-.6,2.15,2.69,6.44,6.82,11.72,12.52,15.75,3.54,2.5,7.4,3.6,11.79,2.6,7.18-1.64,12.11-6,13.35-13.36,.73-4.36,1.07-8.79,1.59-13.19Zm62.04-24.35c0-1.04,.09-2.09-.02-3.12-.33-3.24-.7-6.48-1.14-9.7-.17-1.19-.8-1.48-1.92-1.14-.39,.12-.76,.34-1.12,.54-2.5,1.36-5.01,2.69-7.49,4.08-6.71,3.76-13.41,7.54-20.12,11.32-1.27,.71-2.56,1.4-3.8,2.15-2.14,1.29-2.35,2.32-1.02,4.42,3.34,5.29,8.13,9.05,13.22,12.47,1.93,1.3,4.18,1.98,6.51,1.85,7.5-.4,12.69-3.65,15.31-10.99,1.37-3.84,1.83-7.82,1.6-11.88Z"/></g></g></g></svg>