<svg xmlns="http://www.w3.org/2000/svg" viewBox="0 0 25.01 38.68"><defs><style>.cls-1{fill:#f2b669;}</style></defs><g id="Layer_2" data-name="Layer 2"><g id="Image"><path class="cls-1" d="M19.66,24.43A14.22,14.22,0,0,0,13.48,21c-.05-1.49-.08-2.75-.08-3.63,0-1,0-2.13,0-4,1.21,1.54,2.78,3.51,4.27,5.11s5.66,4.84,6.55,3.83c.67-.75-1.49-4.09-2.65-5.38A89.18,89.18,0,0,0,13.51,9c0-2.28-.19-4.13-.29-5.62a42,42,0,0,0,4.14,4.35c.58.54,1.26,1.1,1.93,1a.41.41,0,0,0,.26-.13c.12-.16,0-.43-.05-.64a8.75,8.75,0,0,0-.78-1.33A29.2,29.2,0,0,0,14.14.89,3.2,3.2,0,0,0,12.87.12c-.18,0-.95-.52-2.31.78A31.37,31.37,0,0,0,5.8,6.29c-.29.42-.74,1.19-.57,1.68C5.62,9,7.59,7.76,8.17,7.23a22.15,22.15,0,0,0,2.89-3.32c0,1.61-.05,3.58,0,5.61a12,12,0,0,0-1.21,1A54.56,54.56,0,0,0,2,18.28c-.5.65-1.84,2.51-1.33,3.13.86,1.07,4.14-1.11,5.12-1.95a33.92,33.92,0,0,0,5.34-5c0,1.66,0,1.89,0,3.18,0,.84,0,2,.05,3.33a6.81,6.81,0,0,0-1.83.91,41.19,41.19,0,0,0-7.89,7.34,10.72,10.72,0,0,0-1.35,1.7c-.16.28-.27.6-.09.82,1.23,1.53,5.9-2.08,7-2.9a43.89,43.89,0,0,0,4.19-4c.05,6.36.23,13.92,1.44,13.92s1.08-7.66.88-14.08a62.63,62.63,0,0,0,7.55,6c1,.69,3.17,1.84,3.79,1.1S21.06,25.73,19.66,24.43Z"/></g></g></svg>